<!DOCTYPE svg PUBLIC "-//W3C//DTD SVG 1.1//EN" "http://www.w3.org/Graphics/SVG/1.1/DTD/svg11.dtd">
<!-- Uploaded to: SVG Repo, www.svgrepo.com, Transformed by: SVG Repo Mixer Tools -->
<svg fill="#447eca" height="800px" width="800px" version="1.1" id="Layer_1" xmlns="http://www.w3.org/2000/svg" xmlns:xlink="http://www.w3.org/1999/xlink" viewBox="0 0 504 504" xml:space="preserve">
<g id="SVGRepo_bgCarrier" stroke-width="0"/>
<g id="SVGRepo_tracerCarrier" stroke-linecap="round" stroke-linejoin="round"/>
<g id="SVGRepo_iconCarrier"> <g> <g> <path d="M452.704,108.744c-0.068-0.344-0.164-0.672-0.272-1.004c-0.056-0.152-0.076-0.316-0.136-0.464 c-0.148-0.356-0.34-0.692-0.54-1.024c-0.064-0.104-0.104-0.224-0.18-0.328c-0.284-0.432-0.612-0.832-0.976-1.196L348.184,2.312 c-0.36-0.368-0.76-0.696-1.192-0.98c-0.108-0.072-0.224-0.116-0.332-0.18c-0.328-0.2-0.66-0.396-1.02-0.544 c-0.152-0.064-0.312-0.092-0.468-0.148c-0.328-0.112-0.656-0.236-1-0.304C343.664,0.056,343.14,0,342.612,0h-267.8 C61.784,0,51.188,10.596,51.188,23.624v456.752c0,13.028,10.596,23.624,23.624,23.624h354.476 c13.028,0,23.524-10.596,23.524-23.624V110.3C452.812,109.772,452.808,109.248,452.704,108.744z M437.064,480.376 c0,4.34-3.428,7.876-7.772,7.876H74.812c-4.344,0-7.876-3.536-7.876-7.876V23.624c0-4.34,3.532-7.876,7.876-7.876h259.876v68.3 c0,18.816,15.36,34.076,34.172,34.076h68.204V480.376z"/> </g> </g> <g> <g> <path d="M251.68,196.872h-66.616v-66.98c0-2.176-1.924-3.94-4.104-3.94c-41.248,0-74.896,33.564-74.896,74.816 s33.524,74.82,74.772,74.82c41.26,0,74.8-33.544,74.8-74.8C255.636,198.612,253.856,196.872,251.68,196.872z"/> </g> </g> <g> <g> <path d="M200.796,106.392c-2.176,0-3.92,1.756-3.92,3.936v70.88c0,2.176,1.732,3.856,3.904,3.856h70.88 c2.176,0,3.944-1.724,3.944-3.9C275.6,139.916,242.048,106.392,200.796,106.392z"/> </g> </g> <g> <g> <path d="M397.78,153.56h-86.788c-4.352,0-7.876,3.528-7.876,7.876s3.524,7.876,7.876,7.876h86.788 c4.352,0,7.876-3.528,7.876-7.876S402.132,153.56,397.78,153.56z"/> </g> </g> <g> <g> <path d="M397.64,192.936h-86.648c-4.352,0-7.876,3.528-7.876,7.876c0,4.348,3.524,7.876,7.876,7.876h86.648 c4.344,0,7.876-3.528,7.876-7.876C405.516,196.464,401.984,192.936,397.64,192.936z"/> </g> </g> <g> <g> <path d="M397.64,232.312h-86.648c-4.352,0-7.876,3.528-7.876,7.876s3.524,7.876,7.876,7.876h86.648 c4.344,0,7.876-3.528,7.876-7.876S401.984,232.312,397.64,232.312z"/> </g> </g> <g> <g> <path d="M193.108,326.812H106.32c-4.352,0-7.876,3.528-7.876,7.876c0,4.348,3.524,7.876,7.876,7.876h86.788 c4.352,0,7.876-3.528,7.876-7.876C200.984,330.34,197.46,326.812,193.108,326.812z"/> </g> </g> <g> <g> <path d="M192.968,366.184H106.32c-4.352,0-7.876,3.528-7.876,7.876c0,4.348,3.524,7.876,7.876,7.876h86.648 c4.344,0,7.876-3.528,7.876-7.876C200.844,369.712,197.312,366.184,192.968,366.184z"/> </g> </g> <g> <g> <path d="M192.968,405.56H106.32c-4.352,0-7.876,3.528-7.876,7.876c0,4.348,3.524,7.876,7.876,7.876h86.648 c4.344,0,7.876-3.528,7.876-7.876C200.844,409.088,197.312,405.56,192.968,405.56z"/> </g> </g> <g> <g> <path d="M287.436,315c0-4.348-3.528-7.876-7.876-7.876H252c-4.352,0-7.876,3.528-7.876,7.876v110.248 c0,4.348,3.524,7.876,7.876,7.876h27.564c4.348,0,7.876-3.528,7.876-7.876V315H287.436z M271.688,346.5h-11.812v-23.624h11.812 V346.5z"/> </g> </g> <g> <g> <path d="M397.688,334.688h-27.564c-4.348,0-7.876,3.528-7.876,7.876v82.688c0,4.348,3.528,7.876,7.876,7.876h27.564 c4.348,0,7.876-3.528,7.876-7.876v-82.688C405.564,338.216,402.036,334.688,397.688,334.688z M389.812,381.936H378v-31.5h11.812 V381.936z"/> </g> </g> <g> <g> <path d="M338.624,362.248H311.06c-4.348,0-7.876,3.528-7.876,7.876v55.124c0,4.348,3.528,7.876,7.876,7.876h27.564 c4.348,0,7.876-3.528,7.876-7.876v-55.124C346.5,365.776,342.972,362.248,338.624,362.248z M330.752,397.688H318.94V378h11.812 V397.688z"/> </g> </g> </g>
</svg>