<?xml version="1.0" encoding="utf-8"?>
<!-- Generator: Adobe Illustrator 27.5.0, SVG Export Plug-In . SVG Version: 6.00 Build 0)  -->
<svg version="1.1" xmlns="http://www.w3.org/2000/svg" xmlns:xlink="http://www.w3.org/1999/xlink" x="0px" y="0px"
	 viewBox="0 0 500 500" style="enable-background:new 0 0 500 500;" xml:space="preserve">
<g id="BACKGROUND">
	<rect style="fill:#FFFFFF;" width="500" height="500"/>
</g>
<g id="OBJECT">
	<g>
		<g>
			<path style="fill:#F7CEBA;" d="M235.387,330.336c0,0-7.905-0.621-10.68,7.486c-0.497,1.453-1.129,2.867-1.749,4.268
				c-1.949,4.404-4.814,8.291-6.895,12.627c-1.303,2.707-2.611,5.408-3.928,8.1c-0.655,1.35-1.317,2.693-1.975,4.033
				c0,0-4.484,8.498-0.911,11.33c2.559,2.029,7.592,0.418,9.407-2.191c1.674-1.879,2.651-4.254,4.122-6.279
				C222.782,369.703,242.314,342.764,235.387,330.336z"/>
			<path style="fill:#F7CEBA;" d="M280.268,330.336c0,0,7.905-0.621,10.68,7.486c0.497,1.453,1.129,2.867,1.749,4.268
				c1.949,4.404,4.814,8.291,6.896,12.627c1.303,2.707,2.611,5.408,3.928,8.1c0.655,1.35,1.317,2.693,1.975,4.033
				c0,0,4.484,8.498,0.911,11.33c-2.559,2.029-7.592,0.418-9.407-2.191c-1.674-1.879-2.651-4.254-4.122-6.279
				C292.872,369.703,273.341,342.764,280.268,330.336z"/>
			<path style="fill:#27AAE1;" d="M278.979,361.066l7.695-30.139c0,0-10.258-5.861-19.692-3.9l-6.725,6.813l-10.438-6.813
				c-9.436-1.961-19.694,3.9-19.694,3.9l7.692,30.139c0,0-0.913,19.242-1.095,24.945c-0.184,5.703-3.531,28.152-3.531,28.152h49.579
				c0,0-2.511-22.449-2.693-28.152C279.895,380.309,278.979,361.066,278.979,361.066z"/>
			<path style="fill:#F7CEBA;" d="M269.653,326.418c-3.086-0.26-2.254-7.858-2.254-7.858h-16.045c0,0,0.83,7.598-2.255,7.858
				c-3.089,0.26,5.452,8.398,10.277,8.398C264.2,334.816,272.739,326.678,269.653,326.418z"/>
			<g>
				<g>
					<path style="fill:#FFDECC;" d="M286.47,294.781c0,14.963-12.126,27.098-27.096,27.098c-14.965,0-27.094-12.135-27.094-27.098
						c0-14.965-1.84-35.526,27.094-35.526C288.314,259.255,286.47,279.816,286.47,294.781z"/>
					<g>
						<path style="fill:#FFDECC;" d="M232.369,288.543c0,0-6.78-3.158-7.013,1.438c-0.235,4.594,1.755,11.432,7.461,12.475
							C238.523,303.498,232.369,288.543,232.369,288.543"/>
						<path style="fill:#FFDECC;" d="M286.346,289.732c0,0,6.776-3.16,7.009,1.436c0.23,4.596-1.75,11.43-7.458,12.473
							C280.19,304.685,286.346,289.732,286.346,289.732"/>
					</g>
				</g>
			</g>
			<g>
				<path style="fill:#F7CEBA;" d="M306.067,372.344c-3.398-2.647-7.517-2.406-10.982-0.236c-4.743,2.969-8.647,7.025-12.781,10.75
					c-1.42,1.281-2.975,2.441-4.328,3.787c-0.902,0.912-1.584,1.443-2.726,1.875c-0.004,0-7.794-2.148-8.781,0.055
					c-0.977,2.211,0.03,3.328,0.03,3.328s-5.64,7.225,1.245,10.355c6.885,3.135,9.738-4.236,11.879-6.035
					c3.826-3.219,8.462-5.225,12.868-7.498c1.159-0.592,2.297-1.215,3.425-1.867c2.939-1.705,5.616-3.637,8.165-5.951
					c1.406-1.277,3.658-3.012,3.707-5.272C307.821,374.228,307.089,373.145,306.067,372.344z"/>
			</g>
			<g>
				<path style="fill:#F7CEBA;" d="M209.587,372.344c3.398-2.647,7.517-2.406,10.982-0.236c4.743,2.969,8.647,7.025,12.781,10.75
					c1.42,1.281,2.975,2.441,4.328,3.787c0.902,0.912,1.584,1.443,2.726,1.875c0.004,0,7.794-2.148,8.781,0.055
					c0.977,2.211-0.03,3.328-0.03,3.328s5.64,7.225-1.245,10.355c-6.885,3.135-9.738-4.236-11.879-6.035
					c-3.826-3.219-8.462-5.225-12.868-7.498c-1.159-0.592-2.297-1.215-3.425-1.867c-2.938-1.705-5.616-3.637-8.165-5.951
					c-1.406-1.277-3.658-3.012-3.707-5.272C207.833,374.228,208.565,373.145,209.587,372.344z"/>
			</g>
			<path style="fill:#713C14;" d="M278.78,258.709c0,0-5.342,12.283,7.895,30.881C286.675,289.59,298.864,264.043,278.78,258.709z"
				/>
			<path style="fill:#713C14;" d="M240.185,258.709c0,0,5.342,12.283-7.895,30.881C232.29,289.59,220.101,264.043,240.185,258.709z"
				/>
			<path style="fill:#713C14;" d="M225.338,262.772c34.779,23.152,58.761,3.803,58.761,3.803
				C266.48,226.711,225.338,262.772,225.338,262.772z"/>
		</g>
		<g>
			<g>
				<g>
					<g>
						<rect x="72.407" y="414.275" style="fill:#B1C7E8;" width="371.42" height="16.949"/>
					</g>
				</g>
			</g>
		</g>
		<g>
			<rect x="204.827" y="352.947" style="fill:#DAE5F9;" width="106" height="61.328"/>
			<path style="fill:#FFFFFF;" d="M268.67,384.58c-4.466,0-8.087-3.621-8.087-8.086c0-1.453,0.389-2.814,1.061-3.994
				c-1.223-0.313-2.496-0.498-3.816-0.498c-8.469,0-15.334,6.865-15.334,15.334c0,8.469,6.865,15.334,15.334,15.334
				c8.469,0,15.334-6.865,15.334-15.334c0-1.32-0.185-2.594-0.498-3.816C271.484,384.191,270.123,384.58,268.67,384.58z"/>
		</g>
		<g>
			<g>
				<rect x="73.202" y="299.047" style="fill:#C6DAF7;" width="127" height="86.518"/>
				<rect x="118.011" y="337.301" style="fill:#DAE5F9;" width="37.382" height="23.498"/>
				<rect x="132.327" y="359.301" style="fill:#B1C7E8;" width="8.75" height="44.014"/>
				<rect x="128.202" y="349.051" style="fill:#DAE5F9;" width="17" height="44.014"/>
				<rect x="115.701" y="399.262" style="fill:#B1C7E8;" width="42.001" height="15.053"/>
			</g>
			<rect x="149.536" y="372.779" style="fill:#DAE5F9;" width="10.832" height="5.334"/>
			<rect x="166.202" y="372.779" style="fill:#DAE5F9;" width="10.833" height="5.334"/>
		</g>
		<g>
			<g>
				<g>
					<path style="fill:#D1E57C;" d="M338.011,408.016c-1.37-3.477-3.416-5.531-3.918-9.35c-0.449-4.574-0.147-9.098-2.072-13.592
						c-1.714-4.348-5.365-7.041-7.85-10.504c7.133,1.695,11.737,8.314,13.616,11.514c3.791,6.58,3.763,13.66,1.652,20.557"/>
				</g>
				<g>
					<path style="fill:#D1E57C;" d="M342.782,408.016c1.37-3.477,3.416-5.531,3.918-9.35c0.449-4.574,0.147-9.098,2.072-13.592
						c1.714-4.348,5.365-7.041,7.85-10.504c-7.133,1.695-11.737,8.314-13.616,11.514c-3.791,6.58-3.763,13.66-1.652,20.557"/>
				</g>
				<g>
					<path style="fill:#A2C037;" d="M338.674,407.455c-1-5-3.25-8.25-3-13.5c0.5-6.25,2-12.25,0.5-18.75c-1.25-6.25-5.5-10.75-8-16
						c9.167,4,13.75,14,15.5,18.75c3.5,9.75,1.75,19.25-2.75,28"/>
				</g>
			</g>
			<g>
				<polygon style="fill:#B1C7E8;" points="350.622,414.315 331.289,414.315 325.289,396.822 356.622,396.822 				"/>
				<rect x="322.706" y="391.947" style="fill:#DAE5F9;" width="36.499" height="9.75"/>
			</g>
		</g>
		<g>
			<rect x="374.66" y="399.279" style="fill:#B1C7E8;" width="28.5" height="15.035"/>
			<g>
				<path style="fill:#B1C7E8;" d="M386.328,407.568c-0.197,0-0.397-0.029-0.595-0.09c-1.055-0.328-1.645-1.449-1.316-2.504
					l16.223-52.158l-29.484-8.277c-1.064-0.299-1.683-1.402-1.385-2.467c0.298-1.063,1.395-1.682,2.467-1.385l31.464,8.834
					c0.52,0.146,0.958,0.496,1.216,0.971c0.259,0.475,0.314,1.033,0.153,1.549l-16.833,54.121
					C387.971,407.02,387.181,407.568,386.328,407.568z"/>
			</g>
			<path style="fill:#DAE5F9;" d="M376.169,340.785c-6.438-8.285-20.072-8.465-30.453-0.398l23.314,30.008
				C379.411,362.328,382.607,349.072,376.169,340.785z"/>
			<path style="fill:#DAE5F9;" d="M409.109,352.424c0,3.746-3.036,6.781-6.782,6.781c-3.746,0-6.782-3.035-6.782-6.781
				s3.036-6.783,6.782-6.783C406.073,345.641,409.109,348.678,409.109,352.424z"/>
		</g>
	</g>
	<g>
		<g>
			<path style="fill:#B1C7E8;" d="M282.844,95.043c0,7.299-5.917,13.217-13.216,13.217h-50.523c-7.299,0-13.216-5.918-13.216-13.217
				V74.807c0-7.299,5.917-13.217,13.216-13.217h50.523c7.299,0,13.216,5.918,13.216,13.217V95.043z"/>
			<polyline style="fill:#B1C7E8;" points="211.55,94.217 202.142,112.803 228.689,101.445 			"/>
		</g>
		<g>
			<rect x="228.689" y="71.303" style="fill:#FFFFFF;" width="44.092" height="2.504"/>
			<rect x="215.951" y="78.928" style="fill:#FFFFFF;" width="56.83" height="2.504"/>
			<rect x="215.951" y="86.553" style="fill:#FFFFFF;" width="56.83" height="2.504"/>
		</g>
	</g>
	<g>
		<rect x="353.609" y="114.105" style="fill:#E7B142;" width="32.174" height="19.751"/>
		<polygon style="fill:#EFBF6C;" points="353.609,114.105 369.696,123.98 385.783,114.105 		"/>
	</g>
	<g>
		<rect x="53.775" y="82.867" style="fill:#E7B142;" width="32.174" height="19.75"/>
		<polygon style="fill:#EFBF6C;" points="53.775,82.867 69.862,92.742 85.949,82.867 		"/>
	</g>
	<g>
		<g>
			<path style="fill:#DAE5F9;" d="M364.267,88.949V63.587c-0.169-0.017-0.333-0.045-0.507-0.045h-43.233v25.453h43.233
				C363.934,88.995,364.098,88.967,364.267,88.949z"/>
		</g>
		<polygon style="fill:#465770;" points="339.077,69.476 339.077,82.091 347.517,75.782 		"/>
	</g>
	<g>
		<g>
			<path style="fill:#DAE5F9;" d="M84.845,274.103v-25.361c-0.169-0.018-0.333-0.046-0.507-0.046H41.104v25.454h43.233
				C84.512,274.149,84.676,274.12,84.845,274.103z"/>
		</g>
		<polygon style="fill:#465770;" points="59.655,254.629 59.655,267.245 68.095,260.936 		"/>
	</g>
	<g>
		<path style="fill:#DAE5F9;" d="M432.603,96.068V91.58l-5.201-1.619c-0.242-0.733-0.54-1.441-0.902-2.109l2.548-4.854l-3.174-3.174
			l-4.965,2.605c-0.625-0.315-1.272-0.592-1.949-0.805l-1.669-5.356h-4.488l-1.669,5.356c-0.678,0.213-1.325,0.489-1.949,0.805
			l-4.965-2.605l-3.175,3.174l2.549,4.854c-0.362,0.669-0.66,1.376-0.902,2.109l-5.201,1.619v4.488l5.056,1.576
			c0.237,0.823,0.553,1.613,0.94,2.36l-2.44,4.647l3.174,3.174l4.545-2.387c0.792,0.438,1.635,0.795,2.518,1.061l1.521,4.881h4.488
			l1.521-4.881c0.883-0.266,1.726-0.622,2.517-1.06l4.546,2.386l3.174-3.174l-2.44-4.646c0.387-0.748,0.702-1.537,0.94-2.361
			L432.603,96.068z M421.395,94.041c0,3.506-2.842,6.348-6.348,6.348c-3.506,0-6.348-2.842-6.348-6.348
			c0-3.506,2.842-6.348,6.348-6.348C418.553,87.693,421.395,90.535,421.395,94.041z"/>
		<path style="fill:#ECECEC;" d="M456.884,88.827v-3.338l-3.868-1.204c-0.18-0.546-0.401-1.072-0.671-1.569l1.895-3.609l-2.36-2.36
			l-3.692,1.938c-0.465-0.234-0.945-0.439-1.449-0.599l-1.241-3.983h-3.338l-1.241,3.983c-0.504,0.159-0.985,0.364-1.449,0.599
			l-3.692-1.938l-2.361,2.36l1.896,3.61c-0.27,0.496-0.491,1.023-0.671,1.568l-3.868,1.204v3.338l3.76,1.171
			c0.177,0.613,0.411,1.2,0.699,1.756l-1.814,3.457l2.36,2.359l3.38-1.773c0.589,0.325,1.216,0.59,1.872,0.788l1.131,3.63h3.338
			l1.131-3.63c0.656-0.198,1.283-0.463,1.871-0.788l3.381,1.773l2.36-2.359l-1.813-3.456c0.287-0.556,0.521-1.144,0.698-1.757
			L456.884,88.827z M448.548,87.319c0,2.608-2.113,4.721-4.721,4.721c-2.607,0-4.721-2.113-4.721-4.721
			c0-2.607,2.113-4.721,4.721-4.721C446.435,82.599,448.548,84.712,448.548,87.319z"/>
	</g>
	<g>
		<path style="fill:#DAE5F9;" d="M149.864,274.43v-4.488l-5.201-1.621c-0.242-0.732-0.539-1.439-0.902-2.109l2.549-4.854
			l-3.174-3.174l-4.965,2.606c-0.625-0.315-1.271-0.593-1.949-0.806l-1.67-5.355h-4.488l-1.668,5.355
			c-0.678,0.213-1.326,0.49-1.949,0.806l-4.965-2.606l-3.176,3.174l2.549,4.855c-0.361,0.668-0.66,1.375-0.902,2.107l-5.201,1.621
			v4.488l5.057,1.574c0.236,0.824,0.553,1.613,0.939,2.361l-2.439,4.646l3.174,3.174l4.545-2.385
			c0.791,0.438,1.635,0.793,2.517,1.06l1.52,4.881h4.488l1.521-4.881c0.883-0.267,1.725-0.623,2.516-1.06l4.547,2.385l3.174-3.174
			l-2.439-4.646c0.387-0.748,0.701-1.537,0.939-2.361L149.864,274.43z M138.655,272.402c0,3.506-2.842,6.348-6.348,6.348
			c-3.506,0-6.348-2.842-6.348-6.348c0-3.508,2.842-6.35,6.348-6.35C135.813,266.053,138.655,268.895,138.655,272.402z"/>
		<path style="fill:#ECECEC;" d="M174.145,267.188v-3.338l-3.869-1.205c-0.18-0.545-0.4-1.07-0.67-1.568l1.895-3.609l-2.361-2.361
			l-3.691,1.938c-0.465-0.235-0.945-0.44-1.449-0.599l-1.242-3.983h-3.338l-1.24,3.983c-0.504,0.158-0.986,0.363-1.449,0.599
			l-3.693-1.938l-2.361,2.361l1.896,3.609c-0.27,0.498-0.492,1.023-0.672,1.568l-3.867,1.205v3.338l3.76,1.172
			c0.176,0.611,0.41,1.199,0.699,1.756l-1.814,3.455l2.359,2.361l3.381-1.775c0.588,0.326,1.215,0.592,1.871,0.789l1.131,3.629
			h3.338l1.131-3.629c0.656-0.197,1.283-0.463,1.871-0.789l3.381,1.775l2.361-2.361l-1.815-3.455
			c0.287-0.557,0.521-1.143,0.699-1.756L174.145,267.188z M165.81,265.68c0,2.607-2.113,4.721-4.721,4.721
			c-2.607,0-4.721-2.113-4.721-4.721c0-2.607,2.113-4.721,4.721-4.721C163.696,260.959,165.81,263.072,165.81,265.68z"/>
	</g>
	<g>
		<path style="fill:#DAE5F9;" d="M276.025,207.911c0,14.371-11.648,26.023-26.025,26.023c-14.371,0-26.025-11.652-26.025-26.023
			c0-14.375,11.654-26.025,26.025-26.025C264.377,181.885,276.025,193.536,276.025,207.911z"/>
		<path style="fill:#FFFFFF;" d="M237.684,220.782h24.84c0-4.281-2.168-8.057-5.463-10.287c2.15-1.92,3.514-4.701,3.514-7.811
			c0-5.782-4.691-10.468-10.471-10.468c-5.781,0-10.467,4.686-10.467,10.468c0,3.11,1.357,5.892,3.512,7.811
			C239.848,212.725,237.684,216.501,237.684,220.782z"/>
	</g>
	<g>
		<g>
			
				<ellipse transform="matrix(0.9999 -0.0131 0.0131 0.9999 -2.1903 1.905)" style="fill:#ECECEC;" cx="144.448" cy="168.294" rx="74.586" ry="74.585"/>
			<g>
				<defs>
					
						<ellipse id="SVGID_1_" transform="matrix(0.9999 -0.0131 0.0131 0.9999 -2.1903 1.905)" cx="144.448" cy="168.294" rx="74.586" ry="74.585"/>
				</defs>
				<clipPath id="SVGID_00000104703346017196031390000014364868940900429980_">
					<use xlink:href="#SVGID_1_"  style="overflow:visible;"/>
				</clipPath>
				<g style="clip-path:url(#SVGID_00000104703346017196031390000014364868940900429980_);">
					<g>
						<circle style="fill:#B1C7E8;" cx="178.717" cy="149.566" r="29.699"/>
						<path style="fill:#FFFFFF;" d="M202.207,149.566c0,12.974-10.517,23.491-23.49,23.491s-23.49-10.518-23.49-23.491
							c0-12.973,10.517-23.49,23.49-23.49S202.207,136.594,202.207,149.566z"/>
						<path style="fill:#27AAE1;" d="M189.311,149.566c0,5.852-4.743,10.596-10.595,10.596c-5.852,0-10.595-4.744-10.595-10.596
							c0-5.852,4.743-10.595,10.595-10.595C184.568,138.972,189.311,143.715,189.311,149.566z"/>
						<circle style="fill:#DAE5F9;" cx="178.717" cy="149.566" r="5.488"/>
						<path style="fill:#DAE5F9;" d="M180.732,149.867c0,1.113-0.902,2.016-2.016,2.016l0,0c-1.113,0-2.016-0.902-2.016-2.016
							v-15.703c0-1.113,0.902-2.016,2.016-2.016l0,0c1.113,0,2.016,0.902,2.016,2.016V149.867z"/>
						<path style="fill:#DAE5F9;" d="M178.319,151.582c-1.114,0-2.016-0.902-2.016-2.016l0,0c0-1.113,0.901-2.016,2.016-2.016
							h12.332c1.113,0,2.016,0.902,2.016,2.016l0,0c0,1.113-0.902,2.016-2.016,2.016H178.319z"/>
					</g>
					<rect x="83.145" y="138.018" style="fill:#E7B142;" width="18.469" height="23.098"/>
					<rect x="83.145" y="166.12" style="fill:#27AAE1;" width="18.469" height="23.098"/>
					<g>
						<path style="fill:#6E3C3D;" d="M113.148,138.538c0,18.048-1.679,59.382,31.329,60.341c28.877,0.833,30.52-45.051,30.52-63.096
							s-15.184-29.915-31.787-29.915C126.608,105.868,113.148,120.496,113.148,138.538z"/>
						<g>
							<path style="fill:#F6F6F6;" d="M163.364,204.594l7.355-28.806c0,0-9.805-5.601-18.82-3.728l-6.428,6.512l-9.977-6.512
								c-9.018-1.873-18.822,3.728-18.822,3.728l7.352,28.806c0,0-0.871,18.391-1.045,23.842c-0.176,5.45-3.375,26.906-3.375,26.906
								h47.385c0,0-2.4-21.456-2.574-26.906C164.239,222.984,163.364,204.594,163.364,204.594z"/>
							<path style="fill:#EB6E8C;" d="M121.368,242.879c0.324-2.407,0.643-4.875,0.912-7.125h42.685
								c0.206,2.25,0.449,4.718,0.694,7.125H121.368z M119.919,188.504l1.818,7.125h43.916l1.819-7.125H119.919z M145.472,178.572
								l-8.913-5.818H124.26c-4.404,1.219-7.587,3.034-7.587,3.034l1.045,4.091h51.957l1.045-4.091c0,0-3.183-1.815-7.586-3.034
								h-11.92L145.472,178.572z M123.319,220.004c-0.119,2.736-0.227,5.291-0.295,7.125h41.344
								c-0.068-1.834-0.176-4.389-0.296-7.125H123.319z M163.451,204.254h-39.513l0.086,0.34c0,0-0.139,2.926-0.316,6.785h39.975
								c-0.179-3.859-0.318-6.785-0.318-6.785L163.451,204.254z"/>
							<path style="fill:#F7CEBA;" d="M154.452,171.477c-2.949-0.248-2.154-7.509-2.154-7.509h-15.336c0,0,0.793,7.261-2.154,7.509
								c-2.953,0.249-4.357,18.163,9.164,18.163C157.494,189.641,157.401,171.727,154.452,171.477z"/>
							<path style="fill:#F6F6F6;" d="M191.677,214.741c-0.15-0.476-4.898-11.202-4.898-11.202s-6.814-13.486-9.742-19.224
								c-2.93-5.741-6.316-8.527-6.316-8.527l-4.623,18.109c-0.096,3.872,11.582,21.284,11.582,21.284
								c-4.154,2.887-12.377,9.761-12.377,9.761l5.055,15.245c0,0,15.645-14.438,19.064-17.299
								C192.843,220.027,192.282,216.652,191.677,214.741z"/>
							<path style="fill:#F6F6F6;" d="M109.739,215.182c0,0,11.768-16.96,11.67-20.832l-4.709-18.561c0,0-3.387,2.786-6.318,8.527
								c-2.928,5.737-9.74,19.224-9.74,19.224s-4.748,10.727-4.9,11.202c-0.605,1.911-1.166,5.286,2.256,8.148
								c3.42,2.861,19.066,17.299,19.066,17.299l5.055-15.245C122.118,224.942,113.894,218.068,109.739,215.182z"/>
							<g>
								<g>
									<path style="fill:#FFDECC;" d="M168.429,135.848c0,0,8.791,30.234-23.445,30.387c0,0-19.744,0.156-25.756-15.73
										l-0.619-22.985l27.824-4.244l21.684,0.079L168.429,135.848z"/>
								</g>
							</g>
							<g>
								<g>
									<g>
										<path style="fill:#FFDECC;" d="M118.976,141.174c0,0-6.48-3.018-6.703,1.373c-0.225,4.391,1.678,10.926,7.131,11.922
											C124.856,155.467,118.976,141.174,118.976,141.174"/>
										<path style="fill:#FFDECC;" d="M168.735,141.176c0,0,6.477-3.02,6.699,1.372c0.219,4.392-1.674,10.925-7.129,11.921
											C162.852,155.467,168.735,141.176,168.735,141.176"/>
									</g>
								</g>
							</g>
						</g>
						<path style="fill:#6E3C3D;" d="M157.819,116.402c0,0,3.857,25.086-39.238,25.676l-1.628-17.863l25.362-15.854L157.819,116.402
							z"/>
						<path style="fill:#6E3C3D;" d="M142.132,119.004c0,0-1.994,19.358,28.458,22.188l1.321-16.896l-16.223-8.284L142.132,119.004z
							"/>
					</g>
					<g>
						<rect x="92.38" y="204.254" style="fill:#B1C7E8;" width="104.137" height="51.088"/>
						<rect x="138.315" y="201.004" style="fill:#DAE5F9;" width="10.762" height="6.5"/>
						<path style="fill:#DAE5F9;" d="M148.905,196.682c0,2.877-2.332,5.209-5.209,5.209c-2.877,0-5.209-2.332-5.209-5.209
							c0-2.876,2.332-5.208,5.209-5.208C146.573,191.474,148.905,193.806,148.905,196.682z"/>
					</g>
				</g>
			</g>
		</g>
	</g>
	<g>
		<g>
			
				<ellipse transform="matrix(0.9999 -0.0132 0.0132 0.9999 -2.9487 5.0625)" style="fill:#ECECEC;" cx="383.357" cy="226.679" rx="74.586" ry="74.585"/>
			<g>
				<defs>
					
						<ellipse id="SVGID_00000169557914953560681480000003274326712698810550_" transform="matrix(0.9999 -0.0132 0.0132 0.9999 -2.9487 5.0625)" cx="383.357" cy="226.679" rx="74.586" ry="74.585"/>
				</defs>
				<clipPath id="SVGID_00000008836259456401861540000015082857295490927287_">
					<use xlink:href="#SVGID_00000169557914953560681480000003274326712698810550_"  style="overflow:visible;"/>
				</clipPath>
				<g style="clip-path:url(#SVGID_00000008836259456401861540000015082857295490927287_);">
					<rect x="410.619" y="197.518" style="fill:#E7B142;" width="18.469" height="23.098"/>
					<rect x="410.619" y="225.619" style="fill:#D1E57C;" width="18.469" height="23.098"/>
					<g>
						<rect x="307.31" y="191.27" style="fill:#B1B1B0;" width="69.013" height="90.92"/>
						<rect x="313.683" y="200.578" style="fill:#FFFFFF;" width="56.269" height="74.09"/>
						<rect x="324.674" y="196.429" style="fill:#27AAE1;" width="34.287" height="8.3"/>
					</g>
					<g>
						<g>
							<path style="fill:#F7CEBA;" d="M404.496,235.588c0,0,7.555-0.596,10.207,7.154c0.475,1.389,1.079,2.74,1.672,4.078
								c1.862,4.209,4.601,7.924,6.59,12.068c1.245,2.586,2.496,5.17,3.754,7.742c0.626,1.288,1.259,2.572,1.888,3.854
								c0,0,4.285,8.123,0.87,10.83c-2.445,1.939-7.256,0.398-8.99-2.096c-1.601-1.795-2.534-4.065-3.94-6.001
								C416.543,273.212,397.876,247.465,404.496,235.588z"/>
							<path style="fill:#F6F6F6;" d="M403.265,264.957l7.355-28.805c0,0-9.804-5.602-18.82-3.729l-6.428,6.512l-9.976-6.512
								c-9.018-1.873-18.822,3.729-18.822,3.729l7.352,28.805c0,0-0.872,18.391-1.046,23.842
								c-0.176,5.451-3.375,26.906-3.375,26.906h47.385c0,0-2.399-21.455-2.574-26.906
								C404.14,283.348,403.265,264.957,403.265,264.957z"/>
							<path style="fill:#F7CEBA;" d="M394.352,231.842c-2.949-0.248-2.154-7.51-2.154-7.51h-15.335c0,0,0.793,7.262-2.155,7.51
								c-2.952,0.248,9.165,18.162,9.165,18.162S397.301,232.09,394.352,231.842z"/>
							<g>
								<path style="fill:#F7CEBA;" d="M429.154,275.736c-3.248-2.531-7.185-2.301-10.497-0.227
									c-4.533,2.838-8.265,6.715-12.216,10.273c-1.356,1.225-2.843,2.334-4.136,3.621c-0.863,0.871-1.515,1.379-2.605,1.791
									c-0.004,0-7.449-2.053-8.393,0.053c-0.934,2.113,0.029,3.182,0.029,3.182s-5.391,6.904,1.189,9.897
									c6.58,2.996,9.308-4.049,11.354-5.768c3.657-3.076,8.087-4.994,12.299-7.166c1.107-0.566,2.195-1.162,3.273-1.785
									c2.808-1.631,5.367-3.477,7.804-5.688c1.344-1.221,3.496-2.879,3.543-5.039C430.83,277.537,430.13,276.502,429.154,275.736z
									"/>
								<path style="fill:#F6F6F6;" d="M431.577,275.105c-0.151-0.477-4.899-11.203-4.899-11.203s-6.813-13.485-9.741-19.223
									c-2.931-5.742-6.317-8.527-6.317-8.527l-4.623,18.109c-0.096,3.872,11.582,21.283,11.582,21.283
									c-4.153,2.887-12.377,9.762-12.377,9.762l5.055,15.244c0,0,15.646-14.436,19.065-17.297
									C432.743,280.393,432.183,277.018,431.577,275.105z"/>
							</g>
							<g>
								<path style="fill:#F7CEBA;" d="M338.065,275.736c3.247-2.531,7.183-2.301,10.497-0.227
									c4.532,2.838,8.265,6.715,12.214,10.273c1.358,1.225,2.844,2.334,4.138,3.621c0.862,0.871,1.515,1.379,2.605,1.791
									c0.003,0,7.448-2.053,8.394,0.053c0.934,2.113-0.03,3.182-0.03,3.182s5.391,6.904-1.189,9.897
									c-6.579,2.996-9.307-4.049-11.353-5.768c-3.659-3.076-8.089-4.994-12.3-7.166c-1.108-0.566-2.195-1.162-3.272-1.785
									c-2.809-1.631-5.368-3.477-7.805-5.688c-1.344-1.221-3.496-2.879-3.543-5.039
									C336.389,277.537,337.089,276.502,338.065,275.736z"/>
								<path style="fill:#F6F6F6;" d="M349.64,275.545c0,0,11.768-16.959,11.67-20.832l-4.71-18.561c0,0-3.387,2.785-6.317,8.527
									c-2.929,5.737-9.74,19.223-9.74,19.223s-4.749,10.727-4.9,11.203c-0.606,1.912-1.167,5.287,2.255,8.148
									c3.42,2.861,19.066,17.297,19.066,17.297l5.056-15.244C362.019,285.307,353.794,278.432,349.64,275.545z"/>
							</g>
						</g>
						<g>
							<path style="fill:#404672;" d="M354.497,198.558c0.003,17.622,12.495,24.535,30.458,24.538
								c17.963,0.003,29.667-9.601,29.664-27.217c-0.003-17.621-14.767-29.214-30.906-29.217
								C367.574,166.659,354.494,180.941,354.497,198.558z"/>
							<g>
								<g>
									<path style="fill:#FFDECC;" d="M408.328,196.211c0,0,8.791,30.235-23.445,30.388c0,0-19.743,0.156-25.755-15.731
										l-0.619-22.984l27.823-4.244l21.685,0.079L408.328,196.211z"/>
								</g>
							</g>
						</g>
						<g>
							<g>
								<g>
									<path style="fill:#FFDECC;" d="M358.876,201.537c0,0-6.48-3.018-6.703,1.373c-0.225,4.392,1.678,10.926,7.131,11.923
										C364.757,215.83,358.876,201.537,358.876,201.537"/>
									<path style="fill:#FFDECC;" d="M408.635,201.539c0,0,6.477-3.02,6.699,1.373c0.22,4.391-1.673,10.924-7.128,11.92
										C402.752,215.83,408.635,201.539,408.635,201.539"/>
								</g>
							</g>
						</g>
						<path style="fill:#404672;" d="M379.295,180.356c0,0,27.465,9.214,24.378,44.921c0,0,27.722-42.373-10.041-50.336"/>
						<path style="fill:#404672;" d="M389.261,180.356c0,0-27.465,9.214-24.377,44.921c0,0-27.723-42.373,10.041-50.336"/>
						<path style="fill:#404672;" d="M398.3,186.932c0,0-16.325-2.729-24.354,16.109c0,0-2.605-28.813,18.579-22.689"/>
						<path style="fill:#404672;" d="M383.966,166.705c0,0-6.338-3.272-18.688,3.139c-15.65,8.123-12.13,31.102-12.13,31.102"/>
						<path style="fill:#404672;" d="M383.872,166.705c0,0,6.339-3.272,18.688,3.139c15.65,8.123,12.13,31.102,12.13,31.102"/>
						<path style="fill:#F7CEBA;" d="M393.966,231.764"/>
						<path style="fill:#89D3CA;" d="M393.966,231.287l-10.094,18.717l21.329-16.213
							C405.201,233.791,400.697,229.455,393.966,231.287z"/>
						<path style="fill:#89D3CA;" d="M373.966,231.287l9.906,18.717l-21.142-16.213C362.73,233.791,367.234,229.455,373.966,231.287
							z"/>
						<path style="fill:#89D3CA;" d="M416.936,244.68c-2.931-5.742-6.317-8.527-6.317-8.527l-4.623,18.109l11.311-8.854
							C417.179,245.154,417.053,244.908,416.936,244.68z"/>
						<path style="fill:#89D3CA;" d="M349.936,245.356l11.359,9.591c0.006-0.078,0.016-0.163,0.014-0.234l-4.71-18.561
							c0,0-3.387,2.785-6.317,8.527C350.173,244.894,350.057,245.121,349.936,245.356z"/>
					</g>
					<rect x="332.556" y="268.352" style="fill:#DAE5F9;" width="102.081" height="47.354"/>
				</g>
			</g>
		</g>
	</g>
	<g>
		<g>
			<path style="fill:#D1E57C;" d="M264.324,155.483c0,7.299,5.917,13.216,13.216,13.216h50.523c7.299,0,13.216-5.917,13.216-13.216
				v-20.237c0-7.299-5.917-13.216-13.216-13.216H277.54c-7.299,0-13.216,5.917-13.216,13.216V155.483z"/>
			<polyline style="fill:#D1E57C;" points="335.618,154.657 345.026,173.242 318.478,161.884 			"/>
		</g>
		<g>
			<rect x="274.387" y="131.742" style="fill:#FFFFFF;" width="44.092" height="2.504"/>
			<rect x="274.387" y="139.367" style="fill:#FFFFFF;" width="56.83" height="2.504"/>
			<rect x="274.387" y="146.992" style="fill:#FFFFFF;" width="56.83" height="2.504"/>
		</g>
	</g>
</g>
</svg>
