<?xml version="1.0" encoding="utf-8"?>
<!-- Generator: Adobe Illustrator 27.5.0, SVG Export Plug-In . SVG Version: 6.00 Build 0)  -->
<svg version="1.1" xmlns="http://www.w3.org/2000/svg" xmlns:xlink="http://www.w3.org/1999/xlink" x="0px" y="0px"
	 viewBox="0 0 500 500" style="enable-background:new 0 0 500 500;" xml:space="preserve">
<g id="Background_Complete">
	<g>
		<rect y="382.398" style="fill:#EBEBEB;" width="500" height="0.25"/>
		<rect x="416.779" y="398.494" style="fill:#EBEBEB;" width="33.122" height="0.25"/>
		<rect x="322.527" y="401.208" style="fill:#EBEBEB;" width="8.693" height="0.25"/>
		<rect x="396.586" y="389.208" style="fill:#EBEBEB;" width="19.192" height="0.25"/>
		<rect x="52.459" y="390.888" style="fill:#EBEBEB;" width="43.193" height="0.25"/>
		<rect x="104.556" y="390.888" style="fill:#EBEBEB;" width="6.333" height="0.25"/>
		<rect x="131.471" y="395.111" style="fill:#EBEBEB;" width="93.676" height="0.25"/>
		<path style="fill:#EBEBEB;" d="M237.014,337.8H43.915c-3.147,0-5.708-2.561-5.708-5.708V60.66c0-3.147,2.561-5.708,5.708-5.708
			h193.099c3.146,0,5.707,2.561,5.707,5.708v271.432C242.721,335.239,240.16,337.8,237.014,337.8z M43.915,55.203
			c-3.01,0-5.458,2.448-5.458,5.458v271.432c0,3.01,2.448,5.458,5.458,5.458h193.099c3.009,0,5.457-2.448,5.457-5.458V60.66
			c0-3.009-2.448-5.458-5.457-5.458H43.915z"/>
		<path style="fill:#EBEBEB;" d="M453.31,337.8H260.212c-3.147,0-5.707-2.561-5.707-5.708V60.66c0-3.147,2.561-5.708,5.707-5.708
			H453.31c3.148,0,5.708,2.561,5.708,5.708v271.432C459.019,335.239,456.458,337.8,453.31,337.8z M260.212,55.203
			c-3.009,0-5.457,2.448-5.457,5.458v271.432c0,3.01,2.448,5.458,5.457,5.458H453.31c3.01,0,5.458-2.448,5.458-5.458V60.66
			c0-3.009-2.448-5.458-5.458-5.458H260.212z"/>
	</g>
	<g>
		<g>
			
				<ellipse transform="matrix(0.2298 -0.9732 0.9732 0.2298 59.0751 609.4856)" style="fill:#EBEBEB;" cx="414.596" cy="267.421" rx="18.558" ry="18.558"/>
			<g>
				<circle style="fill:#E0E0E0;enable-background:new    ;" cx="414.597" cy="267.421" r="15.762"/>
				<path style="fill:#E0E0E0;enable-background:new    ;" d="M425.946,256.482c-2.829-2.696-6.66-4.348-10.876-4.348
					c-8.702,0-15.761,7.054-15.761,15.761c0,4.215,1.657,8.047,4.353,10.876c-2.977-2.867-4.828-6.893-4.828-11.351
					c0-8.707,7.059-15.761,15.761-15.761C419.053,251.659,423.078,253.51,425.946,256.482z"/>
			</g>
			<g>
				<path style="fill:#E0E0E0;enable-background:new    ;" d="M414.596,248.863c-10.249,0-18.557,8.308-18.557,18.557
					c0,10.249,8.308,18.557,18.557,18.557c10.249,0,18.557-8.308,18.557-18.557C433.154,257.171,424.846,248.863,414.596,248.863z
					 M414.596,284.966c-9.689,0-17.541-7.857-17.541-17.546c0-9.689,7.852-17.541,17.541-17.541c9.689,0,17.541,7.852,17.541,17.541
					C432.138,277.11,424.285,284.966,414.596,284.966z"/>
				<path style="fill:#E0E0E0;enable-background:new    ;" d="M429.772,256.738c0.218,0.892,0.375,1.813,0.475,2.749
					c1.21,2.378,1.889,5.075,1.889,7.933c0,9.689-7.852,17.546-17.541,17.546c-3.014,0-5.853-0.76-8.331-2.103
					c-0.926-0.119-1.837-0.299-2.72-0.536c3.086,2.293,6.907,3.651,11.052,3.651c10.249,0,18.557-8.308,18.557-18.557
					C433.152,263.446,431.903,259.758,429.772,256.738z"/>
			</g>
			<g>
				<path style="fill:#EBEBEB;" d="M423.69,266.743l-0.478,1.355h2.928v1.394h-3.406l-1.693,4.901h-2.769l-1.733-4.901h-3.865
					l-1.753,4.901h-2.769l-1.693-4.901h-3.406v-1.394h2.928l-0.458-1.355h-2.47v-1.395h1.992l-1.693-4.9h2.669l1.673,4.9h4.004
					l1.733-4.9h2.47l1.693,4.9h4.004l1.713-4.9h2.55l-1.693,4.9h1.972v1.395H423.69z M408.65,268.098h2.072l0.478-1.355h-3.028
					L408.65,268.098z M410.224,269.492h-1.096l0.538,1.574L410.224,269.492z M416.04,268.098l-0.478-1.355h-1.912l-0.478,1.355
					H416.04z M414.148,265.349h0.916l-0.458-1.295L414.148,265.349z M421.12,266.743h-3.048l0.478,1.355h2.092L421.12,266.743z
					 M420.144,269.492h-1.115l0.558,1.614L420.144,269.492z"/>
			</g>
		</g>
		<g>
			<circle style="fill:#EBEBEB;" cx="109.56" cy="317.868" r="18.558"/>
			<g>
				<circle style="fill:#E0E0E0;enable-background:new    ;" cx="109.561" cy="317.868" r="15.762"/>
				<path style="fill:#E0E0E0;enable-background:new    ;" d="M120.91,306.929c-2.829-2.696-6.66-4.349-10.876-4.349
					c-8.702,0-15.761,7.055-15.761,15.761c0,4.216,1.657,8.047,4.353,10.876c-2.977-2.867-4.828-6.893-4.828-11.351
					c0-8.706,7.059-15.761,15.761-15.761C114.017,302.106,118.042,303.957,120.91,306.929z"/>
			</g>
			<g>
				<path style="fill:#E0E0E0;enable-background:new    ;" d="M109.56,299.311c-10.249,0-18.557,8.308-18.557,18.557
					s8.308,18.557,18.557,18.557s18.557-8.308,18.557-18.557S119.81,299.311,109.56,299.311z M109.56,335.414
					c-9.689,0-17.541-7.857-17.541-17.546c0-9.689,7.852-17.541,17.541-17.541s17.541,7.852,17.541,17.541
					C127.101,327.557,119.249,335.414,109.56,335.414z"/>
				<path style="fill:#E0E0E0;enable-background:new    ;" d="M124.735,307.185c0.218,0.893,0.375,1.813,0.475,2.749
					c1.21,2.378,1.889,5.075,1.889,7.933c0,9.689-7.852,17.546-17.541,17.546c-3.014,0-5.853-0.759-8.331-2.103
					c-0.926-0.119-1.837-0.299-2.72-0.536c3.086,2.293,6.907,3.651,11.051,3.651c10.249,0,18.557-8.308,18.557-18.557
					C128.115,313.893,126.867,310.205,124.735,307.185z"/>
			</g>
			<g>
				<path style="fill:#EBEBEB;" d="M116.184,315.756v1.375h-13.247v-1.375h8.705c0.458-0.259,0.757-0.578,0.757-1.016
					c0-1.056-0.877-1.892-3.008-1.892c-1.275,0-2.649,0.279-3.964,0.896l-0.597-2.032c1.374-0.677,2.988-1.036,4.482-1.036
					c3.566,0,5.657,1.713,5.657,4.183c0,0.339-0.04,0.637-0.119,0.896H116.184z M102.937,318.505h13.247v1.375h-8.526
					c-0.578,0.299-0.956,0.657-0.956,1.195c0,1.036,0.897,1.813,3.068,1.813c1.773,0,3.585-0.538,4.701-1.315l0.717,2.012
					c-1.534,0.917-3.486,1.474-5.358,1.474c-3.626,0-5.697-1.673-5.697-4.164c0-0.398,0.08-0.717,0.199-1.016h-1.395V318.505z"/>
			</g>
		</g>
		<g>
			
				<ellipse transform="matrix(0.2298 -0.9732 0.9732 0.2298 -90.7663 217.4855)" style="fill:#EBEBEB;" cx="92.019" cy="166.087" rx="18.558" ry="18.558"/>
			<g>
				<circle style="fill:#E0E0E0;enable-background:new    ;" cx="92.02" cy="166.087" r="15.762"/>
				<path style="fill:#E0E0E0;enable-background:new    ;" d="M103.368,155.148c-2.829-2.696-6.66-4.348-10.876-4.348
					c-8.702,0-15.761,7.054-15.761,15.761c0,4.215,1.657,8.047,4.353,10.876c-2.977-2.867-4.828-6.893-4.828-11.351
					c0-8.706,7.059-15.761,15.761-15.761C96.475,150.325,100.501,152.176,103.368,155.148z"/>
			</g>
			<g>
				<path style="fill:#E0E0E0;enable-background:new    ;" d="M92.019,147.53c-10.249,0-18.557,8.308-18.557,18.557
					c0,10.249,8.308,18.557,18.557,18.557c10.249,0,18.557-8.308,18.557-18.557C110.576,155.837,102.269,147.53,92.019,147.53z
					 M92.019,183.633c-9.689,0-17.541-7.857-17.541-17.546c0-9.689,7.852-17.541,17.541-17.541s17.541,7.852,17.541,17.541
					C109.56,175.776,101.708,183.633,92.019,183.633z"/>
				<path style="fill:#E0E0E0;enable-background:new    ;" d="M107.194,155.405c0.218,0.893,0.375,1.813,0.475,2.749
					c1.211,2.378,1.889,5.075,1.889,7.933c0,9.689-7.852,17.546-17.541,17.546c-3.014,0-5.853-0.76-8.331-2.103
					c-0.926-0.119-1.837-0.299-2.72-0.536c3.086,2.293,6.907,3.651,11.051,3.651c10.249,0,18.557-8.308,18.557-18.557
					C110.574,162.113,109.326,158.424,107.194,155.405z"/>
			</g>
			<g>
				<path style="fill:#EBEBEB;" d="M90.515,161.286v4.243h6.733v2.191h-6.733v1.872h4.382v1.394h-4.382v2.072h-2.59v-2.072h-1.992
					v-1.394h1.992v-10.478h10.179v2.171H90.515z"/>
			</g>
		</g>
		<g>
			<circle style="fill:#EBEBEB;" cx="285.717" cy="167.443" r="18.558"/>
			<g>
				<circle style="fill:#E0E0E0;enable-background:new    ;" cx="285.717" cy="167.443" r="15.762"/>
				<path style="fill:#E0E0E0;enable-background:new    ;" d="M297.066,156.505c-2.829-2.697-6.66-4.348-10.876-4.348
					c-8.702,0-15.761,7.054-15.761,15.761c0,4.215,1.657,8.047,4.353,10.876c-2.977-2.867-4.828-6.893-4.828-11.351
					c0-8.706,7.059-15.761,15.761-15.761C290.173,151.682,294.198,153.533,297.066,156.505z"/>
			</g>
			<g>
				<path style="fill:#E0E0E0;enable-background:new    ;" d="M285.717,148.886c-10.249,0-18.557,8.308-18.557,18.557
					S275.467,186,285.717,186c10.249,0,18.557-8.308,18.557-18.557S295.966,148.886,285.717,148.886z M285.717,184.989
					c-9.689,0-17.541-7.857-17.541-17.546c0-9.689,7.852-17.541,17.541-17.541c9.689,0,17.541,7.852,17.541,17.541
					C303.258,177.133,295.406,184.989,285.717,184.989z"/>
				<path style="fill:#E0E0E0;enable-background:new    ;" d="M300.892,156.761c0.218,0.893,0.375,1.814,0.475,2.749
					c1.21,2.378,1.889,5.075,1.889,7.933c0,9.689-7.852,17.546-17.541,17.546c-3.014,0-5.853-0.76-8.331-2.103
					c-0.926-0.119-1.837-0.299-2.72-0.536c3.086,2.293,6.907,3.651,11.051,3.651c10.249,0,18.557-8.308,18.557-18.557
					C304.272,163.469,303.023,159.781,300.892,156.761z"/>
			</g>
			<g>
				<path style="fill:#EBEBEB;" d="M284.073,174.415h-2.849v-5.06l-2.092,1.115v-1.474l2.092-1.096v-1.374l-2.092,1.096v-1.454
					l2.092-1.115v-4.582h2.55v3.247l5.08-2.689v1.474l-5.08,2.669v1.375l5.08-2.669v1.454l-5.08,2.689v4.223h0.856
					c3.426,0,5.1-1.813,5.1-4.901h2.57C292.32,171.746,289.531,174.415,284.073,174.415z"/>
			</g>
		</g>
		<g>
			<circle style="fill:#EBEBEB;" cx="197.292" cy="90.543" r="18.558"/>
			<g>
				<circle style="fill:#E0E0E0;enable-background:new    ;" cx="197.292" cy="90.543" r="15.762"/>
				<path style="fill:#E0E0E0;enable-background:new    ;" d="M208.641,79.604c-2.829-2.697-6.66-4.349-10.876-4.349
					c-8.702,0-15.761,7.054-15.761,15.761c0,4.216,1.657,8.047,4.353,10.876c-2.977-2.867-4.828-6.893-4.828-11.351
					c0-8.706,7.059-15.761,15.761-15.761C201.748,74.781,205.774,76.633,208.641,79.604z"/>
			</g>
			<g>
				<path style="fill:#E0E0E0;enable-background:new    ;" d="M197.292,71.986c-10.249,0-18.557,8.308-18.557,18.557
					s8.308,18.557,18.557,18.557c10.249,0,18.557-8.308,18.557-18.557S207.541,71.986,197.292,71.986z M197.292,108.089
					c-9.689,0-17.541-7.857-17.541-17.546s7.852-17.541,17.541-17.541c9.689,0,17.541,7.852,17.541,17.541
					S206.981,108.089,197.292,108.089z"/>
				<path style="fill:#E0E0E0;enable-background:new    ;" d="M212.467,79.861c0.218,0.893,0.375,1.813,0.475,2.749
					c1.21,2.378,1.889,5.075,1.889,7.933c0,9.689-7.852,17.546-17.541,17.546c-3.014,0-5.853-0.76-8.331-2.103
					c-0.926-0.119-1.837-0.299-2.72-0.536c3.086,2.293,6.907,3.651,11.051,3.651c10.249,0,18.557-8.308,18.557-18.557
					C215.847,86.569,214.599,82.88,212.467,79.861z"/>
			</g>
			<g>
				<path style="fill:#EBEBEB;" d="M203.637,84.965h-3.127c0.438,0.398,0.737,0.857,0.956,1.375h2.171v1.395h-1.872
					c0.02,0.139,0.02,0.259,0.02,0.398c0,2.112-1.136,3.586-3.088,4.283l3.346,5.1h-2.789l-3.048-4.661h-0.339h-3.745v-2.191h3.586
					c2.47,0,3.466-1.136,3.466-2.649v-0.279h-8.227V86.34h7.809c-0.538-0.876-1.613-1.395-3.227-1.375h-4.581v-1.394h12.689V84.965z
					"/>
			</g>
		</g>
		<g>
			<circle style="fill:#EBEBEB;" cx="368.854" cy="123.473" r="18.558"/>
			<g>
				<circle style="fill:#E0E0E0;enable-background:new    ;" cx="368.855" cy="123.473" r="15.762"/>
				<path style="fill:#E0E0E0;enable-background:new    ;" d="M380.204,112.534c-2.829-2.696-6.66-4.348-10.876-4.348
					c-8.702,0-15.761,7.054-15.761,15.761c0,4.216,1.657,8.047,4.353,10.876c-2.977-2.867-4.828-6.893-4.828-11.351
					c0-8.707,7.059-15.761,15.761-15.761C373.311,107.711,377.336,109.562,380.204,112.534z"/>
			</g>
			<g>
				<path style="fill:#E0E0E0;enable-background:new    ;" d="M368.854,104.915c-10.249,0-18.557,8.308-18.557,18.557
					s8.308,18.557,18.557,18.557s18.557-8.308,18.557-18.557S379.104,104.915,368.854,104.915z M368.854,141.018
					c-9.689,0-17.541-7.857-17.541-17.546s7.852-17.541,17.541-17.541s17.541,7.852,17.541,17.541S378.543,141.018,368.854,141.018z
					"/>
				<path style="fill:#E0E0E0;enable-background:new    ;" d="M384.03,112.79c0.218,0.893,0.375,1.813,0.475,2.749
					c1.21,2.378,1.889,5.075,1.889,7.933c0,9.689-7.852,17.546-17.541,17.546c-3.014,0-5.853-0.76-8.331-2.103
					c-0.926-0.119-1.837-0.299-2.72-0.536c3.086,2.293,6.907,3.651,11.052,3.651c10.249,0,18.557-8.308,18.557-18.557
					C387.409,119.498,386.161,115.81,384.03,112.79z"/>
			</g>
			<g>
				<path style="fill:#EBEBEB;" d="M370.328,124.289l5.219,6.155h-3.028l-5.239-6.155h-0.578v6.155h-2.55v-6.155h-1.992v-1.634
					h1.992V116.5h2.55v6.155h0.578l5.239-6.155h3.028l-5.219,6.155h3.705v1.634H370.328z"/>
			</g>
		</g>
		<g>
			<circle style="fill:#EBEBEB;" cx="206.43" cy="238.143" r="18.558"/>
			<g>
				<circle style="fill:#E0E0E0;enable-background:new    ;" cx="206.431" cy="238.143" r="15.762"/>
				<path style="fill:#E0E0E0;enable-background:new    ;" d="M217.78,227.204c-2.829-2.697-6.66-4.348-10.876-4.348
					c-8.702,0-15.761,7.054-15.761,15.761c0,4.216,1.657,8.047,4.353,10.876c-2.976-2.867-4.828-6.893-4.828-11.351
					c0-8.706,7.059-15.761,15.761-15.761C210.887,222.381,214.912,224.232,217.78,227.204z"/>
			</g>
			<g>
				<path style="fill:#E0E0E0;enable-background:new    ;" d="M206.43,219.586c-10.249,0-18.557,8.308-18.557,18.557
					c0,10.249,8.308,18.557,18.557,18.557c10.249,0,18.557-8.308,18.557-18.557C224.987,227.893,216.68,219.586,206.43,219.586z
					 M206.43,255.689c-9.689,0-17.541-7.857-17.541-17.546c0-9.689,7.852-17.541,17.541-17.541s17.541,7.852,17.541,17.541
					C223.971,247.832,216.12,255.689,206.43,255.689z"/>
				<path style="fill:#E0E0E0;enable-background:new    ;" d="M221.606,227.46c0.218,0.893,0.375,1.813,0.475,2.749
					c1.21,2.378,1.889,5.075,1.889,7.933c0,9.689-7.852,17.546-17.541,17.546c-3.014,0-5.853-0.76-8.331-2.103
					c-0.926-0.119-1.837-0.299-2.72-0.536c3.086,2.293,6.907,3.651,11.051,3.651c10.249,0,18.557-8.308,18.557-18.557
					C224.986,234.168,223.737,230.48,221.606,227.46z"/>
			</g>
			<g>
				<path style="fill:#EBEBEB;" d="M212.616,237.465v1.355h2.092v1.394h-2.092v4.901h-2.132l-7.669-9.422v9.422h-2.57v-4.901h-2.092
					v-1.394h2.092v-1.355h-2.092v-1.395h2.092v-4.9h2.131l7.669,9.442v-9.442h2.57v4.9h2.092v1.395H212.616z"/>
			</g>
		</g>
		<g>
			<circle style="fill:#EBEBEB;" cx="285.776" cy="362.831" r="18.558"/>
			<g>
				<circle style="fill:#E0E0E0;enable-background:new    ;" cx="285.777" cy="362.831" r="15.762"/>
				<path style="fill:#E0E0E0;enable-background:new    ;" d="M297.125,351.892c-2.829-2.697-6.66-4.348-10.876-4.348
					c-8.702,0-15.761,7.054-15.761,15.761c0,4.216,1.657,8.047,4.353,10.876c-2.977-2.867-4.828-6.893-4.828-11.351
					c0-8.706,7.059-15.761,15.761-15.761C290.233,347.069,294.258,348.921,297.125,351.892z"/>
			</g>
			<g>
				<path style="fill:#E0E0E0;enable-background:new    ;" d="M285.776,344.274c-10.249,0-18.557,8.308-18.557,18.557
					s8.308,18.557,18.557,18.557c10.249,0,18.557-8.308,18.557-18.557S296.026,344.274,285.776,344.274z M285.776,380.377
					c-9.689,0-17.541-7.857-17.541-17.546s7.852-17.541,17.541-17.541c9.689,0,17.541,7.852,17.541,17.541
					S295.465,380.377,285.776,380.377z"/>
				<path style="fill:#E0E0E0;enable-background:new    ;" d="M300.951,352.149c0.218,0.892,0.375,1.813,0.475,2.749
					c1.21,2.378,1.889,5.075,1.889,7.933c0,9.689-7.852,17.546-17.541,17.546c-3.015,0-5.853-0.76-8.331-2.103
					c-0.926-0.119-1.837-0.299-2.72-0.536c3.086,2.293,6.907,3.651,11.052,3.651c10.249,0,18.557-8.308,18.557-18.557
					C304.331,358.857,303.083,355.168,300.951,352.149z"/>
			</g>
			<g>
				<path style="fill:#EBEBEB;" d="M290.597,366.078l1.673,1.593c-1.175,1.375-2.888,2.172-4.92,2.31v2.211h-1.633v-2.251
					c-3.745-0.438-6.434-3.287-6.434-7.112c0-3.825,2.689-6.673,6.434-7.112v-2.251h1.633v2.211c2.032,0.14,3.745,0.936,4.92,2.311
					l-1.673,1.574c-0.896-0.976-1.992-1.514-3.247-1.614v9.761C288.605,367.612,289.701,367.074,290.597,366.078z M285.717,367.612
					v-9.562c-2.271,0.458-3.825,2.311-3.825,4.781C281.892,365.301,283.446,367.154,285.717,367.612z"/>
			</g>
		</g>
	</g>
</g>
<g id="Background_Simple" style="display:none;">
	<g style="display:inline;">
		<path style="fill:#407BFF;" d="M355.443,103.186c19.919-1.483,40.228,6.473,54.905,26.249
			c15.487,20.868,19.637,48.49,16.447,74.281c-3.87,31.292-15.738,63.103-33.997,88.672
			c-47.062,65.903-134.206,108.103-212.39,73.899c-30.441-13.317-56.589-35.346-77.519-61.152
			c-21.307-26.271-42.612-65.128-33.392-100.255c7.776-29.625,36.043-49.871,66.402-41.206c18.586,5.305,28.516,22.53,41.665,35.147
			c21.421,20.554,53.367,17.817,77.575,3.913c22.102-12.695,30.177-37.147,41.188-58.536
			C308.821,119.93,331.859,104.942,355.443,103.186z"/>
		<path style="opacity:0.9;fill:#FFFFFF;" d="M355.443,103.186c19.919-1.483,40.228,6.473,54.905,26.249
			c15.487,20.868,19.637,48.49,16.447,74.281c-3.87,31.292-15.738,63.103-33.997,88.672
			c-47.062,65.903-134.206,108.103-212.39,73.899c-30.441-13.317-56.589-35.346-77.519-61.152
			c-21.307-26.271-42.612-65.128-33.392-100.255c7.776-29.625,36.043-49.871,66.402-41.206c18.586,5.305,28.516,22.53,41.665,35.147
			c21.421,20.554,53.367,17.817,77.575,3.913c22.102-12.695,30.177-37.147,41.188-58.536
			C308.821,119.93,331.859,104.942,355.443,103.186z"/>
	</g>
</g>
<g id="Shadow_1_">
	<ellipse id="_x3C_Path_x3E__359_" style="fill:#F5F5F5;" cx="250" cy="416.238" rx="193.889" ry="11.323"/>
</g>
<g id="Plant">
	<g>
		<g>
			<path style="fill:#407BFF;" d="M90.017,370.546c0,0-7.753-9.228-12.715-4.924c-4.962,4.304-2.452,13.433,3.271,13.727
				c5.723,0.294,9.445-2.885,9.445-2.885V370.546z"/>
			<path style="opacity:0.2;fill:#FFFFFF;enable-background:new    ;" d="M90.017,370.546c0,0-7.753-9.228-12.715-4.924
				c-4.962,4.304-2.452,13.433,3.271,13.727c5.723,0.294,9.445-2.885,9.445-2.885V370.546z"/>
			<path style="fill:#407BFF;" d="M121.65,347.142c0,0,6.513-6.821,10.544-5.665c4.032,1.157,3.612,17.455-8.893,10.856
				L121.65,347.142z"/>
			<path style="opacity:0.3;fill:#FFFFFF;enable-background:new    ;" d="M121.65,347.142c0,0,6.513-6.821,10.544-5.665
				c4.032,1.157,3.612,17.455-8.893,10.856L121.65,347.142z"/>
			<path style="fill:#407BFF;" d="M98.391,398.035c0,0-21.398-29.274-4.032-35.205s20.468,23.553,15.506,31.76
				C104.903,402.799,98.391,398.035,98.391,398.035z"/>
			<path style="fill:#407BFF;" d="M108.315,338.101c0,0,13.274-30.82-6.388-31.751c-19.662-0.93-21.804,30.56,0.821,35.128
				L108.315,338.101z"/>
			<path style="opacity:0.3;fill:#FFFFFF;enable-background:new    ;" d="M98.391,398.035c0,0-21.398-29.274-4.032-35.205
				s20.468,23.553,15.506,31.76C104.903,402.799,98.391,398.035,98.391,398.035z"/>
			<path style="opacity:0.3;fill:#FFFFFF;enable-background:new    ;" d="M108.315,338.101c0,0,13.274-30.82-6.388-31.751
				c-19.662-0.93-21.804,30.56,0.821,35.128L108.315,338.101z"/>
			<path style="fill:#407BFF;" d="M103.605,363.336c0,0-6.455-27.213,5.95-29.384c12.405-2.171,24.65,22.417-1.01,34.778
				C108.545,368.729,104.143,365.999,103.605,363.336z"/>
			<path style="opacity:0.2;fill:#FFFFFF;enable-background:new    ;" d="M103.605,363.336c0,0-6.455-27.213,5.95-29.384
				c12.405-2.171,24.65,22.417-1.01,34.778C108.545,368.729,104.143,365.999,103.605,363.336z"/>
		</g>
		<g>
			<polygon style="fill:#263238;" points="82.987,393.884 118.915,393.884 115.915,416.871 85.987,416.871 			"/>
		</g>
		<g>
			<path style="fill:#407BFF;" d="M101.674,335.899c-1.888-1.356-3.52-3.05-4.97-4.882c-1.452-1.836-2.639-3.89-3.523-6.078
				c-0.876-2.194-1.303-4.573-1.28-6.929c-0.038-2.377,0.687-4.674,1.606-6.783c-0.122,0.571-0.251,1.134-0.39,1.69l-0.202,0.834
				c-0.04,0.284-0.057,0.571-0.087,0.855c-0.06,0.567-0.144,1.13-0.192,1.693l0.035,1.7c0.158,2.248,0.583,4.482,1.442,6.578
				c0.825,2.105,1.94,4.093,3.21,5.989c0.633,0.95,1.322,1.867,2.061,2.745C100.089,334.217,100.869,335.064,101.674,335.899z"/>
		</g>
		<g>
			<path style="fill:#407BFF;" d="M96.964,309.45c1.119,0.181,2.18,0.62,3.217,1.1c0.996,0.553,1.98,1.165,2.836,1.938
				c1.759,1.5,3.089,3.471,3.996,5.592c0.895,2.142,1.262,4.443,1.373,6.719c0.018,1.139-0.068,2.277-0.111,3.407
				c-0.195,1.121-0.356,2.239-0.581,3.341c0-1.134,0.062-2.251,0.091-3.367c-0.057-1.115-0.058-2.23-0.167-3.331
				c-0.209-1.088-0.218-2.205-0.555-3.257c-0.144-0.529-0.231-1.075-0.405-1.593l-0.569-1.537
				C104.437,314.439,101.191,311.06,96.964,309.45z"/>
		</g>
		<g>
			<path style="fill:#407BFF;" d="M112.001,335.899c2.886,1.029,5.237,3.418,6.515,6.257c0.645,1.418,1.068,2.95,1.223,4.499
				c0.076,0.382,0.065,0.782,0.063,1.18c-0.012,0.396,0.024,0.8-0.031,1.191c-0.132,0.778-0.205,1.574-0.468,2.315
				c-0.411,1.522-1.14,2.909-1.884,4.262c-0.829,1.303-1.681,2.592-2.696,3.745c-1.967,2.353-4.194,4.471-6.648,6.274
				c1.092-1.059,2.162-2.133,3.158-3.273c1.019-1.116,1.998-2.267,2.887-3.479c1.788-2.403,3.412-4.978,4.223-7.808
				c0.258-0.694,0.324-1.42,0.457-2.136c0.056-0.359,0.021-0.721,0.038-1.082c0.006-0.361,0.022-0.721-0.037-1.09
				c-0.09-1.481-0.481-2.916-0.988-4.297c-0.53-1.376-1.309-2.661-2.299-3.773C114.544,337.552,113.354,336.59,112.001,335.899z"/>
		</g>
		<g>
			<path style="fill:#407BFF;" d="M108.315,338.101c0.729,1.997,1.183,4.092,1.377,6.232c0.12,1.069,0.093,2.157-0.023,3.247
				c-0.124,1.085-0.41,2.195-1.022,3.188c-1.18,1.677-1.577,3.693-1.806,5.765c-0.12,1.033-0.149,2.082-0.147,3.131
				c-0.026,1.052,0.02,2.105,0.071,3.166c-0.513-2.063-0.741-4.196-0.691-6.346c0.02-1.076,0.148-2.155,0.397-3.226
				c0.147-0.531,0.298-1.063,0.539-1.573c0.175-0.508,0.584-1.034,0.791-1.448c0.517-0.799,0.791-1.786,0.934-2.789
				c0.162-1.004,0.2-2.039,0.193-3.079c-0.009-1.04-0.078-2.087-0.2-3.13C108.637,340.192,108.476,339.15,108.315,338.101z"/>
		</g>
		<g>
			<path style="fill:#407BFF;" d="M99.585,365.622c0.548,0.159,0.977,0.585,1.335,1.015c0.372,0.433,0.663,0.92,0.954,1.407
				c0.533,0.997,0.96,2.04,1.349,3.093c0.767,2.111,1.308,4.286,1.776,6.468c0.447,2.188,0.815,4.388,1.055,6.606
				c0.236,2.215,0.447,4.443,0.35,6.677c-0.158-1.104-0.326-2.198-0.534-3.29c-0.178-1.094-0.369-2.186-0.577-3.274
				c-0.417-2.176-0.809-4.354-1.272-6.514c-0.439-2.166-0.947-4.314-1.526-6.437c-0.293-1.061-0.632-2.108-1.058-3.115
				c-0.215-0.5-0.432-1.007-0.729-1.463C100.413,366.343,100.087,365.88,99.585,365.622z"/>
		</g>
		<g>
			<path style="fill:#407BFF;" d="M93.506,366.567c-0.577,1.996-0.88,4.036-1.008,6.068c-0.107,2.034,0.025,4.072,0.442,6.047
				c0.392,1.978,1.052,3.91,2.017,5.697c0.897,1.832,2.148,3.46,3.433,5.1c-0.388-0.343-0.772-0.695-1.148-1.057
				c-0.371-0.366-0.786-0.699-1.103-1.117c-0.659-0.813-1.356-1.613-1.862-2.543c-0.603-0.876-0.992-1.864-1.433-2.829
				c-0.204-0.489-0.329-1.008-0.496-1.511c-0.176-0.502-0.29-1.02-0.387-1.542c-0.418-2.079-0.51-4.224-0.237-6.315
				C91.988,370.477,92.567,368.426,93.506,366.567z"/>
		</g>
		<g>
			<path style="fill:#407BFF;" d="M126.701,350.466c1.16-0.336,2.208-0.599,3.184-1.021c0.495-0.193,0.939-0.463,1.389-0.749
				c0.457-0.289,0.838-0.67,1.309-1.073c-0.099,0.593-0.357,1.193-0.786,1.652c-0.415,0.47-0.945,0.844-1.518,1.088
				c-0.578,0.233-1.184,0.376-1.794,0.393C127.878,350.778,127.266,350.709,126.701,350.466z"/>
		</g>
		<g>
			<path style="fill:#407BFF;" d="M125.371,345.969c0.281-0.557,0.704-1.013,1.183-1.398c0.482-0.386,1.037-0.696,1.658-0.876
				c0.621-0.166,1.305-0.207,1.941-0.019c0.641,0.183,1.167,0.619,1.498,1.131c-0.599-0.19-1.112-0.347-1.637-0.363
				c-0.519-0.003-1.023,0.064-1.528,0.212c-0.511,0.128-1.008,0.356-1.524,0.576L125.371,345.969z"/>
		</g>
		<g>
			<path style="fill:#407BFF;" d="M86.475,371.923c-1.344-1.027-2.58-2.078-3.941-2.844c-0.668-0.396-1.379-0.694-2.11-0.783
				c-0.735-0.096-1.486,0.064-2.269,0.433c0.498-0.686,1.36-1.178,2.291-1.213c0.934-0.062,1.821,0.265,2.579,0.693
				c0.759,0.444,1.434,0.99,2.012,1.619C85.613,370.454,86.117,371.146,86.475,371.923z"/>
		</g>
		<g>
			<path style="fill:#407BFF;" d="M86.475,376.464c-0.936,0.356-1.919,0.551-2.913,0.642c-0.995,0.096-2.007,0.063-3.015-0.093
				c-1-0.164-2.02-0.514-2.867-1.161c-0.858-0.628-1.422-1.664-1.402-2.67c0.408,0.929,1.047,1.594,1.835,2.021
				c0.789,0.419,1.676,0.691,2.604,0.825C82.568,376.341,84.492,376.366,86.475,376.464z"/>
		</g>
	</g>
</g>
<g id="World">
	<g>
		<g>
			<path style="fill:#407BFF;" d="M216.59,333.646c-3.029,0-6.1-0.146-9.128-0.434c-1.814-0.173-3.642-0.4-5.433-0.673
				c-0.303-0.046-0.511-0.329-0.465-0.632c0.046-0.303,0.326-0.514,0.632-0.465c1.771,0.27,3.578,0.493,5.371,0.664
				c3.691,0.353,7.436,0.488,11.115,0.407c0.307-0.013,0.56,0.237,0.567,0.543c0.007,0.307-0.236,0.56-0.543,0.567
				C218.002,333.638,217.296,333.646,216.59,333.646z M222.018,333.491c-0.291,0-0.536-0.228-0.553-0.522
				c-0.018-0.307,0.216-0.569,0.522-0.586c1.836-0.106,3.683-0.268,5.491-0.479c0.317-0.03,0.58,0.184,0.615,0.488
				c0.036,0.303-0.182,0.579-0.486,0.615c-1.829,0.213-3.698,0.376-5.556,0.483C222.039,333.491,222.028,333.491,222.018,333.491z
				 M191.272,330.237c-0.049,0-0.098-0.007-0.147-0.02c-0.719-0.197-1.434-0.403-2.145-0.617c-0.293-0.088-0.459-0.396-0.371-0.69
				c0.088-0.293,0.394-0.464,0.691-0.371c0.702,0.21,1.409,0.414,2.119,0.609c0.295,0.081,0.469,0.387,0.388,0.682
				C191.739,330.075,191.516,330.237,191.272,330.237z M243.807,329.633c-0.238,0-0.458-0.155-0.531-0.394
				c-0.089-0.294,0.077-0.602,0.37-0.691c0.702-0.212,1.401-0.432,2.097-0.66c0.292-0.099,0.604,0.063,0.7,0.353
				c0.095,0.291-0.063,0.604-0.354,0.7c-0.704,0.232-1.411,0.454-2.122,0.668C243.914,329.626,243.86,329.633,243.807,329.633z
				 M256.222,324.905c-0.21,0-0.41-0.119-0.504-0.322c-0.129-0.277-0.008-0.607,0.27-0.736c4.985-2.314,9.803-5.085,14.318-8.239
				c0.251-0.174,0.596-0.114,0.772,0.138c0.175,0.251,0.114,0.597-0.138,0.772c-4.568,3.19-9.442,5.994-14.486,8.334
				C256.379,324.888,256.3,324.905,256.222,324.905z M173.71,323.453c-0.084,0-0.169-0.02-0.25-0.06
				c-1.658-0.841-3.308-1.739-4.905-2.67c-0.265-0.154-0.354-0.494-0.199-0.758c0.154-0.263,0.495-0.355,0.758-0.199
				c1.578,0.921,3.209,1.808,4.847,2.638c0.273,0.139,0.382,0.472,0.244,0.745C174.108,323.342,173.913,323.453,173.71,323.453z
				 M165.986,319.069c-0.101,0-0.204-0.028-0.296-0.086c-4.702-2.97-9.174-6.381-13.29-10.135c-0.226-0.206-0.243-0.557-0.036-0.783
				c0.206-0.227,0.558-0.243,0.784-0.036c4.069,3.71,8.488,7.08,13.136,10.016c0.259,0.164,0.336,0.506,0.173,0.765
				C166.35,318.978,166.17,319.069,165.986,319.069z M273.317,314.668c-0.168,0-0.335-0.076-0.444-0.221
				c-0.184-0.245-0.134-0.593,0.111-0.777c1.462-1.099,2.911-2.257,4.307-3.44c0.234-0.196,0.584-0.17,0.782,0.065
				c0.198,0.234,0.169,0.584-0.065,0.782c-1.413,1.196-2.879,2.367-4.358,3.478C273.55,314.632,273.433,314.668,273.317,314.668z
				 M145.03,301.059c-0.155,0-0.309-0.065-0.419-0.191c-0.488-0.561-0.969-1.129-1.444-1.702c-0.195-0.236-0.162-0.586,0.074-0.781
				c0.236-0.196,0.585-0.163,0.781,0.073c0.469,0.567,0.944,1.128,1.426,1.682c0.201,0.232,0.177,0.582-0.055,0.782
				C145.289,301.015,145.159,301.059,145.03,301.059z M289.34,299.401c-0.124,0-0.25-0.042-0.354-0.128
				c-0.236-0.196-0.268-0.546-0.072-0.781c0.47-0.565,0.933-1.138,1.39-1.715c0.19-0.238,0.539-0.282,0.779-0.09
				c0.24,0.19,0.281,0.538,0.09,0.779c-0.463,0.584-0.932,1.162-1.407,1.734C289.658,299.332,289.5,299.401,289.34,299.401z
				 M297.099,288.595c-0.099,0-0.2-0.026-0.29-0.082c-0.261-0.16-0.342-0.503-0.181-0.764c2.887-4.685,5.373-9.657,7.388-14.774
				c0.113-0.285,0.436-0.427,0.719-0.312c0.285,0.112,0.425,0.434,0.313,0.719c-2.039,5.177-4.554,10.207-7.475,14.95
				C297.467,288.501,297.285,288.595,297.099,288.595z M134.156,285.694c-0.193,0-0.381-0.101-0.483-0.281
				c-0.913-1.607-1.791-3.263-2.611-4.924c-0.136-0.275-0.023-0.608,0.252-0.743c0.276-0.136,0.607-0.022,0.743,0.251
				c0.81,1.642,1.678,3.28,2.58,4.867c0.152,0.266,0.059,0.604-0.208,0.756C134.343,285.671,134.249,285.694,134.156,285.694z
				 M130.144,277.794c-0.212,0-0.414-0.121-0.506-0.327c-2.288-5.081-4.135-10.391-5.492-15.781
				c-0.075-0.297,0.106-0.599,0.402-0.674c0.298-0.069,0.599,0.106,0.673,0.403c1.34,5.328,3.166,10.575,5.428,15.597
				c0.126,0.279,0.001,0.608-0.278,0.733C130.297,277.779,130.219,277.794,130.144,277.794z M305.695,270.615
				c-0.061,0-0.124-0.01-0.185-0.032c-0.289-0.102-0.44-0.419-0.339-0.708c0.61-1.725,1.176-3.49,1.683-5.248
				c0.085-0.293,0.392-0.466,0.687-0.379c0.294,0.085,0.464,0.392,0.379,0.687c-0.513,1.778-1.086,3.564-1.702,5.31
				C306.138,270.473,305.924,270.615,305.695,270.615z M122.618,251.216c-0.275,0-0.514-0.204-0.55-0.484
				c-0.095-0.737-0.182-1.474-0.259-2.214c-0.033-0.305,0.188-0.578,0.493-0.61c0.302-0.037,0.577,0.188,0.609,0.493
				c0.077,0.731,0.163,1.462,0.257,2.19c0.039,0.303-0.175,0.582-0.479,0.621C122.665,251.215,122.641,251.216,122.618,251.216z
				 M310.574,249.032c-0.02,0-0.039-0.001-0.059-0.003c-0.304-0.033-0.525-0.306-0.493-0.61c0.037-0.35,0.073-0.701,0.106-1.052
				c0.036-0.381,0.07-0.763,0.102-1.145c0.025-0.304,0.292-0.524,0.599-0.506c0.305,0.025,0.532,0.294,0.506,0.599
				c-0.032,0.385-0.066,0.77-0.103,1.156c-0.034,0.355-0.069,0.711-0.107,1.065C311.094,248.821,310.854,249.032,310.574,249.032z
				 M311.058,235.74c-0.297,0-0.544-0.236-0.554-0.536c-0.183-5.504-0.857-11.019-2.003-16.393c-0.063-0.3,0.127-0.595,0.427-0.659
				c0.293-0.062,0.594,0.128,0.658,0.427c1.159,5.437,1.841,11.018,2.026,16.588c0.01,0.307-0.23,0.562-0.536,0.573
				C311.07,235.74,311.065,235.74,311.058,235.74z M122.08,232.399c-0.013,0-0.027,0-0.039-0.001
				c-0.306-0.022-0.536-0.287-0.514-0.593c0.055-0.786,0.121-1.575,0.196-2.365c0.101-1.067,0.22-2.129,0.355-3.184
				c0.039-0.304,0.317-0.52,0.621-0.48c0.304,0.039,0.519,0.317,0.48,0.621c-0.134,1.044-0.252,2.093-0.352,3.148
				c-0.074,0.78-0.139,1.56-0.194,2.338C122.612,232.176,122.369,232.399,122.08,232.399z M123.111,223.59
				c-0.03,0-0.06-0.002-0.09-0.008c-0.302-0.05-0.507-0.335-0.458-0.637c0.904-5.508,2.297-10.954,4.141-16.188
				c0.101-0.289,0.42-0.439,0.707-0.339c0.289,0.102,0.441,0.419,0.339,0.707c-1.823,5.173-3.2,10.556-4.093,15.999
				C123.613,223.397,123.378,223.59,123.111,223.59z M308.293,216.011c-0.248,0-0.474-0.169-0.537-0.42
				c-0.443-1.768-0.946-3.551-1.494-5.296c-0.091-0.292,0.071-0.604,0.363-0.695c0.293-0.092,0.604,0.071,0.695,0.363
				c0.555,1.767,1.063,3.57,1.511,5.359c0.075,0.297-0.106,0.598-0.403,0.673C308.383,216.006,308.338,216.011,308.293,216.011z
				 M131.523,197.272c-0.082,0-0.166-0.018-0.244-0.057c-0.275-0.135-0.388-0.467-0.253-0.743c0.33-0.67,0.666-1.336,1.011-1.997
				c0.141-0.271,0.475-0.378,0.748-0.235c0.271,0.142,0.377,0.477,0.235,0.749c-0.341,0.653-0.674,1.31-0.999,1.973
				C131.925,197.158,131.727,197.272,131.523,197.272z M300.435,195.334c-0.2,0-0.393-0.108-0.492-0.298
				c-0.34-0.651-0.686-1.298-1.041-1.94c-0.148-0.269-0.05-0.606,0.218-0.754c0.269-0.147,0.606-0.05,0.754,0.218
				c0.358,0.65,0.709,1.304,1.053,1.964c0.141,0.271,0.036,0.606-0.236,0.748C300.609,195.314,300.521,195.334,300.435,195.334z
				 M293.478,184.006c-0.173,0-0.343-0.081-0.452-0.232c-3.199-4.475-6.813-8.697-10.744-12.549
				c-0.219-0.214-0.222-0.566-0.008-0.784c0.214-0.219,0.565-0.223,0.784-0.008c3.976,3.897,7.633,8.168,10.869,12.695
				c0.178,0.25,0.121,0.596-0.128,0.774C293.702,183.973,293.59,184.006,293.478,184.006z M141.478,181.288
				c-0.118,0-0.237-0.037-0.338-0.115c-0.243-0.187-0.288-0.536-0.101-0.778c1.13-1.466,2.32-2.918,3.535-4.317
				c0.201-0.232,0.552-0.254,0.783-0.055c0.231,0.201,0.256,0.551,0.055,0.783c-1.201,1.383-2.377,2.818-3.494,4.267
				C141.809,181.213,141.645,181.288,141.478,181.288z M147.221,174.521c-0.135,0-0.271-0.049-0.378-0.149
				c-0.224-0.209-0.237-0.56-0.028-0.784c3.796-4.07,7.975-7.832,12.422-11.181c0.246-0.185,0.593-0.135,0.777,0.109
				c0.184,0.245,0.135,0.593-0.109,0.777c-4.396,3.31-8.527,7.028-12.278,11.051C147.518,174.462,147.37,174.521,147.221,174.521z
				 M280.254,169.097c-0.134,0-0.268-0.048-0.374-0.145c-1.349-1.233-2.755-2.444-4.178-3.599c-0.238-0.193-0.274-0.542-0.081-0.78
				c0.192-0.238,0.542-0.275,0.78-0.081c1.441,1.169,2.863,2.394,4.228,3.642c0.226,0.207,0.242,0.557,0.035,0.784
				C280.554,169.036,280.404,169.097,280.254,169.097z M168.799,157.264c-0.191,0-0.376-0.098-0.479-0.275
				c-0.154-0.264-0.065-0.604,0.199-0.759c0.641-0.375,1.287-0.742,1.937-1.102c0.268-0.148,0.605-0.051,0.754,0.217
				c0.148,0.268,0.051,0.605-0.217,0.754c-0.642,0.356-1.281,0.719-1.914,1.089C168.99,157.24,168.894,157.264,168.799,157.264z
				 M262.279,156.179c-0.091,0-0.183-0.022-0.268-0.069c-0.645-0.356-1.293-0.706-1.947-1.048c-0.271-0.142-0.376-0.477-0.234-0.748
				c0.141-0.271,0.476-0.377,0.749-0.234c0.661,0.346,1.318,0.699,1.97,1.06c0.267,0.148,0.365,0.486,0.217,0.754
				C262.663,156.075,262.474,156.179,262.279,156.179z M250.207,150.573c-0.066,0-0.132-0.011-0.197-0.036
				c-5.129-1.953-10.476-3.464-15.893-4.491c-0.301-0.057-0.498-0.347-0.441-0.648c0.057-0.301,0.342-0.501,0.648-0.441
				c5.48,1.039,10.89,2.568,16.08,4.544c0.287,0.109,0.43,0.43,0.321,0.715C250.641,150.437,250.43,150.573,250.207,150.573z
				 M185.909,149.431c-0.231,0-0.446-0.145-0.525-0.375c-0.099-0.29,0.055-0.605,0.346-0.704c1.753-0.6,3.543-1.153,5.321-1.645
				c0.292-0.08,0.6,0.09,0.683,0.387c0.082,0.295-0.092,0.601-0.387,0.683c-1.757,0.486-3.526,1.033-5.258,1.626
				C186.03,149.422,185.969,149.431,185.909,149.431z M194.419,146.963c-0.251,0-0.478-0.171-0.539-0.425
				c-0.072-0.298,0.112-0.597,0.41-0.669c5.407-1.296,10.969-2.117,16.532-2.441c0.316-0.014,0.569,0.216,0.586,0.521
				c0.018,0.306-0.216,0.568-0.521,0.586c-5.498,0.321-10.994,1.133-16.338,2.413C194.505,146.958,194.462,146.963,194.419,146.963z
				 M230.942,145.492c-0.028,0-0.056-0.002-0.085-0.007c-1.809-0.278-3.649-0.506-5.47-0.68c-0.305-0.029-0.529-0.299-0.499-0.604
				c0.029-0.305,0.292-0.533,0.604-0.499c1.842,0.175,3.704,0.406,5.534,0.687c0.302,0.047,0.51,0.33,0.464,0.633
				C231.448,145.296,231.212,145.492,230.942,145.492z M224.154,144.695c-0.015,0-0.03-0.001-0.046-0.002
				c-0.734-0.061-1.468-0.112-2.2-0.155c-0.306-0.018-0.539-0.281-0.521-0.586c0.018-0.306,0.283-0.542,0.586-0.521
				c0.741,0.043,1.483,0.095,2.226,0.156c0.305,0.026,0.533,0.293,0.508,0.599C224.682,144.476,224.44,144.695,224.154,144.695z"/>
		</g>
		<g>
			<g>
				<path style="fill:#407BFF;" d="M128.598,239.08c-0.021-2.918,0.101-5.798,0.358-8.64c2.196-24.339,14.335-45.844,32.339-60.387
					c14.923-12.055,33.883-19.329,54.558-19.476c0.536-0.004,1.072-0.001,1.601,0.001c11.046,0.122,21.603,2.28,31.313,6.117
					l0.006,0c29.681,11.745,51.482,39.18,55.066,72.155c0.318,2.954,0.494,5.948,0.515,8.982c0.052,7.327-0.795,14.446-2.438,21.255
					c-4.853,20.182-16.678,37.676-32.808,49.758c-14.506,10.858-32.49,17.35-52.01,17.489c-10.457,0.074-20.501-1.681-29.82-4.966
					C153.318,309.41,128.868,277.158,128.598,239.08z"/>
			</g>
			<g style="opacity:0.6;">
				<path style="fill:#FFFFFF;" d="M128.598,239.08c-0.021-2.918,0.101-5.798,0.358-8.64c2.196-24.339,14.335-45.844,32.339-60.387
					c14.923-12.055,33.883-19.329,54.558-19.476c0.536-0.004,1.072-0.001,1.601,0.001c11.046,0.122,21.603,2.28,31.313,6.117
					l0.006,0c29.681,11.745,51.482,39.18,55.066,72.155c0.318,2.954,0.494,5.948,0.515,8.982c0.052,7.327-0.795,14.446-2.438,21.255
					c-4.853,20.182-16.678,37.676-32.808,49.758c-14.506,10.858-32.49,17.35-52.01,17.489c-10.457,0.074-20.501-1.681-29.82-4.966
					C153.318,309.41,128.868,277.158,128.598,239.08z"/>
			</g>
			<g>
				<path style="opacity:0.4;fill:#407BFF;enable-background:new    ;" d="M190.147,302.474c-1.65,0.16-2.393,2.188-2.729,3.841
					c-0.499,2.482-1.004,4.965-1.503,7.447c3.025,1.418,2.773,5.106,1.365,7.608c-33.963-11.96-58.412-44.212-58.682-82.29
					c-0.021-2.918,0.101-5.798,0.358-8.64c0.071-0.046,0.148-0.085,0.225-0.124c2.395-1.132,4.285,0.916,6.091,2.072
					c0.408,0.261,5.674,2.819,5.743,2.108c-0.222,2.299-0.098,4.63,0.367,6.893c0.035,0.171,0.083,0.359,0.227,0.458
					c0.343,0.235,0.731-0.238,0.856-0.635c0.32-1.013,0.457-2.082,0.837-3.074c0.38-0.992,1.075-1.945,2.088-2.264
					c1.019-0.321,2.129,0.057,3.187-0.091c1.291-0.18,2.367-1.139,3.019-2.267c0.629-1.089,0.921-2.349,1.238-3.547
					c1.242,2.757,4.391,1.057,6.241,3.285c0.594,0.716,1.309,1.748,2.172,1.401c0.821-0.33,0.915-1.732,1.793-1.841
					c0.614-0.076,1.064,0.599,1.155,1.211c0.091,0.612-0.008,1.267,0.251,1.83c0.363,0.791,1.466,1.129,2.21,0.679
					c0.669-0.405,0.927-1.226,1.345-1.887c0.418-0.661,1.314-1.217,1.944-0.753c0.148,0.109,0.259,0.263,0.344,0.426
					c0.61,1.174-0.081,2.599-0.898,3.64c-0.817,1.041-1.825,2.082-1.911,3.402c0.474,0.339,1.225,0.182,1.523-0.32
					c0.104-0.174,0.161-0.384,0.316-0.515c0.337-0.284,0.837-0.014,1.208,0.226c1.744,1.127,3.948,1.518,5.973,1.059
					c0.151-2.678,0.302-5.357,0.453-8.035c0.607-0.021,0.971-0.059,1.201-0.682c2.009,1.956,3.85,4.063,6.065,5.827
					c0.265,0.211,0.549,0.442,0.639,0.769c0.094,0.341-0.048,0.702-0.027,1.056c0.071,1.169,1.638,1.476,2.809,1.445
					c0.34,0.189,0.144,0.747-0.195,0.936c-0.34,0.189-0.765,0.207-1.072,0.446c-0.459,0.357-0.467,1.054-0.299,1.611
					c0.582,1.935,2.948,3.114,4.844,2.414c0.226-0.083,0.454-0.197,0.588-0.397c0.297-0.438,0.016-1.017-0.038-1.543
					c-0.213-2.075,2.026-1.592,3.058-1.018c1.4,0.778,2.185,2.842,2.446,4.318c0.306,1.725,1.609,13.172,5.429,11.59
					c0.358-0.149,0.617-0.471,0.799-0.814c0.552-1.039,0.513-2.292,0.917-3.396c0.404-1.105,1.662-2.112,2.69-1.54
					c0.412,0.23,0.675,0.661,1.069,0.921c1.098,0.723,2.66-0.145,3.857,0.4c0.55,0.251,0.931,0.763,1.43,1.105
					c0.499,0.341,1.282,0.451,1.633-0.041c0.394-0.551-0.068-1.381,0.255-1.976c0.339-0.625,1.393-0.495,1.751,0.119
					c0.358,0.614,0.142,1.427-0.299,1.984c-0.231,0.292-0.528,0.559-0.605,0.923c-0.137,0.652,0.481,1.194,1.029,1.574
					c0.871,0.603,1.743,1.206,2.614,1.809c-0.057,0.603-0.645,1.024-1.228,1.187c-0.583,0.164-1.207,0.157-1.786,0.349
					c-2.789,0.93-2.778,5.07-6.438,4.257c0.218-1.099-0.955-2.219-2.042-1.951c-1.342,0.331-2.208,2.242-3.537,1.864
					c-0.462-0.131-0.814-0.534-1.282-0.644c-1.291-0.307-1.923,1.678-2.286,2.523c-1.204,2.802,0.67,3.14,0.594,5.641
					c-0.035,1.144-0.882,2.11-1.092,3.236c-0.193,1.036,0.17,2.107,0.029,3.152c-0.386,2.871-4.185,1.13-5.868,0.797
					c0.915,1.627-0.446,3.605-1.929,4.733c-2.279,1.732-1.889,1.583-2.173,4.083c-0.075,0.66-0.454,1.329-1.08,1.552
					c-1.09,0.387-2.151-0.691-3.302-0.803c-0.552-0.054-1.113,0.12-1.66,0.027c-1.436-0.242-1.937-2.004-2.874-3.12
					c-0.819-0.976-2.139-1.509-3.406-1.375c-0.103,0.737-0.106,1.488-0.009,2.226c0.805,0.497,1.61,0.994,2.414,1.491
					c0.712,0.439,1.449,0.904,1.889,1.615c0.247,0.398,0.399,0.872,0.756,1.175c0.71,0.603,1.774,0.239,2.703,0.179
					c2.254-0.147,5.923,1.258,8.094,1.971c2.314,0.76,3.124,2.397,5.258,3.13c0.376,0.129,0.461,0.674,0.239,1.005
					c-0.222,0.33-0.632,0.478-1.024,0.547c-0.909,0.161-1.871,0.002-2.681-0.441c1.062,0.582-2.041,3.144-2.603,3.271
					c-0.92,0.207-2.158-0.486-3.094-0.534c-2.322-0.118-3.668,0.344-2.143,2.869c0.583,0.966,1.263,2.196,0.623,3.125
					c-0.615-0.256-1.355,0.114-1.7,0.684c-0.344,0.57-0.37,1.276-0.294,1.938c0.051,0.446,0.159,0.917,0.485,1.225
					c0.174,0.165,0.404,0.276,0.536,0.475c0.432,0.65-0.456,1.363-1.185,1.643"/>
				<path style="opacity:0.4;fill:#407BFF;enable-background:new    ;" d="M267.051,201.805c-0.723-0.541-1.75-0.105-2.503,0.394
					c-0.753,0.499-1.637,1.081-2.486,0.774c-0.016-1.047-0.033-2.094-0.049-3.142c-0.003-0.197-0.016-0.416-0.158-0.552
					c-0.145-0.138-0.368-0.137-0.568-0.128c-0.674,0.031-1.348,0.062-2.022,0.092c-0.562,0.618,1.004,1.373,0.781,2.178
					c-0.098,0.356-0.501,0.511-0.826,0.685c-2.775,1.489-1.015,4.585,0.243,6.267c1.46,1.952,1.362,4.612,1.205,7.047
					c-0.058,0.865-0.161,1.834-0.829,2.401c-0.648,0.56-1.604,0.521-2.435,0.766c-1.437,0.417-2.454,1.689-3.798,2.351
					c-4.698,2.312-7.795-2.717-6.265-6.678c0.793-2.053,1.133-1.664,0.679-3.858c-0.189-0.915,0.114-1.995-0.838-2.619
					c-1.009-0.662-2.465,0.049-2.546,1.278c-0.079,1.206-0.355,2.352,0.14,3.485c-1.39-0.516-3.044-0.188-4.563-0.189
					c0.217,1.4-1.589,2.632-2.814,1.921c0.041-0.686-0.145-1.63-0.832-1.624c-0.2,0.002-0.387,0.098-0.559,0.199
					c-0.721,0.425-1.358,0.991-2.117,1.346c-1.167,0.544-4.522,0.286-5.046,1.861c-0.092,0.277-0.091,0.579-0.2,0.85
					c-0.233,0.576-0.965,0.857-1.558,0.673c-0.594-0.184-1.02-0.753-1.135-1.364c-0.077-0.407-0.034-0.833-0.14-1.234
					c-0.565-2.127-2.749-0.462-3.724-1.035c-0.468-0.275-2.396-3.901-2.438-4.34c-0.928,1.155-2.316,2.129-3.859,2.057
					c-1.69-0.079-2.411-1.423-2.791-3.064c-0.401-1.734-0.422-3.799-0.801-5.055c-0.204-0.675-0.378-1.494,0.099-2.012
					c0.597-0.648,1.868-0.4,2.301-1.168c0.137-0.244,0.149-0.535,0.196-0.811c0.278-1.617,2.09-2.788,3.678-2.377
					c0.519-0.34,0.528-1.078,0.558-1.698c0.03-0.62,0.293-1.387,0.912-1.431c0.712-0.051,1.035,0.881,1.023,1.594
					c-0.012,0.727-0.125,1.453-0.336,2.15c-0.157,0.52-0.37,1.078-0.185,1.589c0.139,0.386,0.48,0.66,0.813,0.9
					c0.803,0.578,1.717,1.099,2.707,1.092c0.99-0.007,2.032-0.726,2.071-1.716c0.01-0.266-0.049-0.536,0.013-0.794
					c0.16-0.664,1.007-0.893,1.683-0.801c0.676,0.091,1.351,0.374,2.019,0.238c0.669-0.136,1.225-1.007,0.751-1.498
					c0.899-0.315,2.184-0.472,2.538,0.412c0.114,0.284,0.082,0.602,0.088,0.907c0.035,1.888,2.381,4.612,3.982,2.638
					c1.053-1.298-0.76-3.658,1.129-4.726c0.903-0.51,2.128-0.06,3.022-0.587c0.279-0.331-0.2-0.779-0.619-0.889
					c-1.324-0.348-2.819,0.058-3.785,1.027c-0.535-1.1,0.292-2.712-0.642-3.502c-0.922-0.78-2.695,0.138-3.386-0.852
					c-0.198-0.283-0.229-0.647-0.254-0.993c-0.122-1.704,0.403-4.831-2.004-5.117c-0.292-0.035-0.596-0.012-0.869-0.119
					c-0.831-0.323-0.824-1.486-0.67-2.364c0.904-0.389,1.874,0.281,2.744,0.742c0.87,0.461,2.251,0.538,2.547-0.401
					c0.212-0.672-0.315-1.513,0.13-2.06c0.206-0.253,0.571-0.35,0.746-0.626c0.423-0.668-0.605-1.338-0.788-2.107
					c-0.252-1.06,1.165-1.741,2.251-1.66c1.087,0.081,2.303,0.446,3.18-0.201c0.278-0.205,0.484-0.492,0.742-0.721
					c0.796-0.705,1.954-0.769,3.017-0.796c1.696-0.044-2.163-7.02-2.201-7.445c-0.292-3.236,3.025-4.958,4.926-7.016
					c0.993-1.085,1.72-2.368,2.447-3.651c28.577,11.308,49.709,37.55,54.502,67.926c0.215,1.362,0.471,2.77,0.48,4.128
					c-2.005-0.566-5.126-2.067-7.162-0.847c-2.586,1.549-0.715,5.387-3.695,6.521c-0.738-0.01-0.525-1.225-0.953-1.827
					c-0.238-0.335-0.673-0.447-1.039-0.632c-0.366-0.185-0.721-0.58-0.572-0.963c-0.645-0.507-1.534,0.14-2.134,0.7
					c-0.704,0.659-1.51,1.265-2.454,1.463c-1.967,0.413-3.784-0.997-5.556-1.946c-1.464-0.785-3.061-1.285-4.647-1.78
					c0.767,0.045,1.155-1.016,0.86-1.725c-0.295-0.709-0.964-1.18-1.453-1.773c-0.833-1.012-0.193-2.189-0.89-3.264
					c-0.862-1.337-2.521-2.274-2.661-3.854c-0.175-1.916,1.947-3.138,3.73-3.848c-0.945-2.162-3.505-3.648-3.503-6.011
					c0-0.91,0.407-1.759,0.801-2.575c0.808-1.671,1.616-3.342,2.424-5.007c0.337-0.693,0.68-1.457,0.475-2.198
					c-0.232-0.876-1.126-1.38-1.93-1.781c-0.875-0.439-1.749-0.878-2.624-1.318c-0.363-0.178-0.758-0.362-1.151-0.295
					c-0.426,0.074-0.739,0.412-1.002,0.756c-1.426,1.85-2.107,4.256-1.871,6.585c-3.102-0.462-6.148-1.306-9.042-2.518
					c0.322,1.792-0.418,3.771,0.137,5.449"/>
				<path style="opacity:0.4;fill:#407BFF;enable-background:new    ;" d="M194.39,216.47c-0.835,0.599-1.505,1.514-1.556,2.541
					c-0.032,0.633,0.17,1.254,0.211,1.886c0.041,0.632-0.138,1.355-0.693,1.66c-0.709,0.39-1.564-0.095-2.223-0.564
					c-0.536-0.381-1.113-0.822-1.244-1.466c-0.096-0.471,0.071-0.958,0.029-1.437c-0.083-0.948-0.922-1.615-1.592-2.291
					c-0.67-0.676-1.239-1.74-0.711-2.531c0.348-0.521,1.052-0.703,1.425-1.206c0.91-1.227-0.735-2.945,0.018-4.062
					c0.893-1.324,3.106-0.646,4.331,0.023c1.24,0.677,2.141,1.933,3.028,2.996C197.92,215.025,197.044,214.565,194.39,216.47z"/>
				<path style="opacity:0.4;fill:#407BFF;enable-background:new    ;" d="M161.368,170.027
					c14.703-12.755,35.223-19.313,54.486-19.45c0.536-0.004,1.072-0.001,1.601,0.001c2.542,2.866,3.89,8.294-1.146,9.308
					c-0.002,0.549,0.314,0.686,0.592,1.125c0.435,0.69-0.291,1.559-1.045,1.87c-2.473,1.021-5.476,0.962-5.083,4.312
					c0.469,3.995,2.356,1.453,4.43,2.899c0.3,0.209,0.476,0.55,0.717,0.826c0.882,1.013,2.429,1.005,3.769,0.916
					c-0.336-0.785,0.186-1.812,1.018-2.004c0.314-0.072,0.666-0.048,0.927-0.236c0.56-0.405,0.136-1.363-0.503-1.626
					c-0.64-0.263-1.375-0.154-2.039-0.347c-0.664-0.193-1.27-0.98-0.867-1.543c0.168-0.235,0.461-0.344,0.742-0.408
					c1.183-0.267,2.489,0.096,3.365,0.934c0.221-0.636,0.908-1.076,1.578-1.01c0.67,0.065,1.259,0.63,1.353,1.296
					c0.137,0.975-0.532,2.302,0.34,2.758c-0.774-0.203-1.652,0.074-2.17,0.685c-2.038,2.402-0.825,8.245-6.197,7.265
					c-0.863-0.157-1.688-0.525-2.564-0.571c-0.876-0.047-1.88,0.361-2.111,1.207c-1.129-1.637-4.023-1.288-4.986-3.028
					c-0.453-0.819-0.247-1.945,0.467-2.551c0.119-0.101,0.255-0.196,0.312-0.34c0.117-0.295-0.147-0.597-0.189-0.911
					c-0.074-0.546,0.517-0.969,0.589-1.516c0.101-0.762-0.784-1.248-1.527-1.44c-0.744-0.193-1.652-0.466-1.803-1.219
					c-0.051-0.257,0.003-0.526-0.048-0.783c-0.104-0.518-0.631-0.865-1.155-0.932c-0.524-0.067-1.049,0.084-1.556,0.233
					c-0.345,0.294-0.192,0.877,0.117,1.209c0.309,0.332,0.737,0.55,0.991,0.926c0.142,0.21-0.557,4.765-0.213,4.646
					c-1.629,0.562-5.106,0.645-4.405,3.079c0.247,0.859,0.748,1.754,0.43,2.59c1.145-0.322,2.294-0.631,3.446-0.926
					c0.281,0.37-0.18,0.875-0.63,0.989s-0.984,0.097-1.29,0.446c-0.215,0.245-0.243,0.597-0.261,0.922
					c-0.059,1.058-0.118,2.117-0.177,3.175c-0.064,1.148-0.218,2.464-1.169,3.111c-1.082,0.736-2.611,0.15-3.52-0.791
					c-0.218-0.226-0.458-0.49-0.771-0.491c-0.284-0.001-0.515,0.215-0.726,0.404c-1.116,0.997-2.676,1.598-4.132,1.253
					c-1.457-0.344-2.661-1.809-2.416-3.286c0.094-0.568,0.34-1.263-0.099-1.636c-0.258-0.219-0.699-0.246-0.815-0.564
					c-0.146-0.4,0.365-0.688,0.707-0.942c0.617-0.458,0.838-1.377,0.497-2.066c-0.175-0.353-3.35-1.657-3.843-1.417
					c-1.131,0.551-0.932,3.584-1.072,4.753c-0.054,0.452-0.137,0.955-0.503,1.227c-0.57,0.424-1.393-0.017-1.835-0.573
					c-0.442-0.556-0.765-1.262-1.405-1.571c-0.372-0.18-0.799-0.195-1.212-0.207c-0.836-0.025-1.776-0.011-2.366,0.583
					c-0.276,0.278-0.437,0.652-0.713,0.93c-0.629,0.635-1.677,0.604-2.518,0.303c-0.841-0.301-1.598-0.821-2.461-1.051
					c-1.836-0.49-3.936,0.38-5.625-0.492c-0.816-0.421-1.405-1.587-0.758-2.24c0.558-0.564,1.768-0.467,1.917-1.246
					c0.142-0.746-1.687-1.824-2.009-2.477c-0.255-0.517,0.302-1.479-0.287-2.437C163.055,171.104,161.888,170.865,161.368,170.027z"
					/>
				<path style="opacity:0.4;fill:#407BFF;enable-background:new    ;" d="M269.286,295.867c1.044-0.7,2.217-1.103,2.58-2.54
					c0.495-1.957-0.559-2.79-2.505-2.065c-0.173,0.064-0.362,0.132-0.538,0.076c-0.562-0.179-0.164-1.01,0.203-1.473
					c0.856-1.082,0.915-2.534,0.471-3.791c-0.105-0.299,5.374-0.424,5.977-0.094c2.112,1.156,0.736,5.66,3.187,4.901
					c0.166-1.713,0.075-3.486,0.079-5.218c0.835-0.032,1.669-0.064,2.504-0.095c-0.622,0.024-0.252-3.17-0.041-3.52
					c0.822-1.356,3.361-0.779,3.135-3.342c-0.286-3.243-6.566-3.902-5.814-0.181c-1.913,0.732-4.15,0.896-6.196,0.836
					c-0.047,0.659-0.087,1.324-0.128,1.983c-0.476,0.294-1.102,0.343-1.619,0.121c-0.993-1.665-0.841-3.945,0.361-5.47
					c-0.718-1.099,0.157-2.512,0.995-3.525c-2.297-1.682-1.637-5.953,1.062-6.863c2.705-0.91,5.812,2.096,4.998,4.825
					c1.318,0.152,2.581,0.73,3.556,1.627c0.143-3.448,2.741-6.656,6.086-7.506c1.682-0.432,3.677-0.407,4.823-1.713
					c0.512-0.578,0.765-1.342,1.238-1.952c1.075-1.363,2.997-1.642,4.732-1.738c1.161-0.06,2.323-0.081,3.486-0.064
					c-4.853,20.182-16.678,37.676-32.808,49.758c-0.613,0.024-1.246,0.015-1.777-0.265c-0.985-0.529-1.291-1.773-1.492-2.875
					c-0.793-4.287-0.348-6.957,3.141-9.623C269.081,296.008,269.183,295.936,269.286,295.867z"/>
			</g>
			<g>
				<path style="opacity:0.7;fill:#FFFFFF;enable-background:new    ;" d="M190.147,302.474c-1.65,0.16-2.393,2.188-2.729,3.841
					c-0.499,2.482-1.004,4.965-1.503,7.447c3.025,1.418,2.773,5.106,1.365,7.608c-33.963-11.96-58.412-44.212-58.682-82.29
					c-0.021-2.918,0.101-5.798,0.358-8.64c0.071-0.046,0.148-0.085,0.225-0.124c2.395-1.132,4.285,0.916,6.091,2.072
					c0.408,0.261,5.674,2.819,5.743,2.108c-0.222,2.299-0.098,4.63,0.367,6.893c0.035,0.171,0.083,0.359,0.227,0.458
					c0.343,0.235,0.731-0.238,0.856-0.635c0.32-1.013,0.457-2.082,0.837-3.074c0.38-0.992,1.075-1.945,2.088-2.264
					c1.019-0.321,2.129,0.057,3.187-0.091c1.291-0.18,2.367-1.139,3.019-2.267c0.629-1.089,0.921-2.349,1.238-3.547
					c1.242,2.757,4.391,1.057,6.241,3.285c0.594,0.716,1.309,1.748,2.172,1.401c0.821-0.33,0.915-1.732,1.793-1.841
					c0.614-0.076,1.064,0.599,1.155,1.211c0.091,0.612-0.008,1.267,0.251,1.83c0.363,0.791,1.466,1.129,2.21,0.679
					c0.669-0.405,0.927-1.226,1.345-1.887c0.418-0.661,1.314-1.217,1.944-0.753c0.148,0.109,0.259,0.263,0.344,0.426
					c0.61,1.174-0.081,2.599-0.898,3.64c-0.817,1.041-1.825,2.082-1.911,3.402c0.474,0.339,1.225,0.182,1.523-0.32
					c0.104-0.174,0.161-0.384,0.316-0.515c0.337-0.284,0.837-0.014,1.208,0.226c1.744,1.127,3.948,1.518,5.973,1.059
					c0.151-2.678,0.302-5.357,0.453-8.035c0.607-0.021,0.971-0.059,1.201-0.682c2.009,1.956,3.85,4.063,6.065,5.827
					c0.265,0.211,0.549,0.442,0.639,0.769c0.094,0.341-0.048,0.702-0.027,1.056c0.071,1.169,1.638,1.476,2.809,1.445
					c0.34,0.189,0.144,0.747-0.195,0.936c-0.34,0.189-0.765,0.207-1.072,0.446c-0.459,0.357-0.467,1.054-0.299,1.611
					c0.582,1.935,2.948,3.114,4.844,2.414c0.226-0.083,0.454-0.197,0.588-0.397c0.297-0.438,0.016-1.017-0.038-1.543
					c-0.213-2.075,2.026-1.592,3.058-1.018c1.4,0.778,2.185,2.842,2.446,4.318c0.306,1.725,1.609,13.172,5.429,11.59
					c0.358-0.149,0.617-0.471,0.799-0.814c0.552-1.039,0.513-2.292,0.917-3.396c0.404-1.105,1.662-2.112,2.69-1.54
					c0.412,0.23,0.675,0.661,1.069,0.921c1.098,0.723,2.66-0.145,3.857,0.4c0.55,0.251,0.931,0.763,1.43,1.105
					c0.499,0.341,1.282,0.451,1.633-0.041c0.394-0.551-0.068-1.381,0.255-1.976c0.339-0.625,1.393-0.495,1.751,0.119
					c0.358,0.614,0.142,1.427-0.299,1.984c-0.231,0.292-0.528,0.559-0.605,0.923c-0.137,0.652,0.481,1.194,1.029,1.574
					c0.871,0.603,1.743,1.206,2.614,1.809c-0.057,0.603-0.645,1.024-1.228,1.187c-0.583,0.164-1.207,0.157-1.786,0.349
					c-2.789,0.93-2.778,5.07-6.438,4.257c0.218-1.099-0.955-2.219-2.042-1.951c-1.342,0.331-2.208,2.242-3.537,1.864
					c-0.462-0.131-0.814-0.534-1.282-0.644c-1.291-0.307-1.923,1.678-2.286,2.523c-1.204,2.802,0.67,3.14,0.594,5.641
					c-0.035,1.144-0.882,2.11-1.092,3.236c-0.193,1.036,0.17,2.107,0.029,3.152c-0.386,2.871-4.185,1.13-5.868,0.797
					c0.915,1.627-0.446,3.605-1.929,4.733c-2.279,1.732-1.889,1.583-2.173,4.083c-0.075,0.66-0.454,1.329-1.08,1.552
					c-1.09,0.387-2.151-0.691-3.302-0.803c-0.552-0.054-1.113,0.12-1.66,0.027c-1.436-0.242-1.937-2.004-2.874-3.12
					c-0.819-0.976-2.139-1.509-3.406-1.375c-0.103,0.737-0.106,1.488-0.009,2.226c0.805,0.497,1.61,0.994,2.414,1.491
					c0.712,0.439,1.449,0.904,1.889,1.615c0.247,0.398,0.399,0.872,0.756,1.175c0.71,0.603,1.774,0.239,2.703,0.179
					c2.254-0.147,5.923,1.258,8.094,1.971c2.314,0.76,3.124,2.397,5.258,3.13c0.376,0.129,0.461,0.674,0.239,1.005
					c-0.222,0.33-0.632,0.478-1.024,0.547c-0.909,0.161-1.871,0.002-2.681-0.441c1.062,0.582-2.041,3.144-2.603,3.271
					c-0.92,0.207-2.158-0.486-3.094-0.534c-2.322-0.118-3.668,0.344-2.143,2.869c0.583,0.966,1.263,2.196,0.623,3.125
					c-0.615-0.256-1.355,0.114-1.7,0.684c-0.344,0.57-0.37,1.276-0.294,1.938c0.051,0.446,0.159,0.917,0.485,1.225
					c0.174,0.165,0.404,0.276,0.536,0.475c0.432,0.65-0.456,1.363-1.185,1.643"/>
				<path style="opacity:0.7;fill:#FFFFFF;enable-background:new    ;" d="M267.051,201.805c-0.723-0.541-1.75-0.105-2.503,0.394
					c-0.753,0.499-1.637,1.081-2.486,0.774c-0.016-1.047-0.033-2.094-0.049-3.142c-0.003-0.197-0.016-0.416-0.158-0.552
					c-0.145-0.138-0.368-0.137-0.568-0.128c-0.674,0.031-1.348,0.062-2.022,0.092c-0.562,0.618,1.004,1.373,0.781,2.178
					c-0.098,0.356-0.501,0.511-0.826,0.685c-2.775,1.489-1.015,4.585,0.243,6.267c1.46,1.952,1.362,4.612,1.205,7.047
					c-0.058,0.865-0.161,1.834-0.829,2.401c-0.648,0.56-1.604,0.521-2.435,0.766c-1.437,0.417-2.454,1.689-3.798,2.351
					c-4.698,2.312-7.795-2.717-6.265-6.678c0.793-2.053,1.133-1.664,0.679-3.858c-0.189-0.915,0.114-1.995-0.838-2.619
					c-1.009-0.662-2.465,0.049-2.546,1.278c-0.079,1.206-0.355,2.352,0.14,3.485c-1.39-0.516-3.044-0.188-4.563-0.189
					c0.217,1.4-1.589,2.632-2.814,1.921c0.041-0.686-0.145-1.63-0.832-1.624c-0.2,0.002-0.387,0.098-0.559,0.199
					c-0.721,0.425-1.358,0.991-2.117,1.346c-1.167,0.544-4.522,0.286-5.046,1.861c-0.092,0.277-0.091,0.579-0.2,0.85
					c-0.233,0.576-0.965,0.857-1.558,0.673c-0.594-0.184-1.02-0.753-1.135-1.364c-0.077-0.407-0.034-0.833-0.14-1.234
					c-0.565-2.127-2.749-0.462-3.724-1.035c-0.468-0.275-2.396-3.901-2.438-4.34c-0.928,1.155-2.316,2.129-3.859,2.057
					c-1.69-0.079-2.411-1.423-2.791-3.064c-0.401-1.734-0.422-3.799-0.801-5.055c-0.204-0.675-0.378-1.494,0.099-2.012
					c0.597-0.648,1.868-0.4,2.301-1.168c0.137-0.244,0.149-0.535,0.196-0.811c0.278-1.617,2.09-2.788,3.678-2.377
					c0.519-0.34,0.528-1.078,0.558-1.698c0.03-0.62,0.293-1.387,0.912-1.431c0.712-0.051,1.035,0.881,1.023,1.594
					c-0.012,0.727-0.125,1.453-0.336,2.15c-0.157,0.52-0.37,1.078-0.185,1.589c0.139,0.386,0.48,0.66,0.813,0.9
					c0.803,0.578,1.717,1.099,2.707,1.092c0.99-0.007,2.032-0.726,2.071-1.716c0.01-0.266-0.049-0.536,0.013-0.794
					c0.16-0.664,1.007-0.893,1.683-0.801c0.676,0.091,1.351,0.374,2.019,0.238c0.669-0.136,1.225-1.007,0.751-1.498
					c0.899-0.315,2.184-0.472,2.538,0.412c0.114,0.284,0.082,0.602,0.088,0.907c0.035,1.888,2.381,4.612,3.982,2.638
					c1.053-1.298-0.76-3.658,1.129-4.726c0.903-0.51,2.128-0.06,3.022-0.587c0.279-0.331-0.2-0.779-0.619-0.889
					c-1.324-0.348-2.819,0.058-3.785,1.027c-0.535-1.1,0.292-2.712-0.642-3.502c-0.922-0.78-2.695,0.138-3.386-0.852
					c-0.198-0.283-0.229-0.647-0.254-0.993c-0.122-1.704,0.403-4.831-2.004-5.117c-0.292-0.035-0.596-0.012-0.869-0.119
					c-0.831-0.323-0.824-1.486-0.67-2.364c0.904-0.389,1.874,0.281,2.744,0.742c0.87,0.461,2.251,0.538,2.547-0.401
					c0.212-0.672-0.315-1.513,0.13-2.06c0.206-0.253,0.571-0.35,0.746-0.626c0.423-0.668-0.605-1.338-0.788-2.107
					c-0.252-1.06,1.165-1.741,2.251-1.66c1.087,0.081,2.303,0.446,3.18-0.201c0.278-0.205,0.484-0.492,0.742-0.721
					c0.796-0.705,1.954-0.769,3.017-0.796c1.696-0.044-2.163-7.02-2.201-7.445c-0.292-3.236,3.025-4.958,4.926-7.016
					c0.993-1.085,1.72-2.368,2.447-3.651c28.577,11.308,49.709,37.55,54.502,67.926c0.215,1.362,0.471,2.77,0.48,4.128
					c-2.005-0.566-5.126-2.067-7.162-0.847c-2.586,1.549-0.715,5.387-3.695,6.521c-0.738-0.01-0.525-1.225-0.953-1.827
					c-0.238-0.335-0.673-0.447-1.039-0.632c-0.366-0.185-0.721-0.58-0.572-0.963c-0.645-0.507-1.534,0.14-2.134,0.7
					c-0.704,0.659-1.51,1.265-2.454,1.463c-1.967,0.413-3.784-0.997-5.556-1.946c-1.464-0.785-3.061-1.285-4.647-1.78
					c0.767,0.045,1.155-1.016,0.86-1.725c-0.295-0.709-0.964-1.18-1.453-1.773c-0.833-1.012-0.193-2.189-0.89-3.264
					c-0.862-1.337-2.521-2.274-2.661-3.854c-0.175-1.916,1.947-3.138,3.73-3.848c-0.945-2.162-3.505-3.648-3.503-6.011
					c0-0.91,0.407-1.759,0.801-2.575c0.808-1.671,1.616-3.342,2.424-5.007c0.337-0.693,0.68-1.457,0.475-2.198
					c-0.232-0.876-1.126-1.38-1.93-1.781c-0.875-0.439-1.749-0.878-2.624-1.318c-0.363-0.178-0.758-0.362-1.151-0.295
					c-0.426,0.074-0.739,0.412-1.002,0.756c-1.426,1.85-2.107,4.256-1.871,6.585c-3.102-0.462-6.148-1.306-9.042-2.518
					c0.322,1.792-0.418,3.771,0.137,5.449"/>
				<path style="opacity:0.7;fill:#FFFFFF;enable-background:new    ;" d="M194.39,216.47c-0.835,0.599-1.505,1.514-1.556,2.541
					c-0.032,0.633,0.17,1.254,0.211,1.886c0.041,0.632-0.138,1.355-0.693,1.66c-0.709,0.39-1.564-0.095-2.223-0.564
					c-0.536-0.381-1.113-0.822-1.244-1.466c-0.096-0.471,0.071-0.958,0.029-1.437c-0.083-0.948-0.922-1.615-1.592-2.291
					c-0.67-0.676-1.239-1.74-0.711-2.531c0.348-0.521,1.052-0.703,1.425-1.206c0.91-1.227-0.735-2.945,0.018-4.062
					c0.893-1.324,3.106-0.646,4.331,0.023c1.24,0.677,2.141,1.933,3.028,2.996C197.92,215.025,197.044,214.565,194.39,216.47z"/>
				<path style="opacity:0.7;fill:#FFFFFF;enable-background:new    ;" d="M161.368,170.027
					c14.703-12.755,35.223-19.313,54.486-19.45c0.536-0.004,1.072-0.001,1.601,0.001c2.542,2.866,3.89,8.294-1.146,9.308
					c-0.002,0.549,0.314,0.686,0.592,1.125c0.435,0.69-0.291,1.559-1.045,1.87c-2.473,1.021-5.476,0.962-5.083,4.312
					c0.469,3.995,2.356,1.453,4.43,2.899c0.3,0.209,0.476,0.55,0.717,0.826c0.882,1.013,2.429,1.005,3.769,0.916
					c-0.336-0.785,0.186-1.812,1.018-2.004c0.314-0.072,0.666-0.048,0.927-0.236c0.56-0.405,0.136-1.363-0.503-1.626
					c-0.64-0.263-1.375-0.154-2.039-0.347c-0.664-0.193-1.27-0.98-0.867-1.543c0.168-0.235,0.461-0.344,0.742-0.408
					c1.183-0.267,2.489,0.096,3.365,0.934c0.221-0.636,0.908-1.076,1.578-1.01c0.67,0.065,1.259,0.63,1.353,1.296
					c0.137,0.975-0.532,2.302,0.34,2.758c-0.774-0.203-1.652,0.074-2.17,0.685c-2.038,2.402-0.825,8.245-6.197,7.265
					c-0.863-0.157-1.688-0.525-2.564-0.571c-0.876-0.047-1.88,0.361-2.111,1.207c-1.129-1.637-4.023-1.288-4.986-3.028
					c-0.453-0.819-0.247-1.945,0.467-2.551c0.119-0.101,0.255-0.196,0.312-0.34c0.117-0.295-0.147-0.597-0.189-0.911
					c-0.074-0.546,0.517-0.969,0.589-1.516c0.101-0.762-0.784-1.248-1.527-1.44c-0.744-0.193-1.652-0.466-1.803-1.219
					c-0.051-0.257,0.003-0.526-0.048-0.783c-0.104-0.518-0.631-0.865-1.155-0.932c-0.524-0.067-1.049,0.084-1.556,0.233
					c-0.345,0.294-0.192,0.877,0.117,1.209c0.309,0.332,0.737,0.55,0.991,0.926c0.142,0.21-0.557,4.765-0.213,4.646
					c-1.629,0.562-5.106,0.645-4.405,3.079c0.247,0.859,0.748,1.754,0.43,2.59c1.145-0.322,2.294-0.631,3.446-0.926
					c0.281,0.37-0.18,0.875-0.63,0.989s-0.984,0.097-1.29,0.446c-0.215,0.245-0.243,0.597-0.261,0.922
					c-0.059,1.058-0.118,2.117-0.177,3.175c-0.064,1.148-0.218,2.464-1.169,3.111c-1.082,0.736-2.611,0.15-3.52-0.791
					c-0.218-0.226-0.458-0.49-0.771-0.491c-0.284-0.001-0.515,0.215-0.726,0.404c-1.116,0.997-2.676,1.598-4.132,1.253
					c-1.457-0.344-2.661-1.809-2.416-3.286c0.094-0.568,0.34-1.263-0.099-1.636c-0.258-0.219-0.699-0.246-0.815-0.564
					c-0.146-0.4,0.365-0.688,0.707-0.942c0.617-0.458,0.838-1.377,0.497-2.066c-0.175-0.353-3.35-1.657-3.843-1.417
					c-1.131,0.551-0.932,3.584-1.072,4.753c-0.054,0.452-0.137,0.955-0.503,1.227c-0.57,0.424-1.393-0.017-1.835-0.573
					c-0.442-0.556-0.765-1.262-1.405-1.571c-0.372-0.18-0.799-0.195-1.212-0.207c-0.836-0.025-1.776-0.011-2.366,0.583
					c-0.276,0.278-0.437,0.652-0.713,0.93c-0.629,0.635-1.677,0.604-2.518,0.303c-0.841-0.301-1.598-0.821-2.461-1.051
					c-1.836-0.49-3.936,0.38-5.625-0.492c-0.816-0.421-1.405-1.587-0.758-2.24c0.558-0.564,1.768-0.467,1.917-1.246
					c0.142-0.746-1.687-1.824-2.009-2.477c-0.255-0.517,0.302-1.479-0.287-2.437C163.055,171.104,161.888,170.865,161.368,170.027z"
					/>
				<path style="opacity:0.7;fill:#FFFFFF;enable-background:new    ;" d="M269.286,295.867c1.044-0.7,2.217-1.103,2.58-2.54
					c0.495-1.957-0.559-2.79-2.505-2.065c-0.173,0.064-0.362,0.132-0.538,0.076c-0.562-0.179-0.164-1.01,0.203-1.473
					c0.856-1.082,0.915-2.534,0.471-3.791c-0.105-0.299,5.374-0.424,5.977-0.094c2.112,1.156,0.736,5.66,3.187,4.901
					c0.166-1.713,0.075-3.486,0.079-5.218c0.835-0.032,1.669-0.064,2.504-0.095c-0.622,0.024-0.252-3.17-0.041-3.52
					c0.822-1.356,3.361-0.779,3.135-3.342c-0.286-3.243-6.566-3.902-5.814-0.181c-1.913,0.732-4.15,0.896-6.196,0.836
					c-0.047,0.659-0.087,1.324-0.128,1.983c-0.476,0.294-1.102,0.343-1.619,0.121c-0.993-1.665-0.841-3.945,0.361-5.47
					c-0.718-1.099,0.157-2.512,0.995-3.525c-2.297-1.682-1.637-5.953,1.062-6.863c2.705-0.91,5.812,2.096,4.998,4.825
					c1.318,0.152,2.581,0.73,3.556,1.627c0.143-3.448,2.741-6.656,6.086-7.506c1.682-0.432,3.677-0.407,4.823-1.713
					c0.512-0.578,0.765-1.342,1.238-1.952c1.075-1.363,2.997-1.642,4.732-1.738c1.161-0.06,2.323-0.081,3.486-0.064
					c-4.853,20.182-16.678,37.676-32.808,49.758c-0.613,0.024-1.246,0.015-1.777-0.265c-0.985-0.529-1.291-1.773-1.492-2.875
					c-0.793-4.287-0.348-6.957,3.141-9.623C269.081,296.008,269.183,295.936,269.286,295.867z"/>
			</g>
		</g>
		<g style="opacity:0.7;enable-background:new    ;">
			<path style="fill:#FFFFFF;" d="M216.59,333.646c-3.029,0-6.1-0.146-9.128-0.434c-1.814-0.173-3.642-0.4-5.433-0.673
				c-0.303-0.046-0.511-0.329-0.465-0.632c0.046-0.303,0.326-0.514,0.632-0.465c1.771,0.27,3.578,0.493,5.371,0.664
				c3.691,0.353,7.436,0.488,11.115,0.407c0.307-0.013,0.56,0.237,0.567,0.543c0.007,0.307-0.236,0.56-0.543,0.567
				C218.002,333.638,217.296,333.646,216.59,333.646z M222.018,333.491c-0.291,0-0.536-0.228-0.553-0.522
				c-0.018-0.307,0.216-0.569,0.522-0.586c1.836-0.106,3.683-0.268,5.491-0.479c0.317-0.03,0.58,0.184,0.615,0.488
				c0.036,0.303-0.182,0.579-0.486,0.615c-1.829,0.213-3.698,0.376-5.556,0.483C222.039,333.491,222.028,333.491,222.018,333.491z
				 M191.272,330.237c-0.049,0-0.098-0.007-0.147-0.02c-0.719-0.197-1.434-0.403-2.145-0.617c-0.293-0.088-0.459-0.396-0.371-0.69
				c0.088-0.293,0.394-0.464,0.691-0.371c0.702,0.21,1.409,0.414,2.119,0.609c0.295,0.081,0.469,0.387,0.388,0.682
				C191.739,330.075,191.516,330.237,191.272,330.237z M243.807,329.633c-0.238,0-0.458-0.155-0.531-0.394
				c-0.089-0.294,0.077-0.602,0.37-0.691c0.702-0.212,1.401-0.432,2.097-0.66c0.292-0.099,0.604,0.063,0.7,0.353
				c0.095,0.291-0.063,0.604-0.354,0.7c-0.704,0.232-1.411,0.454-2.122,0.668C243.914,329.626,243.86,329.633,243.807,329.633z
				 M256.222,324.905c-0.21,0-0.41-0.119-0.504-0.322c-0.129-0.277-0.008-0.607,0.27-0.736c4.985-2.314,9.803-5.085,14.318-8.239
				c0.251-0.174,0.596-0.114,0.772,0.138c0.175,0.251,0.114,0.597-0.138,0.772c-4.568,3.19-9.442,5.994-14.486,8.334
				C256.379,324.888,256.3,324.905,256.222,324.905z M173.71,323.453c-0.084,0-0.169-0.02-0.25-0.06
				c-1.658-0.841-3.308-1.739-4.905-2.67c-0.265-0.154-0.354-0.494-0.199-0.758c0.154-0.263,0.495-0.355,0.758-0.199
				c1.578,0.921,3.209,1.808,4.847,2.638c0.273,0.139,0.382,0.472,0.244,0.745C174.108,323.342,173.913,323.453,173.71,323.453z
				 M165.986,319.069c-0.101,0-0.204-0.028-0.296-0.086c-4.702-2.97-9.174-6.381-13.29-10.135c-0.226-0.206-0.243-0.557-0.036-0.783
				c0.206-0.227,0.558-0.243,0.784-0.036c4.069,3.71,8.488,7.08,13.136,10.016c0.259,0.164,0.336,0.506,0.173,0.765
				C166.35,318.978,166.17,319.069,165.986,319.069z M273.317,314.668c-0.168,0-0.335-0.076-0.444-0.221
				c-0.184-0.245-0.134-0.593,0.111-0.777c1.462-1.099,2.911-2.257,4.307-3.44c0.234-0.196,0.584-0.17,0.782,0.065
				c0.198,0.234,0.169,0.584-0.065,0.782c-1.413,1.196-2.879,2.367-4.358,3.478C273.55,314.632,273.433,314.668,273.317,314.668z
				 M145.03,301.059c-0.155,0-0.309-0.065-0.419-0.191c-0.488-0.561-0.969-1.129-1.444-1.702c-0.195-0.236-0.162-0.586,0.074-0.781
				c0.236-0.196,0.585-0.163,0.781,0.073c0.469,0.567,0.944,1.128,1.426,1.682c0.201,0.232,0.177,0.582-0.055,0.782
				C145.289,301.015,145.159,301.059,145.03,301.059z M289.34,299.401c-0.124,0-0.25-0.042-0.354-0.128
				c-0.236-0.196-0.268-0.546-0.072-0.781c0.47-0.565,0.933-1.138,1.39-1.715c0.19-0.238,0.539-0.282,0.779-0.09
				c0.24,0.19,0.281,0.538,0.09,0.779c-0.463,0.584-0.932,1.162-1.407,1.734C289.658,299.332,289.5,299.401,289.34,299.401z
				 M297.099,288.595c-0.099,0-0.2-0.026-0.29-0.082c-0.261-0.16-0.342-0.503-0.181-0.764c2.887-4.685,5.373-9.657,7.388-14.774
				c0.113-0.285,0.436-0.427,0.719-0.312c0.285,0.112,0.425,0.434,0.313,0.719c-2.039,5.177-4.554,10.207-7.475,14.95
				C297.467,288.501,297.285,288.595,297.099,288.595z M134.156,285.694c-0.193,0-0.381-0.101-0.483-0.281
				c-0.913-1.607-1.791-3.263-2.611-4.924c-0.136-0.275-0.023-0.608,0.252-0.743c0.276-0.136,0.607-0.022,0.743,0.251
				c0.81,1.642,1.678,3.28,2.58,4.867c0.152,0.266,0.059,0.604-0.208,0.756C134.343,285.671,134.249,285.694,134.156,285.694z
				 M130.144,277.794c-0.212,0-0.414-0.121-0.506-0.327c-2.288-5.081-4.135-10.391-5.492-15.781
				c-0.075-0.297,0.106-0.599,0.402-0.674c0.298-0.069,0.599,0.106,0.673,0.403c1.34,5.328,3.166,10.575,5.428,15.597
				c0.126,0.279,0.001,0.608-0.278,0.733C130.297,277.779,130.219,277.794,130.144,277.794z M305.695,270.615
				c-0.061,0-0.124-0.01-0.185-0.032c-0.289-0.102-0.44-0.419-0.339-0.708c0.61-1.725,1.176-3.49,1.683-5.248
				c0.085-0.293,0.392-0.466,0.687-0.379c0.294,0.085,0.464,0.392,0.379,0.687c-0.513,1.778-1.086,3.564-1.702,5.31
				C306.138,270.473,305.924,270.615,305.695,270.615z M122.618,251.216c-0.275,0-0.514-0.204-0.55-0.484
				c-0.095-0.737-0.182-1.474-0.259-2.214c-0.033-0.305,0.188-0.578,0.493-0.61c0.302-0.037,0.577,0.188,0.609,0.493
				c0.077,0.731,0.163,1.462,0.257,2.19c0.039,0.303-0.175,0.582-0.479,0.621C122.665,251.215,122.641,251.216,122.618,251.216z
				 M310.574,249.032c-0.02,0-0.039-0.001-0.059-0.003c-0.304-0.033-0.525-0.306-0.493-0.61c0.037-0.35,0.073-0.701,0.106-1.052
				c0.036-0.381,0.07-0.763,0.102-1.145c0.025-0.304,0.292-0.524,0.599-0.506c0.305,0.025,0.532,0.294,0.506,0.599
				c-0.032,0.385-0.066,0.77-0.103,1.156c-0.034,0.355-0.069,0.711-0.107,1.065C311.094,248.821,310.854,249.032,310.574,249.032z
				 M311.058,235.74c-0.297,0-0.544-0.236-0.554-0.536c-0.183-5.504-0.857-11.019-2.003-16.393c-0.063-0.3,0.127-0.595,0.427-0.659
				c0.293-0.062,0.594,0.128,0.658,0.427c1.159,5.437,1.841,11.018,2.026,16.588c0.01,0.307-0.23,0.562-0.536,0.573
				C311.07,235.74,311.065,235.74,311.058,235.74z M122.08,232.399c-0.013,0-0.027,0-0.039-0.001
				c-0.306-0.022-0.536-0.287-0.514-0.593c0.055-0.786,0.121-1.575,0.196-2.365c0.101-1.067,0.22-2.129,0.355-3.184
				c0.039-0.304,0.317-0.52,0.621-0.48c0.304,0.039,0.519,0.317,0.48,0.621c-0.134,1.044-0.252,2.093-0.352,3.148
				c-0.074,0.78-0.139,1.56-0.194,2.338C122.612,232.176,122.369,232.399,122.08,232.399z M123.111,223.59
				c-0.03,0-0.06-0.002-0.09-0.008c-0.302-0.05-0.507-0.335-0.458-0.637c0.904-5.508,2.297-10.954,4.141-16.188
				c0.101-0.289,0.42-0.439,0.707-0.339c0.289,0.102,0.441,0.419,0.339,0.707c-1.823,5.173-3.2,10.556-4.093,15.999
				C123.613,223.397,123.378,223.59,123.111,223.59z M308.293,216.011c-0.248,0-0.474-0.169-0.537-0.42
				c-0.443-1.768-0.946-3.551-1.494-5.296c-0.091-0.292,0.071-0.604,0.363-0.695c0.293-0.092,0.604,0.071,0.695,0.363
				c0.555,1.767,1.063,3.57,1.511,5.359c0.075,0.297-0.106,0.598-0.403,0.673C308.383,216.006,308.338,216.011,308.293,216.011z
				 M131.523,197.272c-0.082,0-0.166-0.018-0.244-0.057c-0.275-0.135-0.388-0.467-0.253-0.743c0.33-0.67,0.666-1.336,1.011-1.997
				c0.141-0.271,0.475-0.378,0.748-0.235c0.271,0.142,0.377,0.477,0.235,0.749c-0.341,0.653-0.674,1.31-0.999,1.973
				C131.925,197.158,131.727,197.272,131.523,197.272z M300.435,195.334c-0.2,0-0.393-0.108-0.492-0.298
				c-0.34-0.651-0.686-1.298-1.041-1.94c-0.148-0.269-0.05-0.606,0.218-0.754c0.269-0.147,0.606-0.05,0.754,0.218
				c0.358,0.65,0.709,1.304,1.053,1.964c0.141,0.271,0.036,0.606-0.236,0.748C300.609,195.314,300.521,195.334,300.435,195.334z
				 M293.478,184.006c-0.173,0-0.343-0.081-0.452-0.232c-3.199-4.475-6.813-8.697-10.744-12.549
				c-0.219-0.214-0.222-0.566-0.008-0.784c0.214-0.219,0.565-0.223,0.784-0.008c3.976,3.897,7.633,8.168,10.869,12.695
				c0.178,0.25,0.121,0.596-0.128,0.774C293.702,183.973,293.59,184.006,293.478,184.006z M141.478,181.288
				c-0.118,0-0.237-0.037-0.338-0.115c-0.243-0.187-0.288-0.536-0.101-0.778c1.13-1.466,2.32-2.918,3.535-4.317
				c0.201-0.232,0.552-0.254,0.783-0.055c0.231,0.201,0.256,0.551,0.055,0.783c-1.201,1.383-2.377,2.818-3.494,4.267
				C141.809,181.213,141.645,181.288,141.478,181.288z M147.221,174.521c-0.135,0-0.271-0.049-0.378-0.149
				c-0.224-0.209-0.237-0.56-0.028-0.784c3.796-4.07,7.975-7.832,12.422-11.181c0.246-0.185,0.593-0.135,0.777,0.109
				c0.184,0.245,0.135,0.593-0.109,0.777c-4.396,3.31-8.527,7.028-12.278,11.051C147.518,174.462,147.37,174.521,147.221,174.521z
				 M280.254,169.097c-0.134,0-0.268-0.048-0.374-0.145c-1.349-1.233-2.755-2.444-4.178-3.599c-0.238-0.193-0.274-0.542-0.081-0.78
				c0.192-0.238,0.542-0.275,0.78-0.081c1.441,1.169,2.863,2.394,4.228,3.642c0.226,0.207,0.242,0.557,0.035,0.784
				C280.554,169.036,280.404,169.097,280.254,169.097z M168.799,157.264c-0.191,0-0.376-0.098-0.479-0.275
				c-0.154-0.264-0.065-0.604,0.199-0.759c0.641-0.375,1.287-0.742,1.937-1.102c0.268-0.148,0.605-0.051,0.754,0.217
				c0.148,0.268,0.051,0.605-0.217,0.754c-0.642,0.356-1.281,0.719-1.914,1.089C168.99,157.24,168.894,157.264,168.799,157.264z
				 M262.279,156.179c-0.091,0-0.183-0.022-0.268-0.069c-0.645-0.356-1.293-0.706-1.947-1.048c-0.271-0.142-0.376-0.477-0.234-0.748
				c0.141-0.271,0.476-0.377,0.749-0.234c0.661,0.346,1.318,0.699,1.97,1.06c0.267,0.148,0.365,0.486,0.217,0.754
				C262.663,156.075,262.474,156.179,262.279,156.179z M250.207,150.573c-0.066,0-0.132-0.011-0.197-0.036
				c-5.129-1.953-10.476-3.464-15.893-4.491c-0.301-0.057-0.498-0.347-0.441-0.648c0.057-0.301,0.342-0.501,0.648-0.441
				c5.48,1.039,10.89,2.568,16.08,4.544c0.287,0.109,0.43,0.43,0.321,0.715C250.641,150.437,250.43,150.573,250.207,150.573z
				 M185.909,149.431c-0.231,0-0.446-0.145-0.525-0.375c-0.099-0.29,0.055-0.605,0.346-0.704c1.753-0.6,3.543-1.153,5.321-1.645
				c0.292-0.08,0.6,0.09,0.683,0.387c0.082,0.295-0.092,0.601-0.387,0.683c-1.757,0.486-3.526,1.033-5.258,1.626
				C186.03,149.422,185.969,149.431,185.909,149.431z M194.419,146.963c-0.251,0-0.478-0.171-0.539-0.425
				c-0.072-0.298,0.112-0.597,0.41-0.669c5.407-1.296,10.969-2.117,16.532-2.441c0.316-0.014,0.569,0.216,0.586,0.521
				c0.018,0.306-0.216,0.568-0.521,0.586c-5.498,0.321-10.994,1.133-16.338,2.413C194.505,146.958,194.462,146.963,194.419,146.963z
				 M230.942,145.492c-0.028,0-0.056-0.002-0.085-0.007c-1.809-0.278-3.649-0.506-5.47-0.68c-0.305-0.029-0.529-0.299-0.499-0.604
				c0.029-0.305,0.292-0.533,0.604-0.499c1.842,0.175,3.704,0.406,5.534,0.687c0.302,0.047,0.51,0.33,0.464,0.633
				C231.448,145.296,231.212,145.492,230.942,145.492z M224.154,144.695c-0.015,0-0.03-0.001-0.046-0.002
				c-0.734-0.061-1.468-0.112-2.2-0.155c-0.306-0.018-0.539-0.281-0.521-0.586c0.018-0.306,0.283-0.542,0.586-0.521
				c0.741,0.043,1.483,0.095,2.226,0.156c0.305,0.026,0.533,0.293,0.508,0.599C224.682,144.476,224.44,144.695,224.154,144.695z"/>
		</g>
	</g>
</g>
<g id="Coins">
	<g>
		<g>
			
				<ellipse transform="matrix(0.9239 -0.3827 0.3827 0.9239 -70.4606 61.0157)" style="fill:#407BFF;" cx="118.143" cy="207.623" rx="32.355" ry="32.355"/>
			<g>
				
					<ellipse transform="matrix(0.7071 -0.7071 0.7071 0.7071 -112.2079 144.3515)" style="opacity:0.2;enable-background:new    ;" cx="118.144" cy="207.623" rx="27.48" ry="27.48"/>
				<path style="opacity:0.2;enable-background:new    ;" d="M137.93,188.551c-4.933-4.701-11.612-7.581-18.962-7.581
					c-15.171,0-27.479,12.299-27.479,27.479c0,7.35,2.888,14.029,7.59,18.962c-5.19-4.999-8.417-12.018-8.417-19.79
					c0-15.18,12.307-27.479,27.479-27.479C125.912,180.142,132.931,183.37,137.93,188.551z"/>
			</g>
			<g>
				<path style="opacity:0.2;enable-background:new    ;" d="M118.143,175.269c-17.869,0-32.354,14.484-32.354,32.354
					c0,17.87,14.484,32.354,32.354,32.354c17.87,0,32.354-14.484,32.354-32.354C150.497,189.753,136.013,175.269,118.143,175.269z
					 M118.143,238.214c-16.893,0-30.582-13.698-30.582-30.591c0-16.893,13.69-30.583,30.582-30.583
					c16.893,0,30.583,13.69,30.583,30.583C148.726,224.516,135.036,238.214,118.143,238.214z"/>
				<path style="opacity:0.2;enable-background:new    ;" d="M144.601,188.998c0.381,1.556,0.654,3.162,0.828,4.792
					c2.111,4.147,3.294,8.848,3.294,13.83c0,16.893-13.69,30.591-30.583,30.591c-5.256,0-10.205-1.324-14.526-3.667
					c-1.614-0.207-3.203-0.521-4.743-0.935c5.38,3.998,12.043,6.365,19.268,6.365c17.87,0,32.354-14.484,32.354-32.354
					C150.494,200.693,148.317,194.262,144.601,188.998z"/>
			</g>
			<g>
				<path style="fill:#407BFF;" d="M128.301,213.284l2.883,2.779c-2.223,2.639-5.626,4.063-9.621,4.063
					c-6.147,0-11.01-3.577-12.502-8.891h-3.96v-2.431h3.508c-0.035-0.382-0.035-0.764-0.035-1.181c0-0.416,0-0.799,0.035-1.181
					h-3.508v-2.431h3.96c1.493-5.314,6.355-8.891,12.502-8.891c3.994,0,7.398,1.424,9.621,4.064l-2.883,2.743
					c-1.771-1.91-3.959-2.848-6.494-2.848c-3.716,0-6.668,1.91-7.988,4.931h9.968v2.431h-10.627c-0.035,0.382-0.07,0.765-0.07,1.181
					c0,0.417,0.035,0.799,0.07,1.181h10.627v2.431h-9.968c1.32,3.021,4.272,4.931,7.988,4.931
					C124.342,216.166,126.531,215.229,128.301,213.284z"/>
			</g>
			<g style="opacity:0.2;">
				<path style="fill:#FFFFFF;" d="M128.301,213.284l2.883,2.779c-2.223,2.639-5.626,4.063-9.621,4.063
					c-6.147,0-11.01-3.577-12.502-8.891h-3.96v-2.431h3.508c-0.035-0.382-0.035-0.764-0.035-1.181c0-0.416,0-0.799,0.035-1.181
					h-3.508v-2.431h3.96c1.493-5.314,6.355-8.891,12.502-8.891c3.994,0,7.398,1.424,9.621,4.064l-2.883,2.743
					c-1.771-1.91-3.959-2.848-6.494-2.848c-3.716,0-6.668,1.91-7.988,4.931h9.968v2.431h-10.627c-0.035,0.382-0.07,0.765-0.07,1.181
					c0,0.417,0.035,0.799,0.07,1.181h10.627v2.431h-9.968c1.32,3.021,4.272,4.931,7.988,4.931
					C124.342,216.166,126.531,215.229,128.301,213.284z"/>
			</g>
		</g>
		
			<ellipse transform="matrix(0.3147 -0.9492 0.9492 0.3147 -116.1107 254.4209)" style="fill:none;stroke:#407BFF;stroke-linecap:round;stroke-linejoin:round;stroke-miterlimit:10;stroke-dasharray:5,3,15,10,2,15;" cx="118.143" cy="207.623" rx="37.57" ry="37.57"/>
	</g>
	<g>
		<g>
			<circle style="fill:#407BFF;" cx="301.539" cy="268.198" r="32.355"/>
			<g>
				
					<ellipse transform="matrix(0.7071 -0.7071 0.7071 0.7071 -101.3257 291.7738)" style="opacity:0.2;enable-background:new    ;" cx="301.539" cy="268.198" rx="27.48" ry="27.48"/>
				<path style="opacity:0.2;enable-background:new    ;" d="M321.326,249.127c-4.933-4.701-11.612-7.581-18.962-7.581
					c-15.171,0-27.479,12.299-27.479,27.479c0,7.35,2.888,14.029,7.59,18.962c-5.19-4.999-8.417-12.018-8.417-19.79
					c0-15.18,12.307-27.479,27.479-27.479C309.308,240.717,316.327,243.945,321.326,249.127z"/>
			</g>
			<g>
				<path style="opacity:0.2;enable-background:new    ;" d="M301.539,235.844c-17.87,0-32.354,14.484-32.354,32.354
					s14.484,32.354,32.354,32.354s32.354-14.484,32.354-32.354S319.408,235.844,301.539,235.844z M301.539,298.789
					c-16.893,0-30.583-13.698-30.583-30.591c0-16.893,13.69-30.583,30.583-30.583c16.893,0,30.583,13.69,30.583,30.583
					C332.121,285.091,318.431,298.789,301.539,298.789z"/>
				<path style="opacity:0.2;enable-background:new    ;" d="M327.996,249.574c0.381,1.556,0.654,3.162,0.828,4.792
					c2.11,4.147,3.294,8.848,3.294,13.83c0,16.893-13.69,30.591-30.583,30.591c-5.256,0-10.205-1.324-14.526-3.667
					c-1.614-0.207-3.203-0.521-4.743-0.935c5.38,3.998,12.043,6.365,19.268,6.365c17.87,0,32.354-14.484,32.354-32.354
					C333.889,261.269,331.712,254.838,327.996,249.574z"/>
			</g>
			<g>
				<path style="fill:#407BFF;" d="M303.188,280.632v3.889h-2.848v-3.855c-3.403-0.208-6.703-1.32-8.509-2.882l1.563-3.508
					c1.702,1.389,4.306,2.396,6.946,2.639v-6.946c-3.855-0.938-7.988-2.188-7.988-7.016c0-3.542,2.57-6.634,7.988-7.155v-3.925
					h2.848v3.855c2.57,0.139,5.175,0.903,7.051,2.119l-1.424,3.508c-1.84-1.077-3.786-1.667-5.626-1.875v7.015
					c3.855,0.938,8.058,2.153,8.058,6.981C311.246,277.02,308.641,280.076,303.188,280.632z M300.34,265.767v-6.182
					c-2.466,0.382-3.508,1.632-3.508,3.161C296.832,264.413,298.326,265.176,300.34,265.767z M306.8,273.79
					c0-1.702-1.528-2.501-3.612-3.091v6.147C305.724,276.464,306.8,275.283,306.8,273.79z"/>
			</g>
			<g style="opacity:0.2;">
				<path style="fill:#FFFFFF;" d="M303.188,280.632v3.889h-2.848v-3.855c-3.403-0.208-6.703-1.32-8.509-2.882l1.563-3.508
					c1.702,1.389,4.306,2.396,6.946,2.639v-6.946c-3.855-0.938-7.988-2.188-7.988-7.016c0-3.542,2.57-6.634,7.988-7.155v-3.925
					h2.848v3.855c2.57,0.139,5.175,0.903,7.051,2.119l-1.424,3.508c-1.84-1.077-3.786-1.667-5.626-1.875v7.015
					c3.855,0.938,8.058,2.153,8.058,6.981C311.246,277.02,308.641,280.076,303.188,280.632z M300.34,265.767v-6.182
					c-2.466,0.382-3.508,1.632-3.508,3.161C296.832,264.413,298.326,265.176,300.34,265.767z M306.8,273.79
					c0-1.702-1.528-2.501-3.612-3.091v6.147C305.724,276.464,306.8,275.283,306.8,273.79z"/>
			</g>
		</g>
		
			<ellipse transform="matrix(0.4601 -0.8879 0.8879 0.4601 -75.3279 412.5143)" style="fill:none;stroke:#407BFF;stroke-linecap:round;stroke-linejoin:round;stroke-miterlimit:10;stroke-dasharray:5,3,15,10,2,15;" cx="301.539" cy="268.198" rx="37.57" ry="37.57"/>
	</g>
	<g>
		<g>
			<circle style="fill:#407BFF;" cx="190.206" cy="336.492" r="32.355"/>
			<g>
				<circle style="opacity:0.2;enable-background:new    ;" cx="190.206" cy="336.492" r="27.48"/>
				<path style="opacity:0.2;enable-background:new    ;" d="M209.993,317.421c-4.933-4.701-11.612-7.582-18.962-7.582
					c-15.171,0-27.479,12.299-27.479,27.479c0,7.35,2.888,14.029,7.59,18.962c-5.19-4.999-8.417-12.018-8.417-19.79
					c0-15.18,12.307-27.479,27.479-27.479C197.975,309.012,204.994,312.24,209.993,317.421z"/>
			</g>
			<g>
				<path style="opacity:0.2;enable-background:new    ;" d="M190.206,304.138c-17.87,0-32.354,14.484-32.354,32.354
					c0,17.869,14.484,32.354,32.354,32.354s32.354-14.484,32.354-32.354C222.56,318.622,208.075,304.138,190.206,304.138z
					 M190.206,367.083c-16.893,0-30.583-13.698-30.583-30.591c0-16.893,13.69-30.583,30.583-30.583s30.582,13.69,30.582,30.583
					C220.788,353.385,207.098,367.083,190.206,367.083z"/>
				<path style="opacity:0.2;enable-background:new    ;" d="M216.663,317.868c0.381,1.556,0.654,3.162,0.828,4.792
					c2.11,4.147,3.294,8.848,3.294,13.83c0,16.893-13.69,30.591-30.583,30.591c-5.256,0-10.205-1.324-14.526-3.667
					c-1.614-0.207-3.203-0.522-4.743-0.935c5.38,3.998,12.043,6.365,19.268,6.365c17.87,0,32.354-14.484,32.354-32.354
					C222.556,329.563,220.38,323.132,216.663,317.868z"/>
			</g>
			<g>
				<path style="fill:#407BFF;" d="M193.626,337.812h5.766v2.431h-6.912v2.362h6.912v2.431h-6.912v3.612h-4.515v-3.612h-6.912
					v-2.431h6.912v-2.362h-6.912v-2.431h5.731l-9.412-13.476h4.793l8.161,11.67l8.162-11.67h4.549L193.626,337.812z"/>
			</g>
			<g style="opacity:0.2;">
				<path style="fill:#FFFFFF;" d="M193.626,337.812h5.766v2.431h-6.912v2.362h6.912v2.431h-6.912v3.612h-4.515v-3.612h-6.912
					v-2.431h6.912v-2.362h-6.912v-2.431h5.731l-9.412-13.476h4.793l8.161,11.67l8.162-11.67h4.549L193.626,337.812z"/>
			</g>
		</g>
		
			<path style="fill:none;stroke:#407BFF;stroke-linecap:round;stroke-linejoin:round;stroke-miterlimit:10;stroke-dasharray:5,3,15,10,2,15;" d="
			M193.764,299.091c20.656,1.965,35.807,20.303,33.842,40.959c-1.965,20.656-20.303,35.808-40.959,33.842
			c-20.656-1.965-35.808-20.303-33.842-40.96C154.77,312.277,173.108,297.126,193.764,299.091z"/>
	</g>
	<g>
		<g>
			<circle style="fill:#407BFF;" cx="235.51" cy="136.571" r="32.355"/>
			<g>
				<circle style="opacity:0.2;enable-background:new    ;" cx="235.511" cy="136.571" r="27.48"/>
				<path style="opacity:0.2;enable-background:new    ;" d="M255.297,117.5c-4.933-4.701-11.612-7.582-18.962-7.582
					c-15.171,0-27.479,12.299-27.479,27.479c0,7.35,2.888,14.029,7.59,18.962c-5.19-4.999-8.417-12.018-8.417-19.79
					c0-15.18,12.307-27.479,27.479-27.479C243.279,109.09,250.298,112.318,255.297,117.5z"/>
			</g>
			<g>
				<path style="opacity:0.2;enable-background:new    ;" d="M235.51,104.217c-17.87,0-32.354,14.484-32.354,32.354
					s14.484,32.354,32.354,32.354c17.87,0,32.354-14.484,32.354-32.354S253.38,104.217,235.51,104.217z M235.51,167.162
					c-16.893,0-30.583-13.698-30.583-30.591s13.69-30.583,30.583-30.583c16.893,0,30.583,13.69,30.583,30.583
					S252.403,167.162,235.51,167.162z"/>
				<path style="opacity:0.2;enable-background:new    ;" d="M261.968,117.947c0.381,1.556,0.654,3.162,0.828,4.792
					c2.111,4.147,3.294,8.848,3.294,13.83c0,16.893-13.69,30.591-30.583,30.591c-5.256,0-10.205-1.324-14.526-3.667
					c-1.614-0.207-3.203-0.521-4.743-0.935c5.38,3.998,12.043,6.365,19.268,6.365c17.87,0,32.354-14.484,32.354-32.354
					C267.861,129.641,265.684,123.211,261.968,117.947z"/>
			</g>
			<g>
				<path style="fill:#407BFF;" d="M233.027,145.115h12.538v3.785h-20.7v-3.785h3.647v-6.946h-3.647v-2.848h3.647v-1.598
					c0-5.765,3.924-9.481,10.801-9.481c2.813,0,5.001,0.521,6.842,1.632l-1.424,3.682c-1.563-1.007-3.473-1.355-5.661-1.355
					c-3.959,0-6.044,1.91-6.044,5.487v1.632h8.787v2.848h-8.787V145.115z"/>
			</g>
			<g style="opacity:0.2;">
				<path style="fill:#FFFFFF;" d="M233.027,145.115h12.538v3.785h-20.7v-3.785h3.647v-6.946h-3.647v-2.848h3.647v-1.598
					c0-5.765,3.924-9.481,10.801-9.481c2.813,0,5.001,0.521,6.842,1.632l-1.424,3.682c-1.563-1.007-3.473-1.355-5.661-1.355
					c-3.959,0-6.044,1.91-6.044,5.487v1.632h8.787v2.848h-8.787V145.115z"/>
			</g>
		</g>
		
			<ellipse transform="matrix(0.7826 -0.6225 0.6225 0.7826 -33.8185 176.303)" style="fill:none;stroke:#407BFF;stroke-linecap:round;stroke-linejoin:round;stroke-miterlimit:10;stroke-dasharray:5,3,15,10,2,15;" cx="235.51" cy="136.571" rx="37.57" ry="37.57"/>
	</g>
</g>
<g id="Character">
	<g id="_x3C_Group_x3E__165_">
		<path style="fill:#263238;" d="M383.705,408.798h8.614c0.29,0.001,0.541,0.204,0.604,0.487l1.398,6.314
			c0.12,0.565-0.242,1.121-0.807,1.24c-0.076,0.016-0.153,0.024-0.23,0.023c-2.787-0.045-4.817-0.216-8.316-0.216
			c-2.156,0-8.659,0.225-11.636,0.225c-2.977,0-3.364-2.94-2.147-3.211c5.466-1.191,9.579-2.841,11.329-4.411
			C382.839,408.951,383.265,408.79,383.705,408.798z"/>
		<path style="fill:#263238;" d="M347.175,408.572h8.614c0.29,0.002,0.541,0.204,0.604,0.487l1.398,6.314
			c0.12,0.565-0.242,1.12-0.807,1.24c-0.076,0.016-0.153,0.024-0.23,0.023c-2.787-0.045-4.817-0.216-8.316-0.216
			c-2.156,0-8.659,0.225-11.636,0.225c-2.977,0-3.364-2.94-2.147-3.211c5.466-1.191,9.579-2.841,11.329-4.411
			C346.308,408.726,346.735,408.564,347.175,408.572z"/>
		<path style="fill:#407BFF;" d="M388.274,249.121h-37.635c-3.579,19.54-14.779,98.886-6.743,160.496h12.741
			c0,0-1.179-93.569,10.07-123.806c1.294,16.182,14.447,123.743,14.447,123.743h12.971c0,0-1.937-40.462-3.878-78.682
			C389.022,306.805,388.325,254.062,388.274,249.121z"/>
		<path style="opacity:0.4;fill:#FFFFFF;enable-background:new    ;" d="M388.274,249.121h-37.635
			c-3.579,19.54-14.779,98.886-6.743,160.496h12.741c0,0-1.179-93.569,10.07-123.806c1.294,16.182,14.447,123.743,14.447,123.743
			h12.971c0,0-1.937-40.462-3.878-78.682C389.022,306.805,388.325,254.062,388.274,249.121z"/>
		<path style="fill:#263238;" d="M366.762,196.22c0,0,6.332-2.209,13.977-0.495l0.854,5.868l-18.396,0.394L366.762,196.22z"/>
		<g>
			<path style="fill:#E4897B;" d="M332.864,194.595c0.48-1.074,0-3.922,0-3.922s-8.003-4.197-9.284-5.22
				c-1.281-1.023-2.721,3.602-1.921,4.571s3.201,4.571,7.203,4.571l1.12,3.12L332.864,194.595z"/>
			<path style="fill:#263238;" d="M354.319,197.715c-3.022,0.725-11.527,12.652-14.494,12.326
				c-2.967-0.326-6.527-15.782-6.527-15.782l-4.352,1.304c0,0,2.176,19.437,7.714,22.048c5.538,2.611,18.849-8.435,18.849-8.435
				L354.319,197.715z"/>
			<path style="opacity:0.4;fill:#FFFFFF;" d="M354.319,197.715c-3.022,0.725-11.527,12.652-14.494,12.326
				c-2.967-0.326-6.527-15.782-6.527-15.782l-4.352,1.304c0,0,2.176,19.437,7.714,22.048c5.538,2.611,18.849-8.435,18.849-8.435
				L354.319,197.715z"/>
		</g>
		<path style="opacity:0.2;enable-background:new    ;" d="M354.538,209.947c-1.5,1.17-4.56,3.45-7.85,5.29
			c1.15-6.35,6.79-9.1,6.79-9.1L354.538,209.947z"/>
		<path style="opacity:0.2;enable-background:new    ;" d="M366.703,285.814c-1.66,4.456-3.04,10.021-4.203,16.281
			c-1.052-14.4,3.157-29.673,3.157-29.673L366.703,285.814z"/>
		<g>
			<g>
				<polygon points="376.029,249.572 376.029,253.934 388.206,254.082 388.206,249.572 				"/>
				<polygon points="356.862,253.701 374.676,253.917 374.676,249.572 356.862,249.572 				"/>
				<polygon points="355.509,249.572 350.322,249.572 349.84,253.616 355.509,253.684 				"/>
			</g>
			<rect x="360.583" y="248.783" style="fill:#FFFFFF;" width="7.007" height="5.049"/>
		</g>
		<path style="fill:#263238;" d="M349.729,235.962c0,0.61,0.01,1.2,0.02,1.78c0.01,1.26,0.04,2.44,0.07,3.53
			c0.06,1.51,0.12,2.85,0.18,3.99c0.16,2.73,0.33,4.3,0.33,4.3h37.88c0.15-1.43,0.31-2.87,0.46-4.3c0.15-1.33,0.29-2.67,0.43-3.99
			c0.13-1.18,0.26-2.36,0.39-3.53c0.07-0.59,0.13-1.19,0.2-1.78c0.18-1.66,0.37-3.31,0.55-4.94c0.04-0.33,0.07-0.66,0.11-0.99
			c0.25-2.26,0.5-4.49,0.75-6.67c0.1-0.9,0.21-1.78,0.31-2.66c0.39-3.39,0.76-6.63,1.12-9.68c0.23-1.96,0.45-3.84,0.66-5.62
			c0.33-2.83,0.63-5.41,0.9-7.69h-39.77c-3.12,11.17-4.23,22.87-4.51,32.32c-0.01,0.34-0.02,0.67-0.03,0.99
			C349.739,232.752,349.719,234.402,349.729,235.962z"/>
		<path style="fill:#E4897B;" d="M380.29,200.251c-3.383,2.81-11.302,1.363-11.302,1.363s-3.014-2.001-1.9-3.509
			c2.951-0.354,2.531-1.239,3.195-2.962c0.385-1.004,0.487-2.148,0.446-3.332c-0.015-0.622-0.08-1.254-0.163-1.879l10.173-6.855
			C379.234,187.835,377.261,196.62,380.29,200.251z"/>
		<path style="opacity:0.2;enable-background:new    ;" d="M378.258,187.613c-0.653,5.892-5.583,7.306-7.975,7.532
			c0.385-1.004,0.487-2.148,0.446-3.332L378.258,187.613z"/>
		<g>
			<path style="fill:#263238;" d="M368.203,165.848c0,0-4.166,8.655-0.418,13.626c3.747,4.97,8.933-11.93,8.933-11.93
				L368.203,165.848z"/>
			<path style="fill:#E4897B;" d="M379.561,190.982c-3.369,2.643-7.452,2.353-10.441,0.29c-1.923-1.323-3.39-3.387-3.929-5.873
				c-0.074-0.325-0.127-0.662-0.168-1.005c-0.67-6.276,1.554-16.212,8.536-18.049c4.97-1.345,10.101,1.595,11.444,6.574
				c0.392,1.413,0.43,2.901,0.135,4.342C383.867,183.968,383.437,187.971,379.561,190.982z"/>
			<path style="fill:#263238;" d="M374.618,177.825c-0.032,0.551-0.416,0.959-0.782,0.911c-0.366-0.048-0.592-0.535-0.525-1.085
				c0.067-0.549,0.425-0.958,0.782-0.911C374.45,176.788,374.686,177.267,374.618,177.825z"/>
			<path style="fill:#263238;" d="M368.386,177.019c-0.032,0.551-0.425,0.958-0.782,0.911c-0.357-0.047-0.592-0.535-0.525-1.085
				c0.067-0.549,0.425-0.958,0.782-0.911C368.219,175.982,368.452,176.496,368.386,177.019z"/>
			<path style="fill:#DE5753;" d="M370.331,177.546c-0.874,1.601-1.965,3.073-3.243,4.376c0.696,0.647,1.642,0.953,2.585,0.837
				L370.331,177.546z"/>
			<path style="fill:#263238;" d="M366.44,174.166c0.103,0.065,0.233,0.071,0.341,0.014c0.719-0.415,1.591-0.466,2.353-0.138
				c0.158,0.085,0.354,0.027,0.44-0.131c0.085-0.158,0.026-0.354-0.131-0.44c0,0-0.001,0-0.001-0.001
				c-0.953-0.439-2.06-0.388-2.969,0.136c-0.16,0.081-0.224,0.277-0.142,0.436c0.001,0.002,0.002,0.005,0.004,0.007
				C366.363,174.094,366.399,174.133,366.44,174.166z"/>
			<path style="fill:#263238;" d="M376.164,175.506c0.066,0.007,0.131-0.007,0.189-0.039c0.136-0.117,0.151-0.322,0.035-0.457
				c-0.002-0.002-0.003-0.004-0.005-0.005c-0.68-0.804-1.709-1.226-2.757-1.132c-0.177,0.026-0.299,0.191-0.273,0.369l0,0.001
				c0.031,0.175,0.193,0.295,0.37,0.273l0,0c0.83-0.05,1.634,0.295,2.17,0.931C375.97,175.505,376.069,175.527,376.164,175.506z"/>
			<path style="fill:#263238;" d="M381.262,168.173l-0.812,1.17c2.091,1.121,1.193,3.619,0.538,4.706
				c-1.4,2.321-0.675,6.437,0.963,8.319c0,0,0.252-1.069,1.117-0.651c0.865,0.418-0.387,5.994-2.641,8.359
				c0,0,3.119-1.947,5.687-7.577c2.375-5.207,3.36-9.724,2.614-12.035L381.262,168.173z"/>
			<path style="fill:#E4897B;" d="M387.377,183.193c-0.949,1.435-2.428,2.434-4.113,2.78c-2.234,0.442-3.176-1.601-2.414-3.621
				c0.694-1.789,2.691-4.238,4.865-3.747C387.889,179.096,388.519,181.418,387.377,183.193z"/>
			<g>
				<path style="fill:#263238;" d="M369.667,184.917c0.576,0.913,1.259,2.676,1.259,2.676c0.171-0.033,0.342-0.066,0.511-0.108
					c2.306-0.507,3.209-1.505,3.51-2.456c0.162-0.521,0.139-1.034,0.066-1.44c-0.079-0.471-0.243-0.788-0.243-0.788
					c-1.062,0.999-3.176,1.638-4.319,1.932C369.973,184.859,369.667,184.917,369.667,184.917z"/>
				<path style="fill:#FFFFFF;" d="M370.451,184.731l0.392,0.779c2.171-0.483,3.635-1.115,4.17-1.923
					c-0.079-0.471-0.243-0.788-0.243-0.788C373.707,183.799,371.594,184.438,370.451,184.731z"/>
				<path style="fill:#DE5753;" d="M371.437,187.484c2.306-0.507,3.209-1.505,3.51-2.456c-0.779,0.203-1.696,0.535-2.449,1.071
					C371.92,186.506,371.611,187.007,371.437,187.484z"/>
			</g>
			<path style="fill:#263238;" d="M388.971,174.686c0,0,3.405-5.316-2.925-10.986c-6.33-5.671-14.667-3.297-16.432-0.923
				c0,0-5.052,1.111-2.546,6.123l3.328-2.615C370.396,166.285,375.676,174.859,388.971,174.686z"/>
		</g>
		<g>
			<path style="fill:#263238;" d="M366.221,196.832c0,0-11.595,19.316-12.781,54.995h-5.736c0,0,1.759-43.819,6.616-54.114
				L366.221,196.832z"/>
			<path style="opacity:0.4;fill:#FFFFFF;" d="M366.221,196.832c0,0-11.595,19.316-12.781,54.995h-5.736
				c0,0,1.759-43.819,6.616-54.114L366.221,196.832z"/>
			<path style="fill:#263238;" d="M380.245,196.832c0,0-3.414,49.234,10.358,60.905l4.262-3.905c0,0-4.355-28.436-1.676-40.106
				c2.68-11.67,1.676-16.01,1.676-16.01L380.245,196.832z"/>
			<path style="opacity:0.4;fill:#FFFFFF;" d="M392.79,235.28c0.73,9.79,2.07,18.55,2.07,18.55l-4.26,3.91
				c-1.86-1.58-3.41-3.85-4.69-6.59c-8.22-17.51-5.67-54.32-5.67-54.32l14.62,0.88c0,0,0.77,3.31-0.82,11.94
				c-0.23,1.24-0.51,2.6-0.85,4.08c-0.51,2.24-0.77,5.09-0.84,8.24c-0.11,4.16,0.1,8.84,0.44,13.3
				C392.78,235.27,392.78,235.27,392.79,235.28z"/>
			<path style="fill:#263238;" d="M380.739,195.725l8.305,7.319l-7.517,4.483l4.747,1.187l-5.536,19.297
				C380.739,228.011,376.984,202.846,380.739,195.725z"/>
			<path style="fill:#263238;" d="M366.762,196.22l-10.576,6.692l4.397,4.652l-3.753,1.288l-0.462,17.089
				C356.367,225.942,361.526,205.098,366.762,196.22z"/>
			<path style="opacity:0.2;enable-background:new    ;" d="M394.04,209.65c-0.23,1.24-0.51,2.6-0.85,4.08
				c-0.51,2.24-0.77,5.09-0.84,8.24c-3.87-6.18-2.31-14.3-2.31-14.3S391.64,208.42,394.04,209.65z"/>
			<path style="opacity:0.2;enable-background:new    ;" d="M394.86,253.83l-4.26,3.91c-1.86-1.58-3.41-3.85-4.69-6.59
				c3.33-4.61,5.8-12.18,6.88-15.87C393.52,245.07,394.86,253.83,394.86,253.83z"/>
			<path style="opacity:0.2;fill:#FFFFFF;" d="M380.739,195.725l8.305,7.319l-7.517,4.483l4.747,1.187l-5.536,19.297
				C380.739,228.011,376.984,202.846,380.739,195.725z"/>
			<path style="opacity:0.2;fill:#FFFFFF;" d="M366.762,196.22l-10.576,6.692l4.397,4.652l-3.753,1.288l-0.462,17.089
				C356.367,225.942,361.526,205.098,366.762,196.22z"/>
		</g>
		<g>
			<path style="fill:#263238;" d="M394.088,197.717c3.496-0.721,13.386,31.125,11.013,37.851
				c-2.374,6.725-16.703,22.749-16.703,22.749l-4.134-4.283c0,0,11.936-16.014,13.519-21.295c1.582-5.281-7.18-22.051-7.18-22.051
				s-1.098-4.282-0.717-7.998C390.266,198.975,394.088,197.717,394.088,197.717z"/>
			<path style="opacity:0.4;fill:#FFFFFF;" d="M394.088,197.717c3.496-0.721,13.386,31.125,11.013,37.851
				c-2.374,6.725-16.703,22.749-16.703,22.749l-4.134-4.283c0,0,11.936-16.014,13.519-21.295c1.582-5.281-7.18-22.051-7.18-22.051
				s-1.098-4.282-0.717-7.998C390.266,198.975,394.088,197.717,394.088,197.717z"/>
		</g>
	</g>
</g>
</svg>
