<?xml version="1.0" encoding="utf-8"?>
<!-- Generator: Adobe Illustrator 27.5.0, SVG Export Plug-In . SVG Version: 6.00 Build 0)  -->
<svg version="1.1" xmlns="http://www.w3.org/2000/svg" xmlns:xlink="http://www.w3.org/1999/xlink" x="0px" y="0px"
	 viewBox="0 0 500 500" style="enable-background:new 0 0 500 500;" xml:space="preserve">
<g id="BACKGROUND">
	<rect x="0.055" y="0.366" style="fill:#F6F7F1;" width="500" height="500"/>
</g>
<g id="OBJECTS">
	<g>
		<g>
			<circle style="fill:#F7EEDE;" cx="254.957" cy="263.815" r="178.667"/>
		</g>
	</g>
	<g>
		<g>
			<g>
				<g>
					<path style="fill:#DECFB4;" d="M245.646,259.924H133.132c-6.336,0-11.52-5.126-11.52-11.391V73.109
						c0-6.265,5.184-11.391,11.52-11.391h112.514c6.336,0,11.52,5.126,11.52,11.391v175.423
						C257.166,254.798,251.982,259.924,245.646,259.924z"/>
				</g>
			</g>
			<g>
				<g>
					<path style="fill:#093673;" d="M245.775,61.718H134.522c-6.265,0-11.391,5.126-11.391,11.391v17.466h133.656l0.38-0.11V73.109
						C257.166,66.844,252.04,61.718,245.775,61.718z"/>
				</g>
				<g>
					<path style="fill:#093673;" d="M256.787,91.715H123.131c-0.629,0-1.139-0.51-1.139-1.139V73.109
						c0-6.909,5.621-12.53,12.53-12.53h111.253c6.909,0,12.53,5.621,12.53,12.53v17.357c0,0.507-0.336,0.953-0.823,1.095
						l-0.379,0.11C257.001,91.7,256.894,91.715,256.787,91.715z M257.166,90.466h0.011H257.166z M124.27,89.437h131.757V73.109
						c0-5.653-4.599-10.252-10.252-10.252H134.522c-5.653,0-10.252,4.599-10.252,10.252V89.437z"/>
				</g>
			</g>
			<g>
				<g>
					<g>
						<path style="fill:#EC4258;" d="M139.838,81.083c-2.936,0-5.316-2.38-5.316-5.316c0-2.936,2.38-5.316,5.316-5.316
							c2.936,0,5.316,2.38,5.316,5.316C145.154,78.703,142.773,81.083,139.838,81.083z"/>
					</g>
				</g>
				<g>
					<g>
						<path style="fill:#EC4258;" d="M139.838,81.653c-3.245,0-5.885-2.64-5.885-5.885c0-3.245,2.64-5.885,5.885-5.885
							c3.245,0,5.885,2.64,5.885,5.885C145.723,79.012,143.083,81.653,139.838,81.653z M139.838,71.021
							c-2.617,0-4.746,2.129-4.746,4.746c0,2.617,2.129,4.746,4.746,4.746c2.617,0,4.746-2.129,4.746-4.746
							C144.584,73.15,142.455,71.021,139.838,71.021z"/>
					</g>
				</g>
			</g>
			<g>
				<g>
					<path style="fill:#F6AE22;" d="M157.304,80.703c-2.936,0-5.316-2.38-5.316-5.316c0-2.936,2.38-5.316,5.316-5.316
						c2.936,0,5.316,2.38,5.316,5.316C162.62,78.324,160.24,80.703,157.304,80.703z"/>
				</g>
			</g>
			<g>
				<g>
					<path style="fill:#49A2BA;" d="M175.53,81.083c-2.936,0-5.316-2.38-5.316-5.316c0-2.936,2.38-5.316,5.316-5.316
						c2.936,0,5.316,2.38,5.316,5.316C180.846,78.703,178.466,81.083,175.53,81.083z"/>
				</g>
			</g>
		</g>
		<g>
			<g>
				<g>
					<rect x="131.864" y="125.556" style="fill:#CFC1A7;" width="125.302" height="64.122"/>
				</g>
			</g>
			<g>
				<g>
					<g>
						<rect x="139.838" y="111.887" style="fill:#FFFFFF;" width="143.908" height="64.122"/>
					</g>
					<g>
						<path style="fill:#FFFFFF;" d="M283.745,177.148H139.838c-0.629,0-1.139-0.51-1.139-1.139v-64.122
							c0-0.629,0.51-1.139,1.139-1.139h143.908c0.63,0,1.139,0.51,1.139,1.139v64.122
							C284.884,176.638,284.375,177.148,283.745,177.148z M140.977,174.87h141.629v-61.844H140.977V174.87z"/>
					</g>
				</g>
				<g>
					<g>
						<g>
							<g>
								<path style="fill:#093673;" d="M262.698,134.564h-47.97c-0.629,0-1.139-0.51-1.139-1.139c0-0.629,0.51-1.139,1.139-1.139
									h47.97c0.63,0,1.139,0.51,1.139,1.139C263.837,134.053,263.328,134.564,262.698,134.564z"/>
							</g>
						</g>
						<g>
							<g>
								<path style="fill:#093673;" d="M267.104,159.038h-52.375c-0.629,0-1.139-0.51-1.139-1.139c0-0.629,0.51-1.139,1.139-1.139
									h52.375c0.63,0,1.139,0.51,1.139,1.139C268.243,158.528,267.733,159.038,267.104,159.038z"/>
							</g>
						</g>
						<g>
							<g>
								<path style="fill:#093673;" d="M247.524,146.801h-32.795c-0.629,0-1.139-0.51-1.139-1.139s0.51-1.139,1.139-1.139h32.795
									c0.63,0,1.139,0.51,1.139,1.139S248.154,146.801,247.524,146.801z"/>
							</g>
						</g>
					</g>
					<g>
						<g>
							<g>
								<g>
									<path style="fill:#093673;" d="M162.843,167.848h-12.726c-0.629,0-1.139-0.51-1.139-1.139v-14.194
										c0-0.629,0.51-1.139,1.139-1.139s1.139,0.51,1.139,1.139v13.055h11.587c0.629,0,1.139,0.51,1.139,1.139
										S163.472,167.848,162.843,167.848z"/>
								</g>
							</g>
							<g>
								<g>
									<path style="fill:#093673;" d="M192.212,167.848h-12.726c-0.629,0-1.139-0.51-1.139-1.139s0.51-1.139,1.139-1.139h11.587
										v-13.055c0-0.629,0.51-1.139,1.139-1.139c0.629,0,1.139,0.51,1.139,1.139v14.194
										C193.351,167.338,192.841,167.848,192.212,167.848z"/>
								</g>
							</g>
						</g>
						<g>
							<g>
								<g>
									<path style="fill:#093673;" d="M150.117,141.416c-0.629,0-1.139-0.51-1.139-1.139v-14.195c0-0.629,0.51-1.139,1.139-1.139
										h12.726c0.629,0,1.139,0.51,1.139,1.139c0,0.629-0.51,1.139-1.139,1.139h-11.587v13.055
										C151.256,140.906,150.746,141.416,150.117,141.416z"/>
								</g>
							</g>
							<g>
								<g>
									<path style="fill:#093673;" d="M192.212,141.416c-0.629,0-1.139-0.51-1.139-1.139v-13.055h-11.587
										c-0.629,0-1.139-0.51-1.139-1.139c0-0.629,0.51-1.139,1.139-1.139h12.726c0.629,0,1.139,0.51,1.139,1.139v14.195
										C193.351,140.906,192.841,141.416,192.212,141.416z"/>
								</g>
							</g>
						</g>
						<g>
							<g>
								<g>
									<path style="fill:#49A2BA;" d="M176.968,146.955c0,3.572-2.896,6.468-6.468,6.468c-3.572,0-6.468-2.896-6.468-6.468
										s2.896-6.468,6.468-6.468C174.072,140.487,176.968,143.383,176.968,146.955z"/>
								</g>
							</g>
							<g>
								<g>
									<path style="fill:#093673;" d="M171.025,155.611c-8.339,0-14.917-7.416-15.193-7.731c-0.376-0.429-0.376-1.07,0-1.5
										c0.276-0.315,6.854-7.732,15.193-7.732c8.339,0,14.916,7.417,15.192,7.732c0.376,0.429,0.376,1.07,0,1.5
										C185.941,148.195,179.363,155.611,171.025,155.611z M158.271,147.129c1.832,1.797,6.919,6.204,12.754,6.204
										c5.851,0,10.926-4.404,12.753-6.202c-1.832-1.798-6.918-6.204-12.753-6.204
										C165.173,140.926,160.099,145.331,158.271,147.129z"/>
								</g>
							</g>
						</g>
					</g>
				</g>
			</g>
		</g>
	</g>
	<g>
		<g>
			<g>
				<g>
					<ellipse style="fill:#B8DBCD;" cx="356.851" cy="318.482" rx="28.444" ry="29.333"/>
				</g>
			</g>
			<g>
				<g>
					<g>
						<g>
							<rect x="342.193" y="308.482" style="fill:#49A2BA;" width="29.315" height="20"/>
						</g>
					</g>
					<g>
						<g>
							<path style="fill:#49A2BA;" d="M371.508,329.482h-29.315c-0.553,0-1-0.447-1-1v-20c0-0.553,0.447-1,1-1h29.315
								c0.553,0,1,0.447,1,1v20C372.508,329.034,372.061,329.482,371.508,329.482z M343.193,327.482h27.315v-18h-27.315V327.482z"/>
						</g>
					</g>
				</g>
				<g>
					<g>
						<path style="fill:#093673;" d="M356.713,321.811c-0.212,0-0.424-0.067-0.603-0.202L341.59,310.65
							c-0.44-0.332-0.528-0.959-0.195-1.4c0.331-0.441,0.958-0.529,1.4-0.195l13.912,10.5l13.644-10.495
							c0.436-0.336,1.065-0.256,1.402,0.184c0.336,0.438,0.255,1.065-0.184,1.402l-14.247,10.959
							C357.143,321.741,356.928,321.811,356.713,321.811z"/>
					</g>
				</g>
			</g>
		</g>
		<g>
			<g>
				<g>
					<rect x="239.29" y="228.148" style="fill:#E3E3E3;" width="70.209" height="96.333"/>
				</g>
				<g>
					<path style="fill:#E3E3E3;" d="M309.499,325.482H239.29c-0.552,0-1-0.447-1-1v-96.333c0-0.552,0.448-1,1-1h70.209
						c0.553,0,1,0.448,1,1v96.333C310.499,325.034,310.052,325.482,309.499,325.482z M240.29,323.482h68.209v-94.333H240.29V323.482
						z"/>
				</g>
			</g>
			<g>
				<g>
					<rect x="246.29" y="221.148" style="fill:#FFFFFF;" width="70.209" height="96.333"/>
				</g>
				<g>
					<path style="fill:#FFFFFF;" d="M316.499,318.482H246.29c-0.552,0-1-0.447-1-1v-96.333c0-0.552,0.448-1,1-1h70.209
						c0.553,0,1,0.448,1,1v96.333C317.499,318.034,317.052,318.482,316.499,318.482z M247.29,316.482h68.209v-94.333H247.29V316.482
						z"/>
				</g>
			</g>
			<g>
				<g>
					<g>
						<polygon style="fill:#F6C056;" points="297.976,228.496 287.616,246.439 308.336,246.439 						"/>
					</g>
					<g>
						<path style="fill:#F6C056;" d="M308.335,247.44h-20.72c-0.357,0-0.688-0.19-0.866-0.5s-0.179-0.69,0-1l10.36-17.944
							c0.179-0.31,0.509-0.5,0.866-0.5l0,0c0.357,0,0.687,0.19,0.866,0.5l10.359,17.944c0.179,0.31,0.179,0.69,0,1
							C309.023,247.249,308.693,247.44,308.335,247.44z M289.348,245.44h17.255l-8.627-14.944L289.348,245.44z"/>
					</g>
				</g>
				<g>
					<g>
						<path style="fill:#093673;" d="M308.335,258.885h-40.003c-0.553,0-1-0.448-1-1c0-0.552,0.447-1,1-1h40.003
							c0.553,0,1,0.448,1,1C309.335,258.438,308.888,258.885,308.335,258.885z"/>
					</g>
				</g>
				<g>
					<g>
						<path style="fill:#093673;" d="M308.335,279.295h-51.432c-0.553,0-1-0.447-1-1c0-0.553,0.447-1,1-1h51.432
							c0.553,0,1,0.447,1,1C309.335,278.848,308.888,279.295,308.335,279.295z"/>
					</g>
				</g>
				<g>
					<g>
						<path style="fill:#093673;" d="M308.335,269.09h-27.349c-0.553,0-1-0.447-1-1c0-0.553,0.447-1,1-1h27.349c0.553,0,1,0.447,1,1
							C309.335,268.643,308.888,269.09,308.335,269.09z"/>
					</g>
				</g>
				<g>
					<g>
						<path style="fill:#093673;" d="M307.519,290.725h-40.003c-0.553,0-1-0.447-1-1c0-0.553,0.447-1,1-1h40.003
							c0.553,0,1,0.447,1,1C308.519,290.278,308.072,290.725,307.519,290.725z"/>
					</g>
				</g>
				<g>
					<g>
						<path style="fill:#093673;" d="M308.335,302.154h-51.432c-0.553,0-1-0.447-1-1c0-0.553,0.447-1,1-1h51.432
							c0.553,0,1,0.447,1,1C309.335,301.706,308.888,302.154,308.335,302.154z"/>
					</g>
				</g>
			</g>
		</g>
		<g>
			<g>
				<path style="fill:none;stroke:#093673;stroke-width:2;stroke-linecap:round;stroke-linejoin:round;stroke-miterlimit:10;" d="
					M111.04,276.482"/>
			</g>
		</g>
		<g>
			<g>
				<g>
					<g>
						<path style="fill:#093673;" d="M252.003,412.174c-0.837,0-1.327-0.022-1.429-0.026c-0.551-0.027-0.977-0.496-0.95-1.047
							c0.027-0.551,0.502-0.983,1.046-0.951c0.148,0.007,14.636,0.615,33.521-6.038c17.406-6.131,42.22-19.869,61.587-50.497
							c0.294-0.466,0.911-0.607,1.379-0.311c0.467,0.295,0.607,0.912,0.311,1.379c-19.696,31.151-44.969,45.116-62.7,51.347
							C268.769,411.651,256.144,412.174,252.003,412.174z"/>
					</g>
				</g>
				<g>
					<g>
						<path style="fill:#093673;" d="M346.291,368.732c-0.015,0-0.029,0-0.043-0.001c-0.552-0.023-0.98-0.489-0.957-1.041
							l0.552-13.034l-12.596,6.466c-0.494,0.252-1.096,0.058-1.347-0.433c-0.252-0.492-0.059-1.095,0.433-1.347l14.125-7.25
							c0.317-0.164,0.695-0.147,0.996,0.048c0.3,0.191,0.476,0.528,0.46,0.884l-0.625,14.75
							C347.267,368.312,346.824,368.732,346.291,368.732z"/>
					</g>
				</g>
			</g>
			<g>
				<g>
					<g>
						<path style="fill:#093673;" d="M367.789,287.982c-0.161,0-0.324-0.039-0.476-0.121c-0.485-0.263-0.666-0.869-0.402-1.355
							c0.064-0.118,6.436-11.923,7.396-17.202c0.098-0.544,0.619-0.91,1.162-0.805c0.544,0.099,0.904,0.619,0.805,1.162
							c-1.017,5.593-7.336,17.302-7.605,17.798C368.489,287.792,368.145,287.982,367.789,287.982z"/>
					</g>
				</g>
				<g>
					<g>
						<path style="fill:#093673;" d="M379.545,282.714c-0.453,0-0.863-0.31-0.973-0.771l-2.996-12.697l-10.376,9.634
							c-0.404,0.375-1.039,0.353-1.413-0.052c-0.376-0.405-0.352-1.038,0.052-1.413l11.636-10.803
							c0.261-0.243,0.633-0.324,0.972-0.225c0.341,0.103,0.601,0.381,0.683,0.728l3.391,14.369c0.127,0.537-0.206,1.076-0.744,1.203
							C379.699,282.705,379.621,282.714,379.545,282.714z"/>
					</g>
				</g>
			</g>
		</g>
	</g>
	<g>
		<g>
			<g>
				<g>
					<g>
						<circle style="fill:#B8DBCD;" cx="126.957" cy="340.815" r="103.667"/>
					</g>
				</g>
				<g>
					<g>
						<path style="fill:#9DCCB9;" d="M224.53,375.901C90.58,418.775,50.762,333.858,39.068,285.827
							c-9.993,15.939-15.778,34.787-15.778,54.988c0,57.254,46.413,103.667,103.667,103.667
							C171.895,444.482,210.149,415.887,224.53,375.901z"/>
					</g>
				</g>
			</g>
			<g>
				<g>
					<g>
						<g>
							<path style="fill:#EC4258;" d="M105.665,441.289l-0.239-20.387c-1.491-8.496-2.987-17.032-3.149-25.656
								c-0.204-10.865,1.713-11.707,1.189-22.561c-0.524-10.854-4.012-22.322-12.642-28.926l-27.285-8.527
								c-22.25,9.5-25.75,30.25-24.5,58.5l0.585,2.963C54.386,419.716,78.002,435.513,105.665,441.289z"/>
						</g>
					</g>
					<g>
						<g>
							<path style="fill:#EC4258;" d="M106.172,441.905l-0.609-0.127c-28.013-5.849-51.58-21.764-66.359-44.813l-0.07-0.173
								l-0.584-2.963c-1.27-28.583,2.465-49.522,24.794-59.057l0.169-0.072l27.615,8.662c10.32,7.897,12.473,21.746,12.837,29.299
								c0.275,5.711-0.116,8.646-0.53,11.753c-0.371,2.786-0.756,5.668-0.659,10.822c0.162,8.607,1.676,17.235,3.141,25.579
								L106.172,441.905z M40.097,396.504c14.529,22.612,37.613,38.277,65.061,44.166l-0.231-19.763
								c-1.464-8.301-2.985-16.968-3.149-25.652c-0.098-5.231,0.291-8.15,0.668-10.974c0.408-3.061,0.794-5.952,0.522-11.572
								c-0.355-7.362-2.436-20.839-12.376-28.499l-27.023-8.446c-21.652,9.342-25.268,29.925-24.028,57.945L40.097,396.504z"/>
						</g>
					</g>
				</g>
				<g>
					<g>
						<g>
							<path style="fill:#D63C50;" d="M105.426,420.902c-0.996-5.676-1.985-11.371-2.586-17.098
								c-11.634-5.304-24.05-18.323-24.05-18.323l1.5,21l5,23.5l19-1.5c0,0,0.467-0.524,1.208-1.397L105.426,420.902z"/>
						</g>
					</g>
					<g>
						<g>
							<path style="fill:#D63C50;" d="M84.893,430.515l-5.091-23.929l-1.608-22.456l0.959,1.007
								c0.124,0.129,12.484,13.01,23.896,18.212l0.26,0.119l0.03,0.284c0.617,5.868,1.661,11.815,2.582,17.063l0.007,0.081
								l0.075,6.369l-0.121,0.143c-0.746,0.88-1.217,1.407-1.217,1.407l-0.134,0.149L84.893,430.515z M79.386,386.796l1.403,19.65
								l4.899,23.002l18.361-1.449c0.172-0.195,0.503-0.575,0.947-1.097l-0.07-5.954c-0.907-5.17-1.932-11.014-2.554-16.81
								C92.717,399.647,82.503,389.902,79.386,386.796z"/>
						</g>
					</g>
				</g>
				<g>
					<g>
						<path style="fill:#C48448;" d="M82.683,326.345c2.767,0.881,5.568,1.708,8.455,2.015c7.027,0.746,10.777-0.879,10.402-5.379
							c-0.028-0.34,0.96-2.106,0.75-2.375c-0.501-0.64-0.813-0.463-1.625-0.5c-2.067-0.095-7.133-3.296-5.125-6.125
							c1.833-2.583,4.85,0.543,6.5,0.625c1.667,0.083,1.312,0.047,1.583-1.583c0.202-1.213,0.116-2.29,1.071-3.066
							c0.866-0.704,3.229-0.302,4.188-0.871c0.896-0.531,1.142-1.763,0.892-2.774c-0.25-1.011-3.215-7.927-3.734-8.83
							c-3.738-6.502,0.5-15.125-4.25-20.25c0,0-4-6-13.375-3.25s-17.125,7-19.375,13.25l-2.215,30.39
							c0.667,5.868-0.248,12.907-1.785,18.61c-0.387,1.436,7.583,10,17,11.917c5.966,1.214,8.911-2.434,8.896-3.979
							c-0.063-6.854-0.396-8.604,0.02-15.187"/>
					</g>
					<g>
						<path style="fill:#C48448;" d="M84.353,349.393c-0.764,0-1.6-0.079-2.512-0.265c-8.232-1.676-15.405-8.247-17.248-11.229
							c-0.5-0.809-0.66-1.403-0.519-1.927c1.686-6.261,2.343-13.078,1.756-18.237c-0.007-0.061-0.008-0.124-0.004-0.185l2.215-30.39
							c0.007-0.091,0.026-0.181,0.057-0.267c2.135-5.931,8.875-10.598,20.035-13.871c9.513-2.787,13.903,2.833,14.438,3.583
							c2.735,2.998,2.729,7.007,2.722,10.884c-0.005,3.279-0.011,6.67,1.613,9.495c0.511,0.888,3.545,7.905,3.837,9.089
							c0.319,1.289,0.032,3.051-1.352,3.873c-0.654,0.389-1.551,0.451-2.417,0.513c-0.538,0.037-1.437,0.101-1.651,0.275
							c-0.43,0.349-0.502,0.797-0.611,1.696c-0.03,0.246-0.061,0.499-0.104,0.758c-0.045,0.269-0.071,0.491-0.093,0.675
							c-0.211,1.773-1.055,1.815-2.527,1.743c-0.731-0.036-1.488-0.416-2.289-0.817c-1.942-0.974-2.698-1.142-3.346-0.228
							c-0.342,0.481-0.368,0.957-0.083,1.541c0.745,1.527,3.293,2.953,4.438,3.006c0.15,0.007,0.282,0.004,0.398,0.004
							c0.563-0.012,1.27-0.015,1.969,0.88c0.484,0.62,0.165,1.37-0.277,2.409c-0.085,0.197-0.206,0.482-0.255,0.628
							c0.128,1.866-0.378,3.37-1.505,4.472c-1.699,1.661-4.688,2.298-9.111,1.939c-0.253,4.177-0.19,6.371-0.104,9.374
							c0.043,1.477,0.09,3.15,0.11,5.347c0.01,1.067-0.74,2.354-1.957,3.358C89.044,348.29,87.206,349.393,84.353,349.393z
							 M66.04,336.365c0.454,1.521,7.511,9.035,16.2,10.805c3.501,0.708,5.555-0.441,6.467-1.193
							c0.935-0.771,1.232-1.544,1.229-1.798c-0.02-2.18-0.067-3.842-0.109-5.307c-0.088-3.08-0.152-5.324,0.113-9.656
							c-2.64-0.393-5.174-1.157-7.561-1.917c-0.526-0.168-0.817-0.73-0.65-1.257c0.168-0.525,0.732-0.817,1.256-0.649
							c2.617,0.833,5.41,1.672,8.258,1.975c4.175,0.441,7.08-0.005,8.4-1.296c0.716-0.7,1.011-1.684,0.9-3.006
							c-0.031-0.374,0.114-0.734,0.417-1.447c0.061-0.143,0.141-0.332,0.211-0.507c-0.076,0.001-0.148,0.002-0.229,0.002
							c-0.1,0-0.207-0.002-0.323-0.007c-1.683-0.077-4.991-1.763-6.145-4.127c-0.601-1.232-0.513-2.502,0.249-3.576
							c1.751-2.468,4.33-1.175,5.873-0.402c0.554,0.277,1.182,0.592,1.493,0.607c0.137,0.007,0.298,0.015,0.441,0.02l0-0.001
							c0.025-0.209,0.055-0.461,0.106-0.767c0.038-0.228,0.065-0.453,0.091-0.671c0.121-1,0.259-2.134,1.335-3.008
							c0.705-0.573,1.756-0.647,2.772-0.718c0.544-0.038,1.291-0.091,1.537-0.237c0.461-0.273,0.582-1.066,0.431-1.674
							c-0.228-0.924-3.163-7.76-3.63-8.571c-1.891-3.29-1.885-6.953-1.879-10.495c0.006-3.676,0.012-7.147-2.237-9.574
							c-0.036-0.039-0.069-0.081-0.099-0.125c-0.147-0.215-3.758-5.346-12.262-2.845c-10.28,3.016-16.731,7.337-18.669,12.503
							l-2.199,30.157C68.43,323.029,67.779,329.853,66.04,336.365z M66.024,336.298"/>
					</g>
				</g>
				<g>
					<g>
						<path style="fill:#FFFFFF;" d="M90.796,297.601c0,0,1.642,5.29,5.655,4.286c4.013-1.003,3.101-5.837,3.101-5.837
							s-4.013,0.456-4.925,0.638C93.714,296.871,90.796,297.601,90.796,297.601z"/>
					</g>
					<g>
						<path style="fill:#FFFFFF;" d="M95.459,303.015c-3.152,0-5.027-3.212-5.618-5.118c-0.081-0.262-0.051-0.547,0.084-0.786
							c0.135-0.239,0.362-0.413,0.629-0.479c0.12-0.03,2.952-0.737,3.877-0.923c0.942-0.188,4.843-0.633,5.008-0.651
							c0.516-0.069,0.998,0.293,1.095,0.808c0.376,1.993,0.057,6.018-3.841,6.992C96.262,302.965,95.851,303.015,95.459,303.015z
							 M92.158,298.294c0.608,1.247,1.913,3.151,4.05,2.623c2.133-0.533,2.449-2.547,2.438-3.755
							c-1.358,0.16-3.273,0.397-3.823,0.507C94.301,297.774,93.074,298.07,92.158,298.294z M90.796,297.601h0.01H90.796z"/>
					</g>
				</g>
				<g>
					<g>
						<ellipse style="fill:#093673;" cx="96.728" cy="299.008" rx="1.531" ry="2.756"/>
					</g>
					<g>
						<path style="fill:#093673;" d="M96.728,302.765c-1.443,0-2.531-1.615-2.531-3.757s1.088-3.756,2.531-3.756
							c1.443,0,2.531,1.614,2.531,3.756S98.171,302.765,96.728,302.765z M96.69,297.246c-0.086,0.069-0.493,0.694-0.493,1.762
							c0,1.068,0.407,1.693,0.569,1.763c0.086-0.069,0.493-0.694,0.493-1.763C97.259,297.941,96.852,297.316,96.69,297.246z"/>
					</g>
				</g>
				<g>
					<g>
						<path style="fill:#093673;" d="M90.939,297.97c-0.377,0-0.76-0.039-1.143-0.131c-0.537-0.129-0.868-0.669-0.74-1.206
							c0.129-0.536,0.671-0.867,1.206-0.739c0.959,0.23,2.036-0.096,2.961-0.444c0.212-0.08,0.424-0.164,0.635-0.247
							c0.966-0.382,1.966-0.776,3.081-0.885c1.757-0.166,3.375,0.534,4.137,1.793c0.286,0.473,0.134,1.088-0.338,1.373
							c-0.473,0.285-1.087,0.135-1.373-0.338c-0.416-0.688-1.42-0.915-2.231-0.838c-0.835,0.081-1.663,0.408-2.54,0.755
							c-0.221,0.087-0.442,0.174-0.664,0.258C93.082,297.64,92.036,297.97,90.939,297.97z"/>
					</g>
				</g>
				<g>
					<g>
						<path style="fill:#093673;" d="M90.041,292.246c-0.107,0-0.215-0.003-0.324-0.008c-0.552-0.028-0.976-0.498-0.948-1.05
							c0.028-0.552,0.483-0.969,1.049-0.948c1.153,0.061,2.362-0.378,3.594-0.87l0.174-0.069c1.303-0.522,2.65-1.063,4.149-1.11
							c1.933-0.095,3.688,0.843,4.443,2.308c0.253,0.491,0.06,1.094-0.431,1.347c-0.492,0.256-1.094,0.06-1.347-0.431
							c-0.457-0.891-1.63-1.25-2.6-1.226c-1.146,0.038-2.275,0.49-3.47,0.969l-0.176,0.07
							C92.811,291.766,91.481,292.246,90.041,292.246z"/>
					</g>
				</g>
				<g>
					<g>
						<path style="fill:#093673;" d="M73.652,298.307c2.359-1.459,3.887-3.951,4.991-6.496c1.104-2.545,1.875-5.238,3.184-7.684
							c2.617-4.887,7.848-8.676,13.375-8.254c1.563,0.119,3.088,0.559,4.65,0.694c1.562,0.135,3.254-0.083,4.445-1.102
							c1.191-1.019,1.615-5.016,0.564-6.18c-1.24-1.372-3.439-0.859-5.268-0.579c-6.536,1-13.025-2.21-19.635-2.034
							c-20.919,0.559-23.057,20.971-23.669,27.975c-0.612,7.005,2.305,14.686,6.733,20.147c0.691,0.853,1.458,1.677,2.429,2.189
							c0.971,0.511,2.187,0.666,3.163,0.165c2.116-1.086,2.011-4.381,3.915-5.807"/>
					</g>
					<g>
						<path style="fill:#093673;" d="M67.277,318.456c-0.759,0-1.549-0.197-2.291-0.588c-1.165-0.613-2.039-1.579-2.739-2.443
							c-4.886-6.026-7.55-14.02-6.953-20.863c1.64-18.776,9.929-28.495,24.638-28.889c3.061-0.079,6.102,0.537,9.034,1.135
							c3.619,0.738,7.037,1.434,10.476,0.91l0.502-0.08c1.858-0.299,4.168-0.672,5.659,0.978c0.868,0.96,0.897,2.664,0.837,3.595
							c-0.089,1.399-0.529,3.189-1.493,4.015c-1.242,1.063-3.036,1.528-5.182,1.338c-0.81-0.069-1.6-0.215-2.365-0.355
							c-0.786-0.145-1.528-0.28-2.276-0.338c-5.493-0.42-10.196,3.58-12.416,7.729c-0.78,1.457-1.356,2.99-1.966,4.614
							c-0.37,0.985-0.753,2.004-1.183,2.995c-1.443,3.329-3.204,5.602-5.383,6.949c-0.47,0.291-1.086,0.145-1.376-0.324
							c-0.291-0.47-0.145-1.086,0.325-1.377c1.82-1.125,3.324-3.102,4.6-6.043c0.41-0.946,0.784-1.941,1.145-2.903
							c0.606-1.613,1.232-3.281,2.075-4.855c3.038-5.674,8.801-9.193,14.333-8.779c0.853,0.065,1.682,0.218,2.484,0.365
							c0.751,0.138,1.461,0.269,2.176,0.33c1.118,0.094,2.667,0.025,3.709-0.865c0.276-0.236,0.707-1.207,0.798-2.623
							c0.078-1.21-0.152-1.934-0.326-2.126c-0.763-0.845-2.335-0.588-3.856-0.345l-0.519,0.082
							c-3.79,0.583-7.546-0.186-11.178-0.927c-2.821-0.575-5.734-1.175-8.58-1.095c-20.383,0.544-22.127,20.504-22.699,27.063
							c-0.554,6.346,1.942,13.791,6.514,19.43c0.572,0.707,1.271,1.488,2.117,1.934c0.777,0.409,1.635,0.469,2.241,0.16
							c0.795-0.408,1.194-1.365,1.655-2.475c0.47-1.129,1.003-2.408,2.117-3.243c0.443-0.332,1.069-0.24,1.399,0.201
							c0.331,0.442,0.241,1.069-0.201,1.4c-0.676,0.506-1.062,1.432-1.469,2.41c-0.535,1.286-1.142,2.743-2.589,3.485
							C68.528,318.318,67.913,318.456,67.277,318.456z"/>
					</g>
				</g>
				<g>
					<g>
						<path style="fill:#C48448;" d="M77.959,403.525c1.563,3.365,1.58,7.208,2.231,10.861c0.65,3.653,2.281,7.545,5.67,9.054
							c2.814,1.253,6.062,0.534,9.079-0.083c20.596-4.214,42.353-2.6,62.102,4.607l-10.374,8.639
							c-24.284-4.891-43.82,9.718-68.289,5.86c-2.47-0.389-4.948-1.003-7.099-2.277c-5.036-2.983-14.21-24.549-15.949-30.138
							L77.959,403.525z"/>
					</g>
					<g>
						<path style="fill:#C48448;" d="M86.894,444.116c-2.832,0-5.718-0.2-8.671-0.665c-3.199-0.505-5.498-1.247-7.453-2.405
							c-5.592-3.311-14.865-25.787-16.394-30.701c-0.08-0.257-0.053-0.534,0.075-0.771c0.127-0.236,0.345-0.412,0.604-0.486
							l22.628-6.522c0.473-0.136,0.976,0.093,1.184,0.54c1.175,2.528,1.522,5.28,1.856,7.942c0.132,1.046,0.268,2.128,0.452,3.163
							c0.437,2.454,1.68,6.797,5.093,8.316c2.441,1.086,5.379,0.484,8.218-0.098l0.254-0.052
							c20.921-4.281,42.583-2.675,62.645,4.647c0.336,0.123,0.581,0.416,0.643,0.767c0.061,0.353-0.07,0.711-0.345,0.94
							l-10.374,8.639c-0.233,0.193-0.542,0.269-0.837,0.212c-12.228-2.464-23.027,0.057-34.461,2.725
							C103.954,442.187,95.69,444.116,86.894,444.116z M56.606,410.72c2.425,7.036,10.881,26.057,15.184,28.604
							c1.728,1.023,3.808,1.687,6.745,2.15c11.74,1.848,22.559-0.675,33.021-3.115c10.999-2.566,22.371-5.221,34.838-2.831
							l8.661-7.212c-19.25-6.689-39.927-8.071-59.914-3.98l-0.254,0.052c-3.002,0.617-6.406,1.313-9.433-0.035
							c-3.155-1.404-5.374-4.882-6.248-9.791c-0.193-1.086-0.333-2.194-0.468-3.265c-0.292-2.323-0.57-4.531-1.353-6.565
							L56.606,410.72z"/>
					</g>
				</g>
				<g>
					<g>
						<path style="fill:#C48448;" d="M75.49,299.866c-0.382-0.98-1.613-1.427-2.637-1.188c-1.024,0.239-1.847,1.008-2.464,1.86
							c-1.313,1.81-1.896,4.22-1.213,6.349c0.683,2.129,2.767,3.825,5.001,3.743"/>
					</g>
					<g>
						<path style="fill:#C48448;" d="M74.019,311.633c-2.545,0-4.962-1.839-5.797-4.44c-0.749-2.332-0.242-5.039,1.355-7.241
							c0.889-1.226,1.914-1.981,3.046-2.246c1.393-0.329,3.195,0.258,3.797,1.798c0.201,0.514-0.054,1.094-0.568,1.295
							c-0.518,0.201-1.095-0.054-1.295-0.568c-0.175-0.45-0.865-0.722-1.479-0.577c-0.81,0.189-1.471,0.905-1.882,1.473
							c-1.207,1.664-1.617,3.754-1.07,5.456c0.578,1.802,2.298,3.089,4.012,3.05c0.557-0.048,1.016,0.411,1.036,0.962
							c0.02,0.553-0.411,1.017-0.963,1.036C74.148,311.632,74.083,311.633,74.019,311.633z"/>
					</g>
				</g>
				<g>
					<g>
						<path style="fill:#093673;" d="M72.789,305.358c-0.258,0-0.515-0.099-0.711-0.297c-0.757-0.765-1.06-1.929-0.773-2.966
							c0.286-1.036,1.145-1.879,2.187-2.147c0.537-0.139,1.08,0.185,1.218,0.72c0.138,0.534-0.184,1.08-0.719,1.218
							c-0.35,0.09-0.662,0.395-0.758,0.743c-0.097,0.348,0.013,0.77,0.267,1.026c0.388,0.393,0.385,1.025-0.008,1.414
							C73.298,305.261,73.044,305.358,72.789,305.358z"/>
					</g>
				</g>
				<g>
					<g>
						<path style="fill:#AB733F;" d="M90.849,339.274c-0.094-3.923-0.186-5.111,0.065-9.554c-2.514-0.716-5.73-1.708-6.749-2.363
							c-1.75-1.125-5.125-0.125-0.75,5.75C85.566,335.995,88.35,338.033,90.849,339.274z"/>
					</g>
					<g>
						<path style="fill:#AB733F;" d="M90.849,340.274c-0.152,0-0.304-0.034-0.445-0.105c-3.046-1.513-5.813-3.809-7.791-6.465
							c-3.013-4.047-2.584-6.033-1.694-6.986c1-1.068,2.697-0.904,3.787-0.202c0.333,0.214,1.629,0.86,6.482,2.241
							c0.45,0.128,0.751,0.551,0.725,1.018c-0.214,3.773-0.177,5.17-0.103,7.953l0.039,1.522c0.009,0.35-0.167,0.679-0.462,0.867
							C91.223,340.221,91.036,340.274,90.849,340.274z M82.811,327.952c-0.192,0-0.351,0.046-0.429,0.131
							c-0.226,0.241-0.337,1.509,1.836,4.426c1.466,1.969,3.413,3.721,5.587,5.047c-0.065-2.491-0.096-3.919,0.068-7.096
							c-4.988-1.452-5.929-2.057-6.249-2.263C83.361,328.029,83.058,327.952,82.811,327.952z"/>
					</g>
				</g>
				<g>
					<g>
						<path style="fill:#B83345;" d="M79.905,404.201c-0.471,0-0.89-0.334-0.981-0.813c-1.711-9.001-2.809-18.207-3.264-27.362
							c-0.028-0.552,0.397-1.022,0.949-1.049c0.547-0.024,1.021,0.398,1.048,0.949c0.451,9.064,1.538,18.178,3.232,27.089
							c0.103,0.542-0.253,1.065-0.796,1.169C80.03,404.195,79.967,404.201,79.905,404.201z"/>
					</g>
				</g>
				<g>
					<g>
						<path style="fill:#B83345;" d="M54.54,411.732c-0.438,0-0.841-0.29-0.963-0.733c-0.751-2.718-1.549-5.406-2.321-8.006
							c-2.703-9.104-5.257-17.705-5.908-27.432c-0.037-0.551,0.38-1.027,0.931-1.064c0.558-0.029,1.027,0.381,1.065,0.932
							c0.637,9.504,3.16,18,5.831,26.996c0.774,2.608,1.575,5.306,2.332,8.041c0.147,0.532-0.165,1.083-0.697,1.23
							C54.718,411.72,54.628,411.732,54.54,411.732z"/>
					</g>
				</g>
			</g>
		</g>
		<g>
			<g>
				<g>
					<g>
						<path style="fill:#3B8396;" d="M125.99,222.815h51.667c5.5,0,10,4.5,10,10v19.333c0,5.5-4.5,10-10,10h-38.703
							c-0.538,3.168-3.743,6.409-5.97,8.008c-3.396,2.438-7.719,3.551-11.87,3.057c3.007-0.488,5.041-3.567,5.355-6.597
							c0.156-1.502-0.014-2.994-0.346-4.469h-0.133c-5.5,0-10-4.5-10-10v-19.333C115.99,227.315,120.49,222.815,125.99,222.815z"/>
					</g>
				</g>
				<g>
					<g>
						<path style="fill:#3B8396;" d="M123.057,274.327c-0.689,0-1.377-0.04-2.062-0.121c-0.495-0.06-0.871-0.474-0.882-0.972
							c-0.01-0.499,0.348-0.929,0.84-1.009c2.595-0.42,4.266-3.257,4.521-5.713c0.107-1.032,0.05-2.147-0.173-3.386
							c-5.746-0.356-10.312-5.144-10.312-10.979v-19.333c0-6.066,4.935-11,11-11h51.667c6.065,0,11,4.934,11,11v19.333
							c0,6.065-4.935,11-11,11h-37.91c-0.979,3.354-4.263,6.445-6.18,7.821C130.532,273.148,126.792,274.327,123.057,274.327z
							 M125.99,223.815c-4.962,0-9,4.038-9,9v19.333c0,4.962,4.038,9,9,9h0.133c0.468,0,0.873,0.324,0.976,0.781
							c0.396,1.765,0.516,3.332,0.365,4.79c-0.202,1.946-1.074,4.015-2.506,5.496c2.668-0.318,5.261-1.305,7.444-2.871
							c2.368-1.699,5.12-4.728,5.567-7.363c0.082-0.48,0.498-0.833,0.986-0.833h38.703c4.962,0,9-4.038,9-9v-19.333
							c0-4.962-4.038-9-9-9H125.99z"/>
					</g>
				</g>
			</g>
			<g>
				<g>
					<g>
						<path style="fill:#FFFFFF;" d="M179.657,234.148H146.99c-0.552,0-1-0.448-1-1c0-0.552,0.448-1,1-1h32.667c0.552,0,1,0.448,1,1
							C180.657,233.7,180.209,234.148,179.657,234.148z"/>
					</g>
				</g>
				<g>
					<g>
						<path style="fill:#FFFFFF;" d="M179.657,250.815h-48c-0.552,0-1-0.448-1-1c0-0.552,0.448-1,1-1h48c0.552,0,1,0.448,1,1
							C180.657,250.367,180.209,250.815,179.657,250.815z"/>
					</g>
				</g>
				<g>
					<g>
						<path style="fill:#FFFFFF;" d="M179.657,242.482h-22.333c-0.552,0-1-0.448-1-1c0-0.552,0.448-1,1-1h22.333
							c0.552,0,1,0.448,1,1C180.657,242.034,180.209,242.482,179.657,242.482z"/>
					</g>
				</g>
			</g>
		</g>
		<g>
			<g>
				<g>
					<g>
						<polygon style="fill:#49A2BA;" points="233.54,434.232 154.04,434.232 166.29,372.232 245.79,372.232 						"/>
					</g>
				</g>
				<g>
					<g>
						<path style="fill:#49A2BA;" d="M233.54,435.232h-79.5c-0.299,0-0.582-0.134-0.772-0.365c-0.19-0.231-0.267-0.535-0.209-0.828
							l12.25-62c0.092-0.469,0.503-0.807,0.981-0.807h79.5c0.299,0,0.583,0.134,0.773,0.365c0.19,0.232,0.267,0.535,0.208,0.828
							l-12.25,62C234.429,434.894,234.018,435.232,233.54,435.232z M155.257,433.232h77.461l11.855-60h-77.461L155.257,433.232z"/>
					</g>
				</g>
			</g>
			<g>
				<g>
					<g>
						<rect x="139.79" y="434.232" style="fill:#3B8396;" width="93.75" height="9.75"/>
					</g>
				</g>
				<g>
					<g>
						<path style="fill:#3B8396;" d="M233.54,444.982h-93.75c-0.552,0-1-0.447-1-1v-9.75c0-0.553,0.448-1,1-1h93.75
							c0.552,0,1,0.447,1,1v9.75C234.54,444.534,234.093,444.982,233.54,444.982z M140.79,442.982h91.75v-7.75h-91.75V442.982z"/>
					</g>
				</g>
			</g>
			<g>
				<g>
					<g>
						<ellipse style="fill:#97C3CF;" cx="202.665" cy="404.232" rx="5.125" ry="5"/>
					</g>
				</g>
				<g>
					<g>
						<path style="fill:#97C3CF;" d="M202.665,410.232c-3.377,0-6.125-2.691-6.125-6c0-3.309,2.748-6,6.125-6
							c3.378,0,6.125,2.691,6.125,6C208.79,407.54,206.043,410.232,202.665,410.232z M202.665,400.232c-2.274,0-4.125,1.794-4.125,4
							c0,2.206,1.851,4,4.125,4c2.275,0,4.125-1.794,4.125-4C206.79,402.026,204.94,400.232,202.665,400.232z"/>
					</g>
				</g>
			</g>
			<g>
				<g>
					<g>
						<path style="fill:#3C97B0;" d="M243.732,382.65c-15.194,19.467-44.795,47.661-89.028,48.223l-0.664,3.359h79.5L243.732,382.65
							z"/>
					</g>
				</g>
				<g>
					<g>
						<path style="fill:#3C97B0;" d="M233.54,435.232h-79.5c-0.299,0-0.582-0.134-0.772-0.365c-0.19-0.231-0.267-0.535-0.209-0.828
							l0.664-3.358c0.092-0.464,0.496-0.801,0.968-0.807c44.743-0.568,74.498-30.217,88.252-47.839
							c0.284-0.365,0.783-0.489,1.204-0.294c0.421,0.192,0.655,0.648,0.565,1.102l-10.191,51.582
							C234.429,434.894,234.018,435.232,233.54,435.232z M155.257,433.232h77.461l9.243-46.781
							c-14.834,17.957-43.901,44.541-86.433,45.409L155.257,433.232z"/>
					</g>
				</g>
			</g>
		</g>
	</g>
	<g>
		<g>
			<g>
				<g>
					<g>
						<circle style="fill:#B8DBCD;" cx="390.29" cy="160.482" r="89"/>
					</g>
				</g>
				<g>
					<g>
						<path style="fill:#9DCCB9;" d="M474.309,191.36c-114.5,36.648-148.536-35.938-158.532-76.995
							c-8.542,13.625-13.487,29.735-13.487,47.003c0,48.94,39.674,88.614,88.614,88.614
							C429.317,249.982,462.016,225.539,474.309,191.36z"/>
					</g>
				</g>
			</g>
			<g>
				<g>
					<path style="fill:#093673;" d="M459.431,216.518c-3.549-11.736-8.02-22.413-15.197-32.387
						c-7.307-10.153-18.865-18.077-31.371-17.785l-51.513,0.671c-16.863,5.013-38.425,27.74-42.727,44.799l0.036,1.49
						c16.209,21.943,42.256,36.177,71.63,36.177C418.205,249.482,443.113,236.627,459.431,216.518z"/>
				</g>
				<g>
					<path style="fill:#093673;" d="M390.29,250.482c-28.437,0-55.515-13.676-72.435-36.583c-0.122-0.166-0.19-0.364-0.195-0.569
						l-0.037-1.49c-0.002-0.091,0.008-0.181,0.03-0.27c4.403-17.461,26.311-40.43,43.411-45.513c0.089-0.026,0.18-0.04,0.272-0.042
						l51.513-0.671c0.227-0.005,0.458-0.008,0.686-0.008c11.538,0,23.272,6.764,31.509,18.209
						c6.514,9.05,11.245,19.13,15.343,32.682c0.096,0.318,0.028,0.662-0.181,0.919C443.018,238.332,417.534,250.482,390.29,250.482z
						 M319.653,212.964c16.556,22.246,42.939,35.518,70.638,35.518c26.461,0,51.226-11.724,68.028-32.183
						c-3.995-13.075-8.6-22.833-14.896-31.584c-8.014-11.135-19.419-17.622-30.536-17.37l-51.383,0.669
						c-16.498,4.987-37.547,27.061-41.877,43.914L319.653,212.964z"/>
				</g>
			</g>
			<g>
				<g>
					<path style="fill:#093673;" d="M459.431,216.518c-2.527-8.359-5.529-16.178-9.637-23.591
						c-55.558,38.521-104.762,13.094-122.781,1.992c-4.03,5.711-7.049,11.579-8.39,16.896l0.036,1.49
						c16.209,21.943,42.256,36.177,71.63,36.177C418.205,249.482,443.113,236.627,459.431,216.518z"/>
				</g>
				<g>
					<path style="fill:#093673;" d="M390.29,250.482c-28.437,0-55.515-13.676-72.435-36.583c-0.122-0.166-0.19-0.364-0.195-0.569
						l-0.037-1.49c-0.002-0.091,0.008-0.181,0.03-0.27c1.315-5.213,4.269-11.171,8.542-17.229c0.304-0.432,0.89-0.553,1.342-0.275
						c28.711,17.69,73.125,31.708,121.688-1.962c0.23-0.162,0.522-0.217,0.797-0.152c0.275,0.064,0.51,0.242,0.647,0.489
						c3.795,6.85,6.883,14.408,9.719,23.787c0.096,0.318,0.028,0.662-0.181,0.919C443.018,238.332,417.534,250.482,390.29,250.482z
						 M319.653,212.964c16.556,22.246,42.939,35.518,70.638,35.518c26.461,0,51.226-11.724,68.028-32.183
						c-2.617-8.566-5.453-15.577-8.871-21.92c-23.85,16.26-49.166,22.697-75.256,19.144c-15.817-2.155-31.591-7.96-46.897-17.259
						c-3.81,5.539-6.453,10.937-7.669,15.665L319.653,212.964z"/>
				</g>
			</g>
			<g>
				<g>
					<g>
						<path style="fill:#F58E9E;" d="M410.181,170.697c-2.951,4.144-7.245,7.21-11.904,9.254c-6.105,2.68-13.009,3.686-19.547,2.379
							c-6.538-1.307-12.653-5.01-16.463-10.481c-0.824-1.184-1.56-2.71-0.943-4.015c0.514-1.087,1.773-1.579,2.937-1.88
							c2.727-0.705,5.567-0.912,8.277-1.679c2.71-0.767,5.399-0.229,6.749-2.701c1.925-3.522,1.858-8.355,0.516-12.138l12.861-8.705
							l6.875,7.625l12,17.125L410.181,170.697z"/>
					</g>
				</g>
				<g>
					<g>
						<path style="fill:#F58E9E;" d="M384.549,183.894c-2.045,0-4.061-0.193-6.015-0.583c-7.017-1.402-13.245-5.372-17.087-10.89
							c-1.343-1.928-1.688-3.614-1.027-5.013c0.722-1.525,2.396-2.112,3.592-2.421c1.323-0.342,2.674-0.571,3.98-0.792
							c1.487-0.252,2.892-0.489,4.274-0.881c0.848-0.24,1.658-0.357,2.443-0.471c1.903-0.274,3.014-0.491,3.7-1.747
							c1.646-3.013,1.824-7.458,0.451-11.324c-0.152-0.429,0.005-0.907,0.382-1.163l12.861-8.705
							c0.412-0.279,0.969-0.213,1.304,0.159l6.875,7.625c0.027,0.03,0.053,0.062,0.076,0.096l12,17.125
							c0.168,0.24,0.223,0.542,0.148,0.826l-1.359,5.215c-0.031,0.118-0.083,0.229-0.153,0.328
							c-2.836,3.982-7.095,7.298-12.315,9.59C394.123,182.866,389.264,183.894,384.549,183.894z M380.99,149.842
							c1.28,4.202,0.977,8.917-0.823,12.212c-1.2,2.196-3.219,2.487-5.171,2.769c-0.72,0.104-1.464,0.211-2.184,0.415
							c-1.487,0.421-3.012,0.68-4.485,0.929c-1.265,0.214-2.573,0.436-3.815,0.756c-1.282,0.331-2.008,0.757-2.284,1.339
							c-0.413,0.876,0.24,2.124,0.86,3.016c3.551,5.098,9.323,8.77,15.839,10.072c6.06,1.21,12.79,0.39,18.948-2.314
							c4.826-2.118,8.758-5.148,11.385-8.771l1.196-4.587l-11.7-16.696l-6.251-6.933L380.99,149.842z M410.181,170.697h0.01H410.181
							z"/>
					</g>
				</g>
			</g>
			<g>
				<g>
					<g>
						<path style="fill:#F07689;" d="M392.915,143.482c-2.94,1.378-9.657,4.645-13.013,6.281c0.728,2.2,1.029,4.714,0.772,7.117
							c1.836-0.14,4.817-1.181,7.991-5.147C393.165,146.107,396.915,141.607,392.915,143.482z"/>
					</g>
				</g>
				<g>
					<g>
						<path style="fill:#F07689;" d="M380.674,157.879c-0.27,0-0.529-0.109-0.718-0.304c-0.207-0.213-0.309-0.508-0.276-0.803
							c0.235-2.193-0.022-4.571-0.727-6.696c-0.157-0.476,0.061-0.994,0.511-1.213c2.899-1.413,9.972-4.855,13.026-6.287l0,0
							c0.683-0.32,2.1-0.984,2.847-0.036c0.938,1.19-0.396,2.959-5.166,8.911l-0.725,0.905c-3.602,4.501-6.995,5.391-8.696,5.52
							C380.725,157.878,380.7,157.879,380.674,157.879z M381.107,150.288c0.479,1.739,0.702,3.594,0.65,5.388
							c1.515-0.414,3.717-1.557,6.127-4.569l0.727-0.907c1.543-1.925,3.355-4.186,4.321-5.622
							C389.974,145.975,384.185,148.788,381.107,150.288z"/>
					</g>
				</g>
			</g>
			<g>
				<g>
					<g>
						<path style="fill:#F58E9E;" d="M387.773,142.613c-2.976,3.912-7.433,6.669-12.262,7.583c-2.379,0.451-5.336,0.201-6.509-1.918
							c-0.59-1.066-0.564-1.349-0.731-2.556c-0.167-1.207-0.472-2.54-1.605-2.99c2.742-0.532,6.875-3.313,4.428-5.752
							c-1.094-1.09-2.228,1.429-3.428,1.814c-1.2,0.385-2.391,0.432-3.165-0.562c-0.431-0.553-0.593-1.274-0.995-1.848
							c-1.242-1.775-4.502,0.015-5.854-0.872c-1.353-0.886,3.178-8.575,2.565-13.479c-0.612-4.903-0.7-17.79,3.638-20.728
							c0,0,6.562-5.824,17.937-2.074s15.75,22.75,15.75,23.5s0.25,27.125,0.25,27.125l-2.5,4.875"/>
					</g>
				</g>
				<g>
					<g>
						<path style="fill:#F58E9E;" d="M395.289,155.732c-0.153,0-0.31-0.035-0.455-0.11c-0.491-0.252-0.686-0.855-0.434-1.346
							l2.388-4.655c-0.027-2.839-0.248-26.172-0.248-26.888c-0.19-1.806-4.755-19.152-15.063-22.55
							c-10.701-3.528-16.898,1.817-16.959,1.872c-0.033,0.029-0.067,0.056-0.104,0.08c-3.654,2.476-3.892,14.294-3.206,19.776
							c0.358,2.873-0.846,6.44-1.813,9.307c-0.415,1.23-0.968,2.868-1.002,3.529c0.377,0.074,1.066-0.006,1.595-0.067
							c1.382-0.16,3.279-0.378,4.336,1.132c0.242,0.347,0.407,0.713,0.553,1.037c0.132,0.294,0.257,0.572,0.411,0.77
							c0.167,0.213,0.552,0.713,2.071,0.225c0.223-0.071,0.636-0.493,0.938-0.802c0.609-0.622,1.3-1.326,2.206-1.332
							c0.324,0.046,0.826,0.095,1.296,0.564c0.927,0.923,1.247,2.052,0.904,3.177c-0.52,1.704-2.385,3.013-4.132,3.734
							c0.473,0.84,0.607,1.81,0.689,2.401l0.056,0.416c0.108,0.829,0.135,1.025,0.56,1.794c0.904,1.635,3.41,1.804,5.448,1.419
							c4.583-0.868,8.83-3.495,11.652-7.206c0.333-0.439,0.963-0.525,1.401-0.19c0.439,0.334,0.524,0.962,0.19,1.401
							c-3.118,4.1-7.81,7.001-12.871,7.96c-2.729,0.518-6.149,0.153-7.571-2.416c-0.586-1.059-0.662-1.506-0.793-2.503l-0.053-0.4
							c-0.187-1.341-0.482-1.999-0.984-2.198c-0.413-0.164-0.668-0.58-0.627-1.023c0.042-0.442,0.37-0.804,0.806-0.889
							c1.688-0.327,3.941-1.658,4.315-2.884c0.08-0.264,0.112-0.625-0.332-1.104c-0.204,0.139-0.525,0.467-0.732,0.678
							c-0.522,0.533-1.062,1.084-1.755,1.306c-1.887,0.604-3.322,0.303-4.26-0.899c-0.303-0.388-0.492-0.809-0.658-1.18
							c-0.12-0.267-0.233-0.518-0.368-0.71c-0.347-0.496-1.202-0.436-2.468-0.291c-1.101,0.127-2.237,0.258-3.114-0.316
							c-1.27-0.832-0.643-2.691,0.397-5.772c0.902-2.674,2.025-6.001,1.724-8.419c-0.459-3.673-1.116-18.069,4.019-21.646
							c0.705-0.6,7.473-5.983,18.861-2.23c11.861,3.91,16.436,23.15,16.436,24.45c0,0.737,0.247,26.852,0.25,27.116
							c0.002,0.162-0.036,0.322-0.11,0.466l-2.5,4.875C396.003,155.533,395.653,155.732,395.289,155.732z"/>
					</g>
				</g>
			</g>
			<g>
				<g>
					<g>
						<path style="fill:#FFFFFF;" d="M366.388,123.534c0,0-0.632,3.705,3.364,3.121c3.996-0.583,4.317-5.134,4.317-5.134
							s-4.001,0.068-4.818,0.258C368.435,121.968,366.388,123.534,366.388,123.534z"/>
					</g>
					<g>
						<path style="fill:#FFFFFF;" d="M367.874,127.6c-0.619-0.149-1.139-0.437-1.557-0.864c-1.233-1.264-0.951-3.158-0.916-3.37
							l0.066-0.387l0.312-0.238c0.52-0.398,2.292-1.714,3.245-1.935c0.875-0.203,4.341-0.272,5.027-0.283l1.091-0.019l-0.077,1.089
							c-0.13,1.852-1.379,5.5-5.171,6.054C369.137,127.756,368.461,127.74,367.874,127.6z M367.349,124.063
							c0,0.397,0.078,0.95,0.404,1.28c0.425,0.429,1.243,0.413,1.855,0.323c2.065-0.301,2.908-1.969,3.246-3.116
							c-1.548,0.045-3.024,0.121-3.376,0.204C369.193,122.82,368.253,123.402,367.349,124.063z"/>
					</g>
				</g>
				<g>
					<g>
						<path style="fill:#093673;" d="M370.857,124.423c-0.113,1.386-0.83,2.459-1.6,2.396c-0.77-0.063-1.303-1.238-1.189-2.624
							s0.83-2.459,1.6-2.396C370.438,121.862,370.97,123.037,370.857,124.423z"/>
					</g>
					<g>
						<path style="fill:#093673;" d="M368.9,127.772c-1.208-0.29-1.981-1.798-1.828-3.659c0.068-0.836,0.323-1.623,0.718-2.215
							c0.505-0.757,1.219-1.156,1.959-1.096c0.736,0.06,1.38,0.57,1.755,1.4c0.294,0.648,0.417,1.466,0.349,2.302
							c-0.068,0.837-0.323,1.624-0.719,2.215c-0.505,0.757-1.22,1.157-1.959,1.097C369.082,127.808,368.989,127.793,368.9,127.772z
							 M369.582,122.845c-0.172,0.168-0.454,0.659-0.517,1.431c-0.064,0.772,0.135,1.303,0.277,1.497
							c0.172-0.168,0.455-0.66,0.517-1.431l0,0C369.923,123.57,369.724,123.039,369.582,122.845z"/>
					</g>
				</g>
				<g>
					<g>
						<path style="fill:#093673;" d="M365.654,124.296c-0.083-0.02-0.164-0.051-0.243-0.093c-0.485-0.262-0.667-0.869-0.405-1.354
							c0.815-1.511,2.451-2.554,4.165-2.66c0.706-0.043,1.364,0.062,1.999,0.164c0.3,0.048,0.6,0.096,0.901,0.125
							c0.473,0.045,1.333,0.053,1.776-0.396c0.389-0.393,1.022-0.398,1.414-0.009c0.393,0.388,0.398,1.021,0.01,1.414
							c-0.771,0.78-1.942,1.12-3.389,0.982c-0.344-0.033-0.686-0.087-1.027-0.142c-0.553-0.088-1.077-0.172-1.563-0.142
							c-1.039,0.063-2.032,0.696-2.526,1.613C366.547,124.206,366.085,124.399,365.654,124.296z"/>
					</g>
				</g>
				<g>
					<g>
						<path style="fill:#093673;" d="M364.314,119.717c-0.143-0.034-0.281-0.101-0.403-0.202c-0.426-0.352-0.485-0.982-0.134-1.408
							c1.244-1.504,2.625-2.994,4.61-3.249c0.921-0.118,1.765,0.062,2.581,0.236c0.291,0.062,0.584,0.125,0.876,0.17
							c1.447,0.223,2.963-0.019,4.269-0.681c0.492-0.249,1.092-0.054,1.345,0.44c0.249,0.492,0.053,1.094-0.439,1.344
							c-1.676,0.85-3.623,1.16-5.48,0.874c-0.329-0.051-0.659-0.12-0.988-0.191c-0.682-0.146-1.326-0.283-1.908-0.208
							c-1.264,0.162-2.293,1.294-3.323,2.54C365.068,119.687,364.674,119.804,364.314,119.717z"/>
					</g>
				</g>
			</g>
			<g>
				<g>
					<path style="fill:#F6C056;" d="M373.804,99.539c3.412,0.334,6.893,2.118,8.294,5.247c1.29,2.88,0.609,6.201,0.508,9.355
						c-0.137,4.282,0.91,8.682,3.439,12.14c2.083,2.848,5.291,12.536,4.906,16.043c-0.249,2.267-1.984,4.042-3.042,6.063
						c-1.535,2.932-1.624,6.486-0.683,9.659c1.867,6.298,7.91,11.123,14.465,11.55c6.555,0.427,19.281-2.868,21.95-8.87
						c2.669-6.002,2.979-17.26-1.728-21.841c-1.474-1.435-3.26-2.635-4.228-4.45c-2.362-4.426-0.211-14.271-0.845-19.247
						c-0.518-4.066-6.059-13.91-8.754-16.999c-4.843-5.549-9.585-11.47-17.127-11.942c-3.907-0.244-10.496,1.226-14.242,2.362
						c-1.982,0.601-3.847,2.562-5.852,3.084c-1.548,0.403-3.154,0.537-4.716,0.88c-1.563,0.343-3.132,0.927-4.261,2.06
						c-2.034,2.041-1.641,6.334,1.818,6.377c1.23,0.015,2.605-0.744,3.802-1.003C369.56,99.566,371.706,99.334,373.804,99.539z"/>
				</g>
				<g>
					<path style="fill:#F6C056;" d="M402.631,170.627c-0.336,0-0.671-0.011-1.007-0.033c-6.926-0.452-13.385-5.609-15.358-12.264
						c-1.078-3.637-0.802-7.43,0.757-10.407c0.357-0.683,0.78-1.329,1.189-1.954c0.823-1.257,1.601-2.444,1.744-3.754
						c0.35-3.185-2.753-12.654-4.72-15.344c-2.495-3.413-3.785-7.945-3.631-12.762c0.023-0.727,0.076-1.463,0.13-2.201
						c0.177-2.425,0.344-4.715-0.552-6.714c-1.116-2.496-4.052-4.326-7.478-4.661c-1.805-0.176-3.762-0.028-5.988,0.453
						c-0.388,0.084-0.825,0.239-1.288,0.402c-0.882,0.312-1.784,0.626-2.737,0.623c-1.724-0.021-3.069-0.908-3.691-2.433
						c-0.749-1.837-0.254-4.213,1.179-5.65c1.105-1.109,2.66-1.871,4.755-2.331c0.7-0.154,1.409-0.268,2.118-0.38
						c0.892-0.142,1.733-0.276,2.56-0.491c0.876-0.228,1.776-0.817,2.73-1.441c0.977-0.639,1.986-1.299,3.084-1.632
						c3.996-1.213,8.318-0.992,12.172,0.621c5.192,2.173,8.807,6.96,12.303,11.588c1.299,1.72,2.525,3.345,3.822,4.83
						c2.853,3.27,4.681,9.05,5.227,13.329c0.248,1.95,0.094,4.528-0.068,7.257c-0.256,4.275-0.545,9.121,0.802,11.646
						c0.616,1.153,1.646,2.058,2.737,3.017c0.444,0.39,0.888,0.78,1.307,1.188c4.975,4.84,6.539,12.957,3.719,19.299
						C415.763,166.463,409.227,170.627,402.631,170.627z M372.203,98.462c0.579,0,1.144,0.027,1.697,0.082l0,0
						c3.285,0.321,7.403,2.023,9.109,5.834c1.101,2.458,0.907,5.111,0.721,7.676c-0.052,0.71-0.104,1.419-0.127,2.12
						c-0.14,4.373,1.014,8.463,3.248,11.518c2.289,3.132,5.504,12.991,5.093,16.743c-0.196,1.787-1.144,3.233-2.06,4.632
						c-0.4,0.611-0.778,1.189-1.091,1.786c-1.319,2.52-1.542,5.768-0.61,8.911c1.743,5.88,7.451,10.438,13.571,10.837
						c6.099,0.398,12.371-3.378,14.862-8.983c2.492-5.604,1.11-12.776-3.285-17.053c-0.396-0.385-0.813-0.751-1.231-1.119
						c-1.178-1.034-2.396-2.104-3.182-3.578c-1.613-3.022-1.319-7.945-1.035-12.706c0.157-2.633,0.306-5.121,0.081-6.885
						c-0.49-3.849-2.186-9.33-4.75-12.267c-1.343-1.539-2.648-3.268-3.911-4.94c-3.335-4.417-6.784-8.984-11.477-10.949
						c-3.376-1.413-7.318-1.614-10.82-0.552c-0.822,0.25-1.671,0.804-2.569,1.392c-1.047,0.685-2.129,1.393-3.321,1.703
						c-0.919,0.239-1.85,0.388-2.749,0.531c-0.671,0.107-1.342,0.213-2.005,0.358c-1.708,0.375-2.94,0.96-3.767,1.79
						c-0.875,0.878-1.194,2.375-0.743,3.482c0.317,0.777,0.944,1.177,1.865,1.188c0.589,0.03,1.329-0.254,2.045-0.508
						c0.502-0.178,1.02-0.361,1.532-0.472C369.058,98.651,370.679,98.462,372.203,98.462z"/>
				</g>
			</g>
			<g>
				<g>
					<path style="fill:#D1941D;" d="M394.124,134.315c-0.029,0-0.059-0.001-0.089-0.004c-0.55-0.048-0.957-0.533-0.908-1.083
						c0.471-5.358-2.097-8.951-4.361-12.121c-1.584-2.217-3.08-4.312-3.305-6.699c-0.155-1.66-0.184-3.274-0.212-4.836
						c-0.06-3.366-0.112-6.273-1.42-7.983c-0.336-0.439-0.252-1.066,0.186-1.402c0.44-0.334,1.067-0.251,1.401,0.187
						c1.708,2.232,1.766,5.444,1.832,9.162c0.027,1.524,0.055,3.1,0.204,4.685c0.173,1.85,1.455,3.645,2.941,5.723
						c2.344,3.281,5.261,7.364,4.725,13.458C395.074,133.923,394.637,134.315,394.124,134.315z"/>
				</g>
			</g>
			<g>
				<g>
					<path style="fill:#D1941D;" d="M397.957,165.482c-0.098,0-0.197-0.015-0.297-0.045c-2.71-0.841-4.638-2.425-5.729-4.708
						c-2.386-4.991,0.152-11.507,0.262-11.782c0.204-0.513,0.782-0.765,1.298-0.56c0.513,0.203,0.765,0.784,0.562,1.297
						c-0.023,0.06-2.324,5.992-0.313,10.188c0.842,1.757,2.36,2.986,4.515,3.655c0.527,0.164,0.822,0.724,0.658,1.252
						C398.78,165.207,398.384,165.482,397.957,165.482z"/>
				</g>
			</g>
			<g>
				<g>
					<path style="fill:#D1941D;" d="M401.124,143.482c-0.31,0-0.614-0.143-0.81-0.412c-1.52-2.09-2.714-6.716-1.509-13.431
						c1.05-5.847-3.794-10.196-3.843-10.239c-0.413-0.365-0.454-0.996-0.091-1.411c0.365-0.415,0.994-0.457,1.409-0.093
						c0.235,0.206,5.746,5.12,4.493,12.096c-1.096,6.103-0.061,10.226,1.157,11.902c0.325,0.447,0.227,1.072-0.221,1.396
						C401.534,143.42,401.328,143.482,401.124,143.482z"/>
				</g>
			</g>
			<g>
				<g>
					<path style="fill:#EC4258;" d="M363.938,140.272c1.233-0.08,2.481-0.113,3.708-0.262c1.29-0.157,2.57-0.488,3.495-1.467
						c0.539-0.571,0.608-1.563,0-2.121c-0.585-0.537-1.546-0.609-2.121,0c-0.06,0.064-0.227,0.17-0.259,0.246
						c0.189-0.142,0.219-0.168,0.091-0.077c-0.049,0.033-0.099,0.063-0.149,0.093c-0.089,0.052-0.182,0.095-0.275,0.141
						c-0.104,0.047-0.053,0.025,0.153-0.066c-0.056,0.021-0.112,0.041-0.169,0.06c-0.231,0.077-0.468,0.133-0.707,0.176
						c-0.089,0.016-0.189,0.018-0.274,0.044c0.246-0.032,0.286-0.038,0.122-0.018c-0.061,0.007-0.123,0.014-0.185,0.02
						c-1.14,0.112-2.289,0.157-3.431,0.231c-0.782,0.051-1.538,0.654-1.5,1.5C362.473,139.541,363.1,140.326,363.938,140.272
						L363.938,140.272z"/>
				</g>
			</g>
			<g>
				<g>
					<path style="fill:#EC4258;" d="M367.075,143.692c1.962-1.072,3.432-2.916,4.115-5.036c0.241-0.747-0.281-1.671-1.048-1.845
						c-0.821-0.187-1.587,0.248-1.845,1.048c-0.065,0.201-0.138,0.399-0.219,0.594c0.05-0.119,0.101-0.239,0.151-0.358
						c-0.249,0.584-0.57,1.13-0.958,1.633c0.078-0.101,0.156-0.202,0.234-0.304c-0.379,0.483-0.812,0.916-1.296,1.293
						c0.101-0.078,0.202-0.156,0.304-0.234c-0.302,0.231-0.62,0.438-0.953,0.621c-0.689,0.376-0.968,1.385-0.538,2.052
						C365.474,143.853,366.338,144.094,367.075,143.692L367.075,143.692z"/>
				</g>
			</g>
			<g>
				<path style="fill:#F6C056;" d="M382.941,108.049c-0.938-2.322-3.733-3.405-6.233-3.251c-2.499,0.153-4.826,1.251-7.176,2.114
					c-1.779,0.653-3.605,1.179-5.459,1.572c-2.452,0.52-5.239,0.739-7.245-0.764c-2.139-1.603-2.635-4.634-2.337-7.291
					c0.428-3.817,2.388-7.694,5.852-9.355c2.506-1.201,5.413-1.104,8.189-0.981c3.266,0.144,6.532,0.289,9.798,0.433
					c0.302,4.962,1.672,9.857,3.988,14.256"/>
			</g>
		</g>
		<g>
			<g>
				<g>
					<g>
						<rect x="337.624" y="189.815" style="fill:#49A2BA;" width="89" height="60.333"/>
					</g>
				</g>
				<g>
					<g>
						<path style="fill:#49A2BA;" d="M426.623,251.148h-89c-0.553,0-1-0.448-1-1v-60.333c0-0.552,0.447-1,1-1h89
							c0.553,0,1,0.448,1,1v60.333C427.623,250.7,427.176,251.148,426.623,251.148z M338.623,249.148h87v-58.333h-87V249.148z"/>
					</g>
				</g>
			</g>
			<g>
				<g>
					<g>
						<path style="fill:#97C3CF;" d="M385.957,220.648c0,3.038-2.388,5.5-5.333,5.5c-2.945,0-5.333-2.462-5.333-5.5
							c0-3.038,2.388-5.5,5.333-5.5C383.569,215.148,385.957,217.611,385.957,220.648z"/>
					</g>
				</g>
				<g>
					<g>
						<path style="fill:#97C3CF;" d="M380.623,227.148c-3.492,0-6.333-2.916-6.333-6.5s2.841-6.5,6.333-6.5
							c3.492,0,6.334,2.916,6.334,6.5S384.116,227.148,380.623,227.148z M380.623,216.148c-2.39,0-4.333,2.019-4.333,4.5
							c0,2.481,1.943,4.5,4.333,4.5c2.39,0,4.334-2.019,4.334-4.5C384.957,218.167,383.013,216.148,380.623,216.148z"/>
					</g>
				</g>
			</g>
			<g>
				<g>
					<g>
						<path style="fill:#3C97B0;" d="M426.624,213.145c-16.953,16.137-46.524,34.998-89,31.25v5.754h89V213.145z"/>
					</g>
				</g>
				<g>
					<g>
						<path style="fill:#3C97B0;" d="M426.623,251.148h-89c-0.553,0-1-0.448-1-1v-5.754c0-0.28,0.118-0.548,0.324-0.737
							c0.208-0.189,0.487-0.279,0.764-0.259c42.115,3.711,71.221-14.795,88.223-30.978c0.29-0.275,0.715-0.353,1.083-0.195
							c0.368,0.157,0.606,0.519,0.606,0.919v37.004C427.623,250.7,427.176,251.148,426.623,251.148z M338.623,249.148h87v-33.701
							c-17.356,15.924-46.08,33.299-87,30.034V249.148z"/>
					</g>
				</g>
			</g>
			<g>
				<g>
					<g>
						<rect x="335.957" y="250.482" style="fill:#3B8396;" width="91.667" height="9"/>
					</g>
				</g>
				<g>
					<g>
						<path style="fill:#3B8396;" d="M427.623,260.482h-91.666c-0.553,0-1-0.448-1-1v-9c0-0.552,0.447-1,1-1h91.666
							c0.553,0,1,0.448,1,1v9C428.623,260.034,428.176,260.482,427.623,260.482z M336.957,258.482h89.666v-7h-89.666V258.482z"/>
					</g>
				</g>
			</g>
		</g>
		<g>
			<g>
				<g>
					<g>
						<path style="fill:#3B8396;" d="M328.386,88.267h-51.667c-5.5,0-10,4.5-10,10v19.333c0,5.5,4.5,10,10,10h38.703
							c0.538,3.168,3.743,6.409,5.97,8.008c3.396,2.438,7.719,3.551,11.87,3.057c-3.006-0.488-5.041-3.567-5.355-6.597
							c-0.156-1.502,0.015-2.994,0.346-4.469h0.133c5.5,0,10-4.5,10-10V98.267C338.386,92.767,333.886,88.267,328.386,88.267z"/>
					</g>
				</g>
				<g>
					<g>
						<path style="fill:#3B8396;" d="M331.32,139.78c-3.735,0-7.475-1.18-10.511-3.359c-1.916-1.376-5.2-4.467-6.18-7.821h-37.91
							c-6.065,0-11-4.935-11-11V98.267c0-6.066,4.935-11,11-11h51.667c6.065,0,11,4.934,11,11V117.6
							c0,5.834-4.565,10.622-10.312,10.979c-0.224,1.242-0.279,2.355-0.172,3.387c0.255,2.456,1.925,5.292,4.52,5.713
							c0.492,0.08,0.851,0.51,0.84,1.009c-0.011,0.498-0.387,0.913-0.882,0.972C332.697,139.74,332.008,139.78,331.32,139.78z
							 M276.719,89.267c-4.963,0-9,4.038-9,9V117.6c0,4.962,4.037,9,9,9h38.703c0.487,0,0.904,0.351,0.986,0.832
							c0.447,2.634,3.199,5.664,5.566,7.363c2.183,1.567,4.775,2.552,7.444,2.871c-1.433-1.481-2.305-3.549-2.507-5.495
							c-0.151-1.456-0.032-3.023,0.365-4.791c0.103-0.457,0.508-0.781,0.976-0.781h0.133c4.963,0,9-4.038,9-9V98.267
							c0-4.962-4.037-9-9-9H276.719z"/>
					</g>
				</g>
			</g>
			<g>
				<g>
					<g>
						<path style="fill:#FFFFFF;" d="M307.386,99.6h-32.667c-0.553,0-1-0.448-1-1c0-0.552,0.447-1,1-1h32.667c0.553,0,1,0.448,1,1
							C308.386,99.153,307.939,99.6,307.386,99.6z"/>
					</g>
				</g>
				<g>
					<g>
						<path style="fill:#FFFFFF;" d="M322.719,116.267h-48c-0.553,0-1-0.448-1-1c0-0.552,0.447-1,1-1h48c0.553,0,1,0.448,1,1
							C323.719,115.82,323.272,116.267,322.719,116.267z"/>
					</g>
				</g>
				<g>
					<g>
						<path style="fill:#FFFFFF;" d="M297.053,107.934h-22.334c-0.553,0-1-0.448-1-1c0-0.552,0.447-1,1-1h22.334
							c0.553,0,1,0.448,1,1C298.053,107.486,297.606,107.934,297.053,107.934z"/>
					</g>
				</g>
			</g>
		</g>
	</g>
	<g>
		<g>
			<g>
				<rect x="153.29" y="280.482" style="fill:#FFFFFF;" width="75.667" height="76"/>
			</g>
			<g>
				<path style="fill:#FFFFFF;" d="M228.957,357.482H153.29c-0.552,0-1-0.447-1-1v-76c0-0.553,0.448-1,1-1h75.667
					c0.552,0,1,0.447,1,1v76C229.957,357.034,229.509,357.482,228.957,357.482z M154.29,355.482h73.667v-74H154.29V355.482z"/>
			</g>
		</g>
		<g>
			<g>
				<g>
					<path style="fill:#093673;" d="M221.545,293.552h-56.33c-0.552,0-1-0.447-1-1s0.448-1,1-1h56.33c0.552,0,1,0.447,1,1
						S222.098,293.552,221.545,293.552z"/>
				</g>
			</g>
			<g>
				<g>
					<path style="fill:#093673;" d="M220.651,306.07h-43.812c-0.552,0-1-0.447-1-1c0-0.553,0.448-1,1-1h43.812c0.552,0,1,0.447,1,1
						C221.651,305.622,221.203,306.07,220.651,306.07z"/>
				</g>
			</g>
			<g>
				<g>
					<path style="fill:#093673;" d="M221.545,318.587h-56.33c-0.552,0-1-0.447-1-1c0-0.553,0.448-1,1-1h56.33c0.552,0,1,0.447,1,1
						C222.545,318.14,222.098,318.587,221.545,318.587z"/>
				</g>
			</g>
		</g>
		<g>
			<g>
				<g>
					<g>
						<path style="fill:#49A2BA;" d="M222.439,338.599c0-3.95-6.605-7.153-14.753-7.153s-14.753,3.202-14.753,7.153
							s6.605,7.153,14.753,7.153c0.989,0,1.953-0.049,2.887-0.139c-0.495,0.924-0.862,1.908-1.455,2.79
							c-0.355,0.529-1.951,2.952-2.658,2.9c2.216,0.161,4.438-0.698,6.152-2.111c1.436-1.184,2.822-2.931,3.507-4.729
							C219.937,343.171,222.439,341.028,222.439,338.599z"/>
					</g>
				</g>
				<g>
					<g>
						<path style="fill:#49A2BA;" d="M206.984,352.323c-0.198,0-0.395-0.007-0.591-0.021c-0.001,0-0.002-0.001-0.003-0.001
							c0,0,0,0-0.001,0c-0.551-0.039-0.965-0.518-0.925-1.069c0.035-0.479,0.402-0.855,0.86-0.919
							c0.169-0.115,0.703-0.584,1.921-2.401c0.266-0.396,0.474-0.785,0.67-1.184c-0.41,0.017-0.82,0.024-1.228,0.024
							c-8.834,0-15.753-3.581-15.753-8.153c0-4.571,6.919-8.152,15.753-8.152c8.833,0,15.753,3.581,15.753,8.152
							c0,2.73-2.386,5.142-6.566,6.659c-0.746,1.696-2.074,3.427-3.624,4.706C211.409,351.481,209.157,352.323,206.984,352.323z
							 M206.275,350.343L206.275,350.343L206.275,350.343z M210.574,344.613c0.333,0,0.646,0.166,0.833,0.445
							c0.204,0.308,0.223,0.702,0.049,1.026c-0.172,0.321-0.327,0.649-0.483,0.978c-0.297,0.627-0.604,1.273-1.023,1.898
							c-0.242,0.361-0.466,0.684-0.676,0.975c0.953-0.32,1.876-0.833,2.704-1.515c1.429-1.179,2.628-2.791,3.208-4.314
							c0.106-0.278,0.331-0.495,0.614-0.591c3.48-1.178,5.641-3.062,5.641-4.917c0-2.971-5.526-6.152-13.753-6.152
							c-8.227,0-13.753,3.182-13.753,6.152c0,2.972,5.526,6.153,13.753,6.153c0.927,0,1.867-0.045,2.791-0.134
							C210.51,344.616,210.542,344.613,210.574,344.613z"/>
					</g>
				</g>
			</g>
			<g>
				<g>
					<g>
						<path style="fill:#093673;" d="M198.969,340.158c-1.167,0-2.118-0.976-2.118-2.174c0-1.198,0.95-2.174,2.118-2.174
							c1.167,0,2.118,0.976,2.118,2.174C201.086,339.183,200.136,340.158,198.969,340.158z M198.969,337.811
							c-0.056,0-0.118,0.074-0.118,0.174c0,0.199,0.235,0.199,0.235,0C199.086,337.885,199.024,337.811,198.969,337.811z"/>
					</g>
				</g>
				<g>
					<g>
						<path style="fill:#093673;" d="M207.016,340.158c-1.168,0-2.118-0.976-2.118-2.174c0-1.198,0.95-2.174,2.118-2.174
							c1.167,0,2.118,0.976,2.118,2.174C209.134,339.183,208.184,340.158,207.016,340.158z M207.016,337.811
							c-0.056,0-0.118,0.074-0.118,0.174c0,0.199,0.235,0.199,0.235,0C207.134,337.885,207.072,337.811,207.016,337.811z"/>
					</g>
				</g>
				<g>
					<g>
						<path style="fill:#093673;" d="M214.727,340.158c-1.167,0-2.117-0.976-2.117-2.174c0-1.198,0.95-2.174,2.117-2.174
							c1.167,0,2.118,0.976,2.118,2.174C216.845,339.183,215.895,340.158,214.727,340.158z M214.727,337.811
							c-0.055,0-0.117,0.074-0.117,0.174c-0.001,0.199,0.235,0.199,0.235,0C214.845,337.885,214.783,337.811,214.727,337.811z"/>
					</g>
				</g>
			</g>
		</g>
	</g>
</g>
</svg>
